<?xml version="1.0" encoding="utf-8"?>
<!-- Generator: Adobe Illustrator 28.2.0, SVG Export Plug-In . SVG Version: 6.00 Build 0)  -->
<svg version="1.1" id="Capa_1" xmlns="http://www.w3.org/2000/svg" xmlns:xlink="http://www.w3.org/1999/xlink" x="0px" y="0px"
	 viewBox="0 0 362.72 513" style="enable-background:new 0 0 362.72 513;" xml:space="preserve">
<style type="text/css">
	.st0{fill:none;}
	.st1{fill:#FFFFFF;}
</style>
<g id="QnpB9G.tif">
</g>
<g id="vDeqDM_00000113324050710822229520000016033582417640801945_">
	<g>
		<path class="st0" d="M360.65,511.04c-120.22,0-240.43,0-360.65,0C0,340.69,0,170.35,0,0c120.22,0,240.43,0,360.65,0
			C360.65,170.35,360.65,340.69,360.65,511.04z M83.66,435.38c0,0-0.01,0.04-0.01,0.04c-0.72-0.38-1.43-0.76-2.63-1.4
			c2.4,6.56,1.94,10.21-1.45,14.32c-7,8.49-21.62,9.79-30,2.66c-4.11-3.49-5.38-8.75-2.05-12.99c2.68-3.41,6.29-6.46,10.11-8.55
			c7.32-4.02,15.55-5.35,23.84-6.04c20.46-1.7,40.49,1.34,60.41,5.51c24.34,5.09,48.36,11.89,73.3,13.78
			c18.05,1.36,35.95,0.82,53.54-3.99c40.83-11.18,71.25-47.44,75.05-89.62c1.9-21.09-1.59-41.41-9.11-61.1
			c-6.84-17.91-16.22-34.24-30.26-47.57c-2.14-2.04-4.59-3.76-7.12-5.81c8.82-2.14,17.2-4.48,24.05-10.01
			c3.03-2.45,5.77-5.64,7.6-9.06c2.27-4.25,0.52-6.95-4.22-7.8c-1.89-0.34-3.9-0.43-5.8-0.2c-5.91,0.71-11.79,1.66-17.68,2.45
			c-5.19,0.7-10.38,1.32-15.58,1.97c1.27-1.37,2.7-1.94,4.12-2.54c11.54-4.87,22.4-10.89,30.19-20.98
			c2.73-3.54,4.74-7.95,5.97-12.28c1.83-6.41-2.13-10.18-8.68-8.79c-2.71,0.58-5.45,1.44-7.89,2.72
			c-8.7,4.56-17.42,9.13-25.89,14.11c-24.69,14.53-51.07,24.2-79.52,27.78c-6.09,0.77-12.36,0.11-18.54,0.11
			c-0.04-0.42-0.08-0.83-0.12-1.25c5.92-5.69,12.88-9.91,20.45-12.86c11.52-4.49,23.21-8.59,34.94-12.49
			c17.66-5.86,35.22-11.9,50.64-22.7c10.33-7.23,19.84-15.34,26.57-26.2c5.5-8.86,8.08-18.42,6.22-28.89
			c-1.56-8.76-5.83-16.22-11.68-22.72c-28.72-31.93-64.56-45.91-107.31-42.05c-6.14,0.55-12.23,1.62-18.46,2.46
			c-0.78-2.37-1.67-4.74-2.33-7.17c-0.62-2.26-1.88-2.82-4.05-2.21c-20.67,5.79-34.5,18.57-40.56,39.43
			c-0.68,2.34-1.78,4.75-3.31,6.63c-7.67,9.38-14.33,19.31-18.38,30.83c-0.35,1-0.94,1.92-1.42,2.87c-0.32-0.07-0.65-0.15-0.97-0.22
			c0-19.71,0.03-39.41-0.04-59.12c-0.01-2.68,0.69-6.14-2.72-7.24c-3.4-1.1-5.65,1.48-7.58,3.89c-1.29,1.61-2.49,3.31-3.52,5.09
			c-6.15,10.57-9.59,22.03-10.46,34.17c-0.45,6.36-0.08,12.79-0.08,19.94c-3.33-7.37-6.41-14.21-9.53-21.02
			c-1.51-3.31-2.89-6.71-4.74-9.82c-2.09-3.49-5.56-3.34-7.38,0.27c-0.95,1.9-1.53,4.13-1.69,6.26
			c-1.22,16.35,3.72,31.14,11.68,45.13c0.6,1.05,1.18,2.1,2.23,3.96c-2.29-1.49-3.6-2.67-5.14-3.27c-1.81-0.71-3.82-0.93-5.75-1.36
			c-0.26,1.95-0.76,3.91-0.71,5.85c0.04,1.4,0.61,2.88,1.29,4.14c2.51,4.7,4.75,9.62,7.87,13.89c3.55,4.85,7.93,9.1,11.9,13.55
			c-9.22,2.4-9.22,2.4-7.59,9.75c-0.91,0.21-1.82,0.48-2.74,0.64c-15.67,2.73-30.61,7.6-44.43,15.58c-6.78,3.91-12.95,8.63-17.68,15
			c-3.55,4.78-3.52,7.26,1.53,10.1c6.51,3.67,13.31,7.01,20.32,9.54c9.63,3.48,18.69,2.38,25.77-6.06c0.31-0.37,0.7-0.68,1.09-0.97
			c5.87-4.31,11.7-8.68,17.68-12.83c0.93-0.64,3.16-0.87,3.77-0.27c4.74,4.68,9.24,9.61,13.56,14.2c-1.36-0.23-3.32-0.36-5.15-0.9
			c-5.72-1.7-9.6,0.23-12.89,5.15c-9.39,14-15.98,29.14-19.53,45.58c-2.92,13.57-3.68,27.21,0.11,40.79
			c1.8,6.46,3.45,7.41,9.69,4.96c12.81-5.01,21.89-14.21,28.06-26.31c1.03-2.02,1.09-4.7,1.04-7.06
			c-0.17-7.16-0.84-14.31-0.86-21.46c-0.01-3.54,0.96-7.09,1.52-10.91c3.66,0.66,6.77,1.73,9.84,1.66
			c7.19-0.16,10.63,3.17,13.16,9.87c3.71,9.87,9.09,19.23,9.95,29.9c0.52,6.42,0.12,13.12-1.19,19.41
			c-1.1,5.25-6.86,7.71-12.22,6.74c-4.61-0.84-7.91-5.02-8.11-10.32c-0.04-1.04-0.01-2.08-0.01-3.9c-0.91,1.1-1.4,1.57-1.74,2.13
			c-3.89,6.4-2.13,14.88,4.2,20.33c11.31,9.75,29.24,4.63,35.5-10.14c2.76-6.52,3.6-13.39,3.12-20.36
			c-0.48-7.06-1.43-14.1-2.16-21.11c3.97,2.08,8.13,4.26,12.19,6.39c-3.27,19.73,7.65,29.87,24.08,36.3
			c-0.64,1.5-1.13,2.71-1.67,3.91c-4.15,9.31-8.56,18.51-12.39,27.95c-4.14,10.2-7.08,20.72-4.79,31.96c0.3,1.47,0.52,2.96,0.88,5
			c-10.68-0.72-20.87-1.21-31.02-2.14c-17.56-1.6-35.11-3.58-52.78-2.46c-13.87,0.88-27.15,4-38.99,11.7
			c-16.35,10.63-23.51,26.97-19.66,45.79c3.18,15.56,11.53,27.01,27.61,31.1c10.62,2.7,20.93,2.12,29.11-6.4
			C97.3,457.46,95.31,441.43,83.66,435.38z"/>
		<path d="M83.66,435.36c11.65,6.06,13.64,22.1,3.8,32.35c-8.18,8.52-18.49,9.1-29.11,6.4c-16.08-4.1-24.43-15.54-27.61-31.1
			c-3.85-18.83,3.3-35.16,19.66-45.79c11.84-7.7,25.12-10.82,38.99-11.7c17.67-1.12,35.22,0.86,52.78,2.46
			c10.15,0.93,20.34,1.42,31.02,2.14c-0.35-2.03-0.58-3.52-0.88-5c-2.3-11.24,0.65-21.75,4.79-31.96
			c3.83-9.44,8.24-18.64,12.39-27.95c0.53-1.2,1.03-2.41,1.67-3.91c-16.43-6.43-27.34-16.56-24.08-36.3
			c-4.07-2.13-8.22-4.31-12.19-6.39c0.74,7.01,1.68,14.04,2.16,21.11c0.47,6.97-0.36,13.84-3.12,20.36
			c-6.26,14.77-24.19,19.89-35.5,10.14c-6.32-5.45-8.08-13.93-4.2-20.33c0.34-0.56,0.83-1.03,1.74-2.13c0,1.83-0.03,2.87,0.01,3.9
			c0.2,5.3,3.5,9.48,8.11,10.32c5.36,0.97,11.12-1.48,12.22-6.74c1.32-6.29,1.71-12.99,1.19-19.41c-0.86-10.67-6.24-20.03-9.95-29.9
			c-2.52-6.71-5.96-10.04-13.16-9.87c-3.08,0.07-6.19-1.01-9.84-1.66c-0.57,3.82-1.54,7.37-1.52,10.91
			c0.03,7.16,0.69,14.31,0.86,21.46c0.06,2.36-0.01,5.04-1.04,7.06c-6.17,12.09-15.25,21.29-28.06,26.31
			c-6.24,2.44-7.89,1.5-9.69-4.96c-3.79-13.57-3.04-27.21-0.11-40.79c3.54-16.44,10.14-31.58,19.53-45.58
			c3.29-4.91,7.18-6.85,12.89-5.15c1.83,0.55,3.79,0.67,5.15,0.9c-4.32-4.59-8.81-9.52-13.56-14.2c-0.61-0.61-2.84-0.37-3.77,0.27
			c-5.98,4.15-11.81,8.52-17.68,12.83c-0.39,0.29-0.78,0.6-1.09,0.97c-7.08,8.44-16.15,9.53-25.77,6.06
			c-7.02-2.53-13.81-5.87-20.32-9.54c-5.06-2.85-5.09-5.32-1.53-10.1c4.73-6.37,10.91-11.09,17.68-15
			c13.82-7.98,28.75-12.84,44.43-15.58c0.92-0.16,1.83-0.42,2.74-0.64c-1.63-7.35-1.63-7.35,7.59-9.75
			c-3.97-4.45-8.35-8.69-11.9-13.55c-3.12-4.27-5.36-9.19-7.87-13.89c-0.67-1.26-1.25-2.74-1.29-4.14c-0.05-1.94,0.44-3.9,0.71-5.85
			c1.92,0.43,3.93,0.65,5.75,1.36c1.54,0.6,2.85,1.78,5.14,3.27c-1.05-1.87-1.64-2.92-2.23-3.96
			c-7.96-13.99-12.91-28.78-11.68-45.13c0.16-2.13,0.73-4.36,1.69-6.26c1.82-3.61,5.29-3.76,7.38-0.27
			c1.86,3.11,3.23,6.52,4.74,9.82c3.12,6.82,6.19,13.66,9.53,21.02c0-7.16-0.37-13.58,0.08-19.94c0.87-12.14,4.31-23.6,10.46-34.17
			c1.03-1.78,2.24-3.48,3.52-5.09c1.93-2.42,4.17-4.99,7.58-3.89c3.41,1.1,2.71,4.56,2.72,7.24c0.07,19.71,0.04,39.41,0.04,59.12
			c0.32,0.07,0.65,0.15,0.97,0.22c0.48-0.96,1.07-1.87,1.42-2.87c4.05-11.52,10.71-21.46,18.38-30.83c1.53-1.87,2.63-4.28,3.31-6.63
			c6.06-20.86,19.88-33.63,40.56-39.43c2.18-0.61,3.43-0.05,4.05,2.21c0.67,2.43,1.55,4.8,2.33,7.17c6.23-0.84,12.32-1.9,18.46-2.46
			c42.75-3.86,78.59,10.11,107.31,42.05c5.85,6.5,10.12,13.96,11.68,22.72c1.86,10.46-0.72,20.03-6.22,28.89
			c-6.74,10.86-16.24,18.97-26.57,26.2c-15.43,10.8-32.98,16.83-50.64,22.7c-11.74,3.9-23.42,8-34.94,12.49
			c-7.57,2.95-14.54,7.17-20.45,12.86c0.04,0.42,0.08,0.83,0.12,1.25c6.19,0,12.45,0.65,18.54-0.11
			c28.45-3.58,54.83-13.25,79.52-27.78c8.47-4.98,17.18-9.55,25.89-14.11c2.44-1.28,5.19-2.14,7.89-2.72
			c6.56-1.39,10.51,2.37,8.68,8.79c-1.24,4.33-3.24,8.74-5.97,12.28c-7.79,10.09-18.65,16.11-30.19,20.98
			c-1.42,0.6-2.84,1.17-4.12,2.54c5.19-0.65,10.39-1.27,15.58-1.97c5.9-0.79,11.78-1.74,17.68-2.45c1.9-0.23,3.91-0.14,5.8,0.2
			c4.74,0.85,6.49,3.56,4.22,7.8c-1.83,3.42-4.58,6.61-7.6,9.06c-6.85,5.53-15.23,7.87-24.05,10.01c2.53,2.05,4.98,3.77,7.12,5.81
			c14.04,13.33,23.42,29.66,30.26,47.57c7.52,19.69,11.01,40.01,9.11,61.1c-3.8,42.18-34.22,78.44-75.05,89.62
			c-17.59,4.82-35.49,5.36-53.54,3.99c-24.94-1.88-48.96-8.69-73.3-13.78c-19.92-4.17-39.95-7.21-60.41-5.51
			c-8.29,0.69-16.51,2.02-23.84,6.04c-3.81,2.09-7.42,5.14-10.11,8.55c-3.33,4.24-2.06,9.5,2.05,12.99c8.38,7.12,23.01,5.82,30-2.66
			c3.39-4.11,3.85-7.76,1.45-14.32c1.2,0.64,1.92,1.02,2.64,1.41c-0.1,1.02-0.44,2.08-0.26,3.04c0.7,3.73-0.34,6.99-2.43,9.98
			c-7.26,10.41-24.66,11.8-33.54,2.72c-4.06-4.15-4.87-9.01-1.8-13.94c1.51-2.42,3.56-4.67,5.81-6.43c7-5.49,15.36-7.68,23.98-8.81
			c19.15-2.5,38.11-0.5,56.88,3.31c21.87,4.44,43.6,9.65,65.54,13.69c20.82,3.84,41.79,3.95,62.71-0.19
			c46.77-9.25,81.21-50.43,81.81-98.11c0.4-31.43-9.27-59.72-27.04-85.38c-4.99-7.21-10.59-14.01-18.26-18.62
			c-1.38-0.83-3.35-1.1-5-0.98c-5.2,0.38-10.37,1.33-15.58,1.57c-6.16,0.29-12.35,0.07-18.52,0.07c4.26,1.7,8.68,2.83,12.99,4.27
			c5.4,1.81,10.82,3.63,16.02,5.92c4.44,1.96,4.54,4.63,0.59,7.55c-1.72,1.27-3.71,2.18-5.75,3.36c0.66,0.84,1.23,1.57,1.81,2.3
			c-4.92-3.36-9.79-0.01-15.14-0.35c0.96,1.5,1.59,2.49,2.22,3.48c-3.47-4.07-8.23-4.24-12.34-4.29
			c3.32,5.77,7.51,11.53,10.16,17.94c8.18,19.78,6.63,39.82-0.74,59.38c-10.21,27.1-28.31,46.09-57.32,53.16
			c-1.36,0.33-2.71,1.53-3.63,2.67c-5.7,7.04-12.12,12.93-21.32,15c-3.08,0.69-5.28-0.11-6.57-3c-1.28-2.88-2.91-5.71-3.55-8.74
			c-0.78-3.66-2.82-4.36-6.09-4.57c-12.49-0.81-24.95-2.21-37.45-2.76c-15.16-0.66-30.35-0.72-45.52-0.93
			c-2.29-0.03-4.59,0.46-6.86,0.86c-2.12,0.37-4.2,0.92-6.3,1.4c13.82-0.32,27.24,1.69,40.56,4.7
			c21.52,4.85,42.97,10.04,64.59,14.41c13.49,2.73,27.27,3.37,40.99,1.27c6.32-0.97,12.56-2.5,18.84-3.78
			c-1.18,0.52-2.31,1.16-3.54,1.53c-17.23,5.18-34.84,5.58-52.32,2.42c-19.07-3.45-37.93-8.03-56.84-12.32
			c-16.47-3.74-32.88-7.68-49.96-6.9c-16.86,0.77-29.48,8.76-38.51,22.72c-0.92,1.42-1.12,3.3-1.65,4.97
			c-2.91,6.28-4.17,12.8-3.22,19.74c2,14.62,9.71,31.72,32.06,34.73c6.84,0.92,13.31-0.22,19.1-4.16
			c9.61-6.55,13.97-23.85,1.63-32.31C84.34,436.64,84.06,435.92,83.66,435.36z M234.51,161.83c-2.07,1.52-4.13,3.05-6.11,4.51
			c2.41,1.16,6.63-1.11,6.9-3.98c0.01-0.12-0.57-0.3-0.87-0.44c2.3-3.32,5.26-6.35,4.84-11.09c-1.64,1.98-2.87,4.24-4.77,5.55
			c-1.91,1.32-4.69,2.63-6.69,2.18c-1.79-0.41-3.03-3.22-4.45-4.9c-0.13,0.46-0.42,1.26-0.57,2.09c-0.55,3.08-0.04,5.92,2.7,7.76
			c2.63,1.77,5.09,0.64,7.42-0.93C233.39,162.25,233.98,162.07,234.51,161.83z M204.5,50.28c-2.28,5.66-3.62,11.48-2.97,17.64
			c0.26,2.5,0.7,4.88,4.17,4.8c0.62-6.59,1.44-13.15,5.7-18.64c-1.24,3.54-2.71,7.02-3.68,10.63c-2.01,7.55-1.89,7.57,4.49,11.83
			c1.11,0.74,2.21,1.52,3.23,2.37c1.79,1.49,3.53,3.05,4.86,4.22c1.15-4.67,2.26-9.18,3.38-13.7c-0.28,1.42-0.57,2.83-0.83,4.25
			c-1.12,6.29-2.47,12.63,3.53,17.56c1.29-2.39,2.58-4.77,3.87-7.15c-4.73,7.32-1.69,14.12,1.35,21.19
			c7.4-7.41,16.02-12.45,25.95-15.08c15.25-4.04,30.1-3.47,43.99,4.72c9.01,5.32,13.82,13.33,12.88,23.93
			c-1.04,11.69-6.74,21.35-14.54,29.87c-0.03,0.04-0.32-0.16-0.28-0.13c2.82-4.64,5.86-9.18,8.43-13.96
			c3.44-6.41,5.25-13.27,4.48-20.67c-1-9.61-10.13-19.21-19.49-20.29c0.22,0.45,0.43,0.88,0.64,1.3
			c-16.28-8.67-31.94-4.44-47.82,1.66c6.88,15.93,6.94,31.47,1.8,47.14c-0.62,1.88-0.24,3.01,1.49,3.8c0.09,0.04,0.05,0.34,0.1,0.73
			c-1.01-0.17-1.93-0.32-2.62-0.44c-3.9,3.73-1.71,6.75,0.79,10c-1.46-1.08-2.93-2.16-4.53-3.34c-1.81,3.55,0.57,5.71,1.68,8.49
			c-1.45-1.26-2.91-2.52-4.39-3.8c-2.22,2.82-4.35,5.54-6.56,8.35c0.65,0.12,1.12,0.2,1.59,0.29c-0.91,0.53-1.81,1.05-2.69,1.56
			c-0.62,6.25-5.56,8.77-10.17,11.21c-5.38,2.84-10.29,0.42-15.54-3.22c-1.26,2.66-2.86,4.87-3.3,7.29
			c-0.39,2.17-1.1,3.01-3.11,2.96c-4.94-0.13-9.87-0.31-14.81-0.41c-1.4-0.03-2.8,0.16-4.2,0.25c-0.55-0.69-0.97-1.64-1.68-2.01
			c-2.45-1.27-5.01-2.33-7.73-3.56c-9.86,9.93-17.42,21.11-19.74,35.28c0.92-1.49,1.84-2.99,2.77-4.48
			c-0.41,1.25-0.75,2.53-1.26,3.73c-6.63,15.71-1.52,29.61,6.99,42.74c2.01,3.1,5.63,5.16,8.51,7.7c0.2-0.25,0.4-0.5,0.6-0.76
			c-0.17-0.66-0.34-1.32-0.51-1.98c5.95,5.57,10.4,6.42,16.93,3.22c4.37-2.14,7.11-5.96,6.76-9.43c-11.3,6.86-18.9-0.05-20.58-9.72
			c-0.69-3.99-0.4-8.18-0.31-12.28c0.05-2.35,0.59-4.69,0.91-7.04c-5.64,10.62-9.75,21.45-4.63,33.47c-1.14-3.3-3.35-6.63-3.24-9.88
			c0.61-18.43,8.22-33.77,22.28-45.65c9.32-7.87,20.61-12.21,31.94-16.29c16.41-5.91,33.11-11.11,49.24-17.69
			c17.52-7.14,32.93-17.71,44.53-33.07c12.95-17.14,12.87-35.58-1.1-51.94c-6.26-7.33-13.67-13.77-21.11-19.96
			c-6.71-5.58-15.09-7.56-23.74-8c-7.81-0.4-14.72,2.43-21.35,6.17c0.45-0.54,0.81-1.24,1.38-1.58c5.28-3.18,10.96-5.4,17.16-5.29
			c5.18,0.09,10.35,0.89,15.52,1.38c-7.21-3.75-14.82-6.82-22.25-10.29c-8.37-3.9-15.92-2.85-22.97,2.9
			c3.02-2.22,6.04-4.44,8.84-6.5c-0.24-0.07-1.03-0.44-1.86-0.55c-4.58-0.59-9.18-0.99-13.74-1.69c-4.1-0.63-7.69,0.16-10.81,2.94
			c0.64-1.03,1.27-2.06,2.51-4.08c-4.51,0.85-8.11,1.53-11.71,2.21c-0.43-0.32-0.91-0.96-1.29-0.91c-6.56,0.87-13.1,1.83-18.62,2.62
			c-0.8,8.71-1.5,16.42-2.19,23.87c4.83,0,9.98,0,15.18,0C200.38,63.88,199.93,56.66,204.5,50.28z M130.62,135.64
			c0.58-0.73,1.41-1.38,1.7-2.22c3.25-9.49,6.42-19.01,9.59-28.53c0.22-0.67,0.41-1.47,0.27-2.13c-1.38-6.32-2.84-12.62-4.22-18.68
			c-3.69,3.05-9.99,11.99-10.78,15.73c-2.28,10.78-2.15,21.44,1.86,31.86c-0.65-0.93-1.68-1.79-1.89-2.81
			c-0.9-4.37-1.84-8.77-2.21-13.21c-0.37-4.38-0.08-8.83-0.08-12.59c-5.45,7.53-5.02,34.52,1.59,43.58
			C127.91,142.76,129.27,139.2,130.62,135.64z M143.98,328.64c0.96-0.46,2.33-0.66,2.82-1.42c2.31-3.63,5.13-7.18,6.38-11.19
			c3.22-10.42,1.71-21.01,0.35-31.64c-0.93-7.26-5.2-11.04-10.89-14.29c-0.1,0.61-0.17,1.07-0.25,1.53
			c-3.11-3.76-6.31-7.45-9.29-11.31c-1.78-2.31-3.86-3.02-6.96-2.22c2.01,4.57,3.86,9.03,5.93,13.39c4.03,8.5,7.27,17.32,7.6,26.74
			c0.21,5.94-0.39,12.12-1.93,17.85c-1.45,5.41-7.04,7.94-12.81,7.39c-4.77-0.45-8.45-3.99-9.77-9.37c-0.15-0.61-0.5-1.17-0.89-2.06
			c-1.85,7.31,0.49,13.81,6.22,17.99c6.11,4.46,13.6,4.75,19.77,0.81C141.47,330.07,142.74,329.37,143.98,328.64z M217.6,267.85
			c1.01-0.81,2.01-1.62,3.92-3.16c-3.05-0.76-5.01-1.25-6.96-1.73c-0.24-0.53-0.33-1.24-0.73-1.55c-4.01-3.12-8.08-6.18-12.19-9.31
			c-1.42,3.16-4.15,3.35-7.04,2.51c-10.1-2.91-18.99-18.26-17-27.43c2.37,3.35,4.89,7.75,8.3,11.31c1.47,1.54,5,2.28,7.17,1.72
			c3.1-0.8,3.34-4.11,2.7-7.34c2.23,2.41,4.05,4.71,6.22,6.63c4.32,3.83,9.32,6.28,15.28,5.49c3.83-0.5,4.7-2.53,2.76-5.85
			c-1.16-1.99-2.54-3.85-4.31-6.5c2.09,1.02,3.25,1.66,4.47,2.18c6.6,2.84,13.42,4.38,20.57,2.67c1.38-0.33,3.28-1.44,3.58-2.55
			c0.27-1.01-1.06-2.86-2.16-3.72c-3.28-2.56-6.79-4.82-9.61-6.78c7.07-2.54,14.56-4.85,21.73-7.94c5.11-2.2,9.23-6.04,10.96-11.59
			c0.6-1.93,0.09-4.2,0.09-6.32c-1.94,0.15-3.99-0.05-5.8,0.52c-10.99,3.43-21.82,7.43-32.91,10.49
			c-13.52,3.73-27.28,6.15-41.4,3.03c-0.88-0.2-2.25,0.61-3.03,1.35c-5.31,5-6.18,11.94-7.62,18.52c-1.41,6.46-1.77,13.06,0.73,19.4
			c2.82,7.14,8.94,9.31,15.67,5.74c1.21-0.64,2.39-1.35,3.91-2.22c0.15,6.39-2.63,10.61-7.72,13.05
			c-7.16,3.43-14.23,2.44-20.82-1.72c-5.86-3.7-9.62-9.22-12.35-15.44c-9.4-21.45-6.3-41.48,7.17-60.19
			c2.66-3.69,5.78-7.05,8.69-10.57c-15.94-12.75-25.45-29.94-24.13-44.59c2.85,14.34,7.2,27.15,17.82,36.73
			c10.45,9.43,22.29,15.25,37.16,13.71c-6.29-10.41-3.86-22.24,4.93-25.6c-0.23,1.8-0.9,3.67-0.59,5.36
			c0.53,2.9,1.03,6.15,2.67,8.45c5.36,7.53,18.2,6.05,22.07-2.38c0.34-0.74-0.27-2.29-0.93-3.03c-1.69-1.9-3.95-3.34-5.43-5.36
			c-1.3-1.78-2.78-4.23-2.54-6.17c0.63-4.99,1.62-10.09,3.47-14.74c2.5-6.25,5.75-12.24,9.07-18.12c1.33-2.36,3.9-3.86,6.89-2.86
			c2.86,0.96,3.51,3.55,3.61,6.18c0.12,3.15-0.14,6.31,0.01,9.46c0.1,1.98,0.64,3.95,0.98,5.92c0.36-0.06,0.72-0.12,1.07-0.18
			c4.25-15.14,4.83-30.14-2.06-45.86c-4.75,3.83-8.95,7.21-13.28,10.71c-0.91-2.59-1.79-5.45-2.9-8.23
			c-5.11-12.83-13.31-22.83-27.14-26.36c-6.23-1.59-13.49-4.44-19.25,3.84c4.95-13.88,5.64-26.87,0.69-39.89
			c-25.4,4.56-43.87,30.23-40.73,55.51c0.62,5,4.03,9.46,1.44,15.31c-4.35,9.83-7.2,20.31-11.11,30.34
			c-4.35,11.18-9.81,21.97-13.65,33.31c-5.72,16.86-6.96,34.2-2.57,51.71c0.67,2.67,1.88,4.06,4.69,4.58
			c4.2,0.78,8.31,2.06,12.46,3.13c-12.46-1.63-24.79-3.59-37.02-6.1c-4.17-0.85-6.41,0.73-8.55,3.69
			c-6.95,9.64-12.2,20.15-15.94,31.39c-5.73,17.22-8.23,34.74-3.87,52.71c1.55,6.39,2.66,6.83,8.81,4.07
			c0.66-0.3,1.3-0.65,1.95-0.99c9.58-5.01,16.5-12.75,21.94-21.85c1.22-2.04,1.6-4.84,1.6-7.29c0-6.07-1.09-12.2-0.52-18.19
			c0.61-6.43,2.59-12.74,4.01-19.09c0.05-0.23,0.49-0.38,0.83-0.63c0,1.1,0,2.04,0,3.53c8.55,1.22,17.05,2.57,25.58,3.6
			c4.53,0.54,9.52,2.56,13.22-3.48c-1.22,6.71-6.2,5.18-10.02,5.9c9.64,12.34,33.36,27.4,46.02,29.48
			c0.78-4.37,1.56-8.74,2.34-13.12c0.4,0.02,0.81,0.05,1.21,0.07c-3.06,11.67-1.11,22.14,7.51,30.72
			c8.54,8.49,19.21,10.41,30.82,9.42c-3.21,0.82-6.45,1.01-9.62,1.56c-1.35,0.23-3.14,0.9-3.75,1.94c-3.86,6.6-7.77,13.2-11.03,20.1
			c-5.38,11.4-6.97,23.46-4.56,35.91c1.42,7.33,3.94,8.87,11.22,7.38c8.26-1.7,14.44-6.7,20.13-12.48c4.49-4.57,8.85-9.24,5.82-16.5
			c-0.09-0.21-0.03-0.48-0.06-0.72c-1.45-11.29,1.25-21.98,4.83-32.5c2.5-7.35,5.32-14.59,7.8-21.94c0.44-1.3,0.45-3.33-0.29-4.32
			c-1.72-2.34-9.61-3.06-12.04-1.5c0.01-0.11-0.03-0.24,0.02-0.32c0.53-0.81,1.1-1.6,1.6-2.42c5.96-9.88,9.03-20.39,6.84-32
			c-0.26-1.36-0.68-3.27-1.65-3.82c-4.06-2.29-8.35-4.16-13.25-6.51c2.73,3.99,5.34,7.18,7.18,10.77c1,1.94,1.67,5.25,0.67,6.68
			c-1.02,1.47-4.25,1.42-6.53,1.95c-0.39,0.09-0.9-0.24-1.32-0.44c-2.47-1.14-4.05-0.56-4.3,2.44c-0.41-0.32-0.58-0.57-0.79-0.59
			C218.82,267.86,218.21,267.87,217.6,267.85z M107.94,156.13c1.63-8.92,3.1-17.02,4.59-25.11c0.63-3.44,1.88-6.87,1.88-10.31
			c0-21.4-0.28-42.81-0.46-64.21c-0.01-0.97,0.05-1.95-0.06-2.92c-0.32-2.77-2.01-3.74-4.23-2.13c-1.73,1.25-3.35,2.9-4.49,4.7
			c-9.6,15.13-14.02,31.66-12.62,49.55c0.41,5.19,1.71,10.32,2.7,16.1c-5.16-10.38-10.07-20.25-14.95-30.12
			c-1.45-2.93-2.75-5.95-4.33-8.81c-0.52-0.94-1.92-2.25-2.58-2.08c-1.07,0.27-2.29,1.47-2.69,2.56c-0.75,2.01-1.29,4.22-1.34,6.35
			c-0.46,19.75,6.2,37.12,17.99,52.69c1.91,2.52,4.05,4.88,6.09,7.31c-6.65-6.11-12.18-13.54-22.63-16.58
			c0.99,3.81,1.45,6.89,2.59,9.69c4.7,11.55,12.81,20.52,22.12,28.54c0.64,0.56,1.31,1.09,1.92,1.68c0.59,0.57,1.13,1.19,1.69,1.79
			c-3.48-3.03-7.17-3.94-11.57-2.66c-1.97,0.57-3.5,1.1-3.03,3.57c0.42,2.22,0.84,4.31,3.98,3.86c6.74-0.95,11.44,1.74,14.32,7.98
			c1.16,2.52,2.88,4.78,4.37,7.14c1.02,1.61,2.08,3.2,2.87,4.43c-0.68-9.53-1.64-19.2-1.96-28.88c-0.21-6.32,0.27-12.59-3.48-18.2
			c-0.78-1.17-1.07-2.7-1.42-4.11c-2.12-8.45-3.48-16.95-0.28-25.42c0.5-1.32,1.84-3.08,2.97-3.21c1.18-0.14,2.56,1.43,3.86,2.25
			c-3.79-1.85-4.97-1.69-5.84,1.87C101.17,134.6,103.17,145.22,107.94,156.13z M234.88,288.63c1.33,0.45,2.43,0.87,3.56,1.19
			c8.25,2.33,8.77,3.63,5.69,11.51c-3.09,7.9-6.15,15.83-8.67,23.92c-3.18,10.18-4.48,20.59-2.11,31.26
			c0.47,2.11,0.32,5.23-0.94,6.69c-4.8,5.57-9.82,11.07-15.47,15.73c-2.97,2.46-4.93,5.01-6.28,8.82
			c9.11-2.1,17.32-5.63,24.57-10.98c25.4-18.72,36.82-44.41,36.53-75.53c-0.13-14.35-4.51-27.47-13.64-38.77
			c-1.19-1.48-2.57-3.22-4.23-3.82c-4.04-1.48-8.3-2.36-12.75-3.55C243.68,267.14,240.61,278.03,234.88,288.63z M113.94,226.52
			c-0.61-2.8-1.48-5.15-1.58-7.53c-0.47-11.55-3.49-22.11-11.15-31.05c-0.08-0.09-0.16-0.19-0.21-0.3c-2.37-5.7-7.13-6.93-12.57-6.4
			c-21.07,2.07-40.52,8.85-57.83,21.11c-3.99,2.83-7.21,6.81-10.57,10.45c-2.16,2.34-1.61,4.44,1.11,6.29
			c7.42,5.04,15.31,8.83,24.23,10.44c6.28,1.14,12.08,1.06,16.77-4.11c1.05-1.16,2.34-2.14,3.62-3.06
			c6.51-4.65,13.04-9.27,19.59-13.87c2.21-1.55,4.01-1.27,5.95,0.86c4.01,4.4,8.55,8.34,12.43,12.84
			C106.48,225.39,109.73,226.37,113.94,226.52z M193.08,321c-0.61,1.43-1.13,2.64-1.65,3.85c-4.55,10.58-9.29,21.08-13.61,31.75
			c-6.41,15.83-4.99,31.32,2.67,46.42c1.05,2.06,2.19,3.42,4.76,2.7c11.94-3.34,19.19-11.86,25.52-22.74
			c-2.84,0.61-4.81,1.11-6.8,1.46c-7.13,1.28-10.25-0.62-12.05-7.56c-2.11-8.14-1.9-16.36-0.22-24.55
			c2.44-11.88,8.41-22.15,14.84-32.2c0.74-1.16,1.44-2.36,2.2-3.63c-14.18-2.86-23.43-10.47-26.98-24.37
			c-0.19-0.76-0.57-1.84-1.14-2.07c-3.65-1.46-7.38-2.72-11.11-4.06C166.77,296.5,169.01,311.03,193.08,321z M236.34,225.07
			c-0.06-0.44-0.09-0.26-0.02-0.21c1.7,1.16,3.48,2.22,5.09,3.49c1.7,1.34,3.18,2.96,4.87,4.32c1.12,0.9,2.38,2.09,3.69,2.25
			c14.46,1.74,28.91,1.5,43.18-1.44c9.4-1.94,18.83-4.3,26.58-10.33c3.03-2.36,5.41-5.78,7.46-9.1c1.52-2.45-0.16-4.25-2.87-4.41
			c-2.41-0.15-4.86,0.03-7.27,0.28c-12.93,1.35-25.86,2.63-38.76,4.22c-7.46,0.92-14.99,1.86-22.24,3.73
			C249.34,219.6,242.97,222.59,236.34,225.07z M259.8,216.29c4.84-1.05,9.77-1.81,14.51-3.22c15.04-4.47,29.19-10.75,40.65-21.86
			c4.24-4.11,7.59-8.88,8.91-14.78c1.25-5.6-1.5-8.42-6.95-6.79c-4.16,1.25-8.29,2.86-12.12,4.9
			c-12.85,6.85-25.57,13.95-38.32,20.98c-0.18,0.1-0.26,0.39-0.38,0.6C270.3,200.95,268.43,206.65,259.8,216.29z M288.78,250.82
			c-1.66-0.93-2.74-1.77-3.96-2.17c-12.06-4.05-24.15-8.04-36.24-11.98c-0.71-0.23-1.89-0.23-2.36,0.19
			c-5.07,4.58-11.01,3.71-16.92,2.74c-2.61-0.43-5.16-1.25-8.37-2.04c1.4,3,1.99,5.9,3.74,7.61c2,1.95,4.97,2.96,7.62,4.14
			c13.46,5.98,27.27,10.31,42.28,8.39C279.8,257.03,284.75,255.59,288.78,250.82z M111.2,191.6c2.02-13.52,6.18-26.4,12.08-38.72
			c1.54-3.21,2.44-6.03,0.28-9.37c-1-1.56-1.41-3.65-1.61-5.55c-0.84-7.9-1.5-15.82-2.23-23.89
			C110.75,139.22,107.4,164.96,111.2,191.6z M197.62,237.11c-2.44,2.67-2.01,5.08,0.28,7.37c4.03,4.02,7.8,8.35,12.15,11.97
			c4.97,4.13,10.72,7.13,17.25,8.15c3.58,0.56,4.96-1.03,3.54-4.33c-1.13-2.64-2.79-5.08-4.34-7.53c-2.59-4.1-5.03-7.11-11.25-6.1
			C207.83,247.84,202.42,242.58,197.62,237.11z M194.46,241.79c-6.39,2.3-10.03-2.07-14.06-5.63c2.38,7.58,6.86,13.3,14,16.74
			c0.84,0.41,1.95,0.75,2.79,0.55c1.04-0.25,2.28-0.9,2.8-1.75c0.37-0.62-0.06-2.02-0.55-2.8
			C197.96,246.55,196.27,244.33,194.46,241.79z M237.5,125.95c-3.76,2.63-9.6,11.55-10.13,15c-0.07,0.47-0.18,1.03-0.01,1.43
			c0.49,1.18,0.86,2.88,1.75,3.27c0.85,0.37,2.61-0.36,3.44-1.15c4.2-4.05,6.24-9.12,6.14-14.96
			C238.67,128.46,237.99,127.38,237.5,125.95z M203.67,179.13c0.71-0.78,1.63-1.8,1.86-2.06c-1.07-4.59-1.94-8.35-2.83-12.2
			c-0.75,1.14-1.64,2.51-2.54,3.88c0.3-0.01,0.6-0.02,0.89-0.03C201.9,172.12,202.76,175.52,203.67,179.13z M199.05,181.59
			c3.31-3.67,3.19-6.75-0.43-9.79C198.76,175.07,198.9,178.33,199.05,181.59z M235.59,149.35c-3.31,1.34-4.02,3.36-3.18,6.67
			C235.32,154.58,236.22,152.65,235.59,149.35z"/>
		<path class="st0" d="M217.6,267.85c0.61,0.02,1.22,0,1.81,0.08c0.2,0.03,0.38,0.27,0.79,0.59c0.25-3,1.84-3.58,4.3-2.44
			c0.43,0.2,0.94,0.53,1.32,0.44c2.28-0.53,5.51-0.49,6.53-1.95c1-1.43,0.32-4.74-0.67-6.68c-1.84-3.58-4.45-6.77-7.18-10.77
			c4.9,2.35,9.19,4.22,13.25,6.51c0.97,0.55,1.39,2.46,1.65,3.82c2.19,11.61-0.88,22.12-6.84,32c-0.5,0.83-1.08,1.61-1.6,2.42
			c-0.05,0.08-0.02,0.21-0.02,0.32c2.44-1.56,10.32-0.83,12.04,1.5c0.73,1,0.73,3.02,0.29,4.32c-2.48,7.35-5.3,14.59-7.8,21.94
			c-3.58,10.53-6.28,21.22-4.83,32.5c0.03,0.24-0.03,0.51,0.06,0.72c3.03,7.25-1.33,11.93-5.82,16.5
			c-5.69,5.78-11.87,10.78-20.13,12.48c-7.28,1.5-9.8-0.05-11.22-7.38c-2.41-12.45-0.82-24.51,4.56-35.91
			c3.26-6.9,7.17-13.5,11.03-20.1c0.61-1.04,2.4-1.71,3.75-1.94c3.17-0.55,6.41-0.74,9.62-1.56c-11.61,0.99-22.28-0.93-30.82-9.42
			c-8.62-8.58-10.57-19.05-7.51-30.72c-0.4-0.02-0.81-0.05-1.21-0.07c-0.78,4.37-1.56,8.75-2.34,13.12
			c-12.66-2.07-36.38-17.14-46.02-29.48c3.83-0.72,8.81,0.81,10.02-5.9c-3.7,6.04-8.69,4.03-13.22,3.48
			c-8.54-1.03-17.03-2.38-25.58-3.6c0-1.49,0-2.43,0-3.53c-0.35,0.25-0.78,0.4-0.83,0.63c-1.42,6.35-3.41,12.66-4.01,19.09
			c-0.56,5.99,0.53,12.12,0.52,18.19c0,2.45-0.38,5.25-1.6,7.29c-5.43,9.1-12.36,16.84-21.94,21.85c-0.65,0.34-1.28,0.69-1.95,0.99
			c-6.14,2.75-7.26,2.31-8.81-4.07c-4.35-17.97-1.86-35.49,3.87-52.71c3.74-11.24,8.99-21.75,15.94-31.39
			c2.14-2.96,4.38-4.55,8.55-3.69c12.23,2.51,24.56,4.47,37.02,6.1c-4.15-1.07-8.26-2.34-12.46-3.13c-2.81-0.52-4.02-1.91-4.69-4.58
			c-4.39-17.52-3.14-34.86,2.57-51.71c3.84-11.34,9.3-22.13,13.65-33.31c3.91-10.04,6.76-20.52,11.11-30.34
			c2.59-5.85-0.81-10.31-1.44-15.31c-3.14-25.28,15.32-50.95,40.73-55.51c4.95,13.01,4.26,26.01-0.69,39.89
			c5.76-8.28,13.02-5.43,19.25-3.84c13.82,3.53,22.03,13.52,27.14,26.36c1.11,2.78,1.99,5.64,2.9,8.23
			c4.33-3.49,8.53-6.88,13.28-10.71c6.89,15.72,6.31,30.72,2.06,45.86c-0.36,0.06-0.72,0.12-1.07,0.18
			c-0.34-1.97-0.89-3.93-0.98-5.92c-0.15-3.15,0.11-6.31-0.01-9.46c-0.1-2.63-0.74-5.22-3.61-6.18c-2.99-1-5.56,0.5-6.89,2.86
			c-3.32,5.88-6.57,11.86-9.07,18.12c-1.86,4.65-2.85,9.75-3.47,14.74c-0.24,1.95,1.24,4.39,2.54,6.17
			c1.48,2.03,3.74,3.47,5.43,5.36c0.66,0.74,1.27,2.29,0.93,3.03c-3.87,8.43-16.72,9.91-22.07,2.38c-1.64-2.3-2.14-5.55-2.67-8.45
			c-0.31-1.69,0.36-3.56,0.59-5.36c-8.79,3.36-11.21,15.19-4.93,25.6c-14.87,1.54-26.71-4.28-37.16-13.71
			c-10.62-9.58-14.96-22.39-17.82-36.73c-1.31,14.65,8.19,31.84,24.13,44.59c-2.91,3.51-6.03,6.87-8.69,10.57
			c-13.46,18.71-16.56,38.74-7.17,60.19c2.73,6.22,6.49,11.74,12.35,15.44c6.59,4.16,13.66,5.15,20.82,1.72
			c5.09-2.44,7.87-6.66,7.72-13.05c-1.52,0.87-2.7,1.57-3.91,2.22c-6.73,3.57-12.84,1.4-15.67-5.74c-2.5-6.34-2.15-12.94-0.73-19.4
			c1.44-6.58,2.31-13.53,7.62-18.52c0.78-0.73,2.15-1.54,3.03-1.35c14.12,3.12,27.87,0.7,41.4-3.03
			c11.09-3.06,21.92-7.06,32.91-10.49c1.81-0.57,3.86-0.36,5.8-0.52c0,2.12,0.51,4.39-0.09,6.32c-1.73,5.55-5.85,9.4-10.96,11.59
			c-7.17,3.08-14.66,5.4-21.73,7.94c2.81,1.96,6.33,4.22,9.61,6.78c1.1,0.86,2.43,2.72,2.16,3.72c-0.29,1.11-2.19,2.22-3.58,2.55
			c-7.15,1.71-13.97,0.17-20.57-2.67c-1.21-0.52-2.38-1.16-4.47-2.18c1.77,2.64,3.15,4.51,4.31,6.5c1.94,3.33,1.06,5.35-2.76,5.85
			c-5.96,0.78-10.96-1.66-15.28-5.49c-2.16-1.92-3.98-4.22-6.22-6.63c0.64,3.23,0.4,6.54-2.7,7.34c-2.17,0.56-5.7-0.18-7.17-1.72
			c-3.4-3.56-5.92-7.96-8.3-11.31c-1.99,9.17,6.9,24.52,17,27.43c2.89,0.83,5.62,0.64,7.04-2.51c4.12,3.13,8.18,6.18,12.19,9.31
			c0.4,0.31,0.49,1.02,0.73,1.55c-0.35,1.45-0.7,2.89-1.05,4.34C214.87,267.49,216.24,267.67,217.6,267.85z M165.59,143.6
			c0.97,1.73,1.62,3.02,2.38,4.24c2.82,4.55,6.37,8.49,11.65,9.95c10.05,2.77,13.11,2.18,17.78-5.28c0.58-0.92,1.32-1.74,1.92-2.66
			c6.75-10.4,12.36-21.27,12.32-34.05c-0.02-9.03-6.98-14.92-15.78-12.98c-5.72,1.27-11.3,3.56-16.64,6.05
			c-3.4,1.59-6.24,1.5-9.27-0.22c-1.31-0.74-2.51-1.67-3.76-2.52c-0.19,0.22-0.39,0.43-0.58,0.65c2.04,1.94,4.08,3.88,6.26,5.95
			c-5.4,1.64-9.84-0.01-13.86-3.55c-0.22,0.37-0.43,0.74-0.65,1.12c2.23,1.81,4.47,3.63,6.7,5.44c-0.11,0.33-0.23,0.66-0.34,0.99
			c-4.11-0.82-8.23-1.64-12.34-2.47c1.96,1.42,4.06,2.9,6.39,3.57c2.35,0.68,4.93,0.55,7.32,0.76c-0.8,3.79-1.58,7.52-2.21,10.51
			c-3.6,0.44-6.71,0.82-9.82,1.2c0.05,0.35,0.1,0.69,0.15,1.04c9.93-0.05,9.93-0.05,9.84,3.78c-3.84,0.53-7.49,1.42-9.73,5.67
			c9.29-4.8,10.44-4.69,11.35,0.45c-1.97,1.91-3.77,3.65-5.57,5.4c0.2,0.18,0.41,0.36,0.61,0.55
			C161.55,146.05,163.4,144.93,165.59,143.6z M181.08,51.83c-1.15,5.16-2.11,12.24-4.36,18.88c-2.31,6.81-6.86,12.27-14,15.6
			c-0.28-11.87-2.1-23.37,5.05-33.6c-5.33,5.24-6.93,11.84-7.08,18.85c-0.17,7.85-0.04,15.7-0.04,22.98c0.07-0.17,0.63-1,0.71-1.88
			c0.3-3.05,2.02-4.64,4.63-6.19C177.09,79.87,183.78,62.75,181.08,51.83z"/>
		<path class="st0" d="M283.62,260.76c-0.57-0.73-1.15-1.47-1.81-2.3c2.04-1.18,4.03-2.09,5.75-3.36c3.95-2.92,3.86-5.6-0.59-7.55
			c-5.2-2.29-10.62-4.11-16.02-5.92c-4.31-1.45-8.72-2.57-12.99-4.27c6.17,0,12.36,0.22,18.52-0.07c5.2-0.24,10.37-1.19,15.58-1.57
			c1.65-0.12,3.62,0.15,5,0.98c7.67,4.61,13.26,11.41,18.26,18.62c17.78,25.65,27.44,53.95,27.04,85.38
			c-0.6,47.68-35.04,88.86-81.81,98.11c-20.92,4.14-41.89,4.02-62.71,0.19c-21.94-4.04-43.67-9.25-65.54-13.69
			c-18.78-3.81-37.73-5.81-56.88-3.31c-8.62,1.13-16.98,3.32-23.98,8.81c-2.25,1.76-4.3,4.01-5.81,6.43
			c-3.07,4.94-2.26,9.79,1.8,13.94c8.88,9.08,26.28,7.69,33.54-2.72c2.09-2.99,3.13-6.25,2.43-9.98c-0.18-0.96,0.16-2.02,0.26-3.04
			c0-0.01,0.01-0.05,0.01-0.06c0.4,0.55,0.67,1.28,1.2,1.64c12.34,8.46,7.99,25.76-1.63,32.31c-5.79,3.95-12.25,5.09-19.1,4.16
			c-22.35-3.01-30.06-20.11-32.06-34.73c-0.95-6.94,0.32-13.46,3.22-19.74c4.76-6.11,10.48-10.93,17.95-13.41
			c11.12-4.38,22.67-4.39,34.08-2.17c18.06,3.51,36.01,7.62,53.96,11.71c29.98,6.83,60.15,9.77,90.59,3.79
			c8.08-1.59,15.86-4.76,23.77-7.2c0.98-0.48,1.92-1.05,2.94-1.43c11.5-4.36,21.53-11.18,30.06-19.83
			c9.61-9.75,16.79-21.26,20.87-34.5c1.35-6.21,3.25-12.35,3.94-18.63c1.38-12.62-0.05-25.03-4.67-36.97
			c-2.67-6.06-4.59-12.62-8.19-18.07C295.6,274.68,289.34,267.9,283.62,260.76z"/>
		<path class="st0" d="M245.86,66.07c6.63-3.74,13.54-6.58,21.35-6.17c8.65,0.45,17.03,2.42,23.74,8
			c7.44,6.18,14.85,12.63,21.11,19.96c13.97,16.36,14.04,34.8,1.1,51.94c-11.6,15.36-27.01,25.92-44.53,33.07
			c-16.14,6.58-32.83,11.78-49.24,17.69c-11.33,4.08-22.62,8.42-31.94,16.29c-14.06,11.88-21.67,27.22-22.28,45.65
			c-0.11,3.26,2.1,6.59,3.24,9.88c0.31,0.59,0.61,1.18,0.92,1.77c0.17,0.66,0.34,1.32,0.51,1.98c-0.2,0.25-0.4,0.5-0.6,0.76
			c-2.88-2.54-6.5-4.6-8.51-7.7c-8.51-13.13-13.62-27.03-6.99-42.74c0.51-1.21,0.84-2.49,1.25-3.71c2.49-3.68,4.69-7.63,7.55-11.03
			c5.16-6.13,11.3-11.14,18.84-14.21c1.4-0.09,2.8-0.28,4.2-0.25c4.94,0.1,9.87,0.28,14.81,0.41c2.01,0.05,2.72-0.79,3.11-2.96
			c0.44-2.42,2.04-4.64,3.3-7.29c5.25,3.64,10.16,6.06,15.54,3.22c4.61-2.43,9.55-4.96,10.17-11.21c0.87-0.51,1.78-1.03,2.69-1.56
			c4.71-1.58,9.44-3.1,14.12-4.75c5.24-1.85,10.43-3.82,15.64-5.74c2.53-1.14,5.13-2.13,7.55-3.46c2-1.1,3.77-2.61,5.65-3.93
			c11.22-5.43,20.53-12.84,25.51-24.71c0.27-4.58,1.1-9.22,0.61-13.72c-0.33-2.99-2.55-5.77-3.92-8.65
			c-2.23-2.64-4.46-5.29-6.69-7.93c-0.21-0.43-0.42-0.86-0.64-1.3c9.36,1.07,18.5,10.68,19.49,20.29c0.77,7.4-1.03,14.26-4.48,20.67
			c-2.57,4.79-5.61,9.33-8.43,13.96c-0.04-0.02,0.24,0.17,0.28,0.13c7.8-8.52,13.5-18.18,14.54-29.87
			c0.94-10.6-3.87-18.62-12.88-23.93c-13.89-8.19-28.74-8.76-43.99-4.72c-9.94,2.63-18.55,7.67-25.95,15.08
			c-3.04-7.07-6.09-13.87-1.36-21.17C234.18,77.01,238.76,70.44,245.86,66.07z"/>
		<path class="st0" d="M283.62,260.76c5.72,7.14,11.98,13.92,16.99,21.52c3.59,5.46,5.52,12.01,8.19,18.07
			c0.16,1.06,0.21,2.16,0.49,3.19c3.04,11.34,4.87,22.8,3.24,34.56c-0.83,5.98-1.99,11.91-3,17.86
			c-4.08,13.24-11.25,24.75-20.87,34.5c-8.53,8.65-18.55,15.46-30.06,19.83c-1.01,0.38-1.96,0.95-2.94,1.43
			c-0.71,0.11-1.46,0.1-2.11,0.35c-29.05,10.69-58.95,11.39-88.99,6.44c-19.21-3.16-38.13-8.04-57.17-12.21
			c-13.41-2.93-26.84-6-40.66-4.61c-4.57,0.46-8.98,2.56-13.47,3.91c-7.47,2.48-13.19,7.3-17.95,13.41
			c0.53-1.67,0.73-3.55,1.65-4.97c9.03-13.96,21.65-21.96,38.51-22.72c17.08-0.78,33.5,3.16,49.96,6.9
			c18.91,4.29,37.78,8.87,56.84,12.32c17.48,3.16,35.09,2.76,52.32-2.42c1.22-0.37,2.36-1.01,3.54-1.53
			c9.15-3.17,17.51-7.84,25.39-13.42c3.19-3.43,6.37-6.86,9.56-10.29c3.15-4.84,6.29-9.67,9.44-14.51c1.22-3,2.69-5.93,3.62-9.02
			c5.03-16.61,4.94-33.51,1.73-50.35c-1.64-8.6-4.5-16.96-6.82-25.43c-3.45-6.56-6.9-13.12-10.34-19.68
			c-0.63-0.99-1.26-1.97-2.22-3.48C273.83,260.75,278.7,257.4,283.62,260.76z"/>
		<path class="st0" d="M282.51,368.37c-3.15,4.84-6.29,9.67-9.44,14.51c-3.19,3.43-6.37,6.86-9.56,10.29
			c-7.88,5.58-16.24,10.25-25.39,13.42c-6.28,1.28-12.51,2.81-18.84,3.78c-13.72,2.11-27.5,1.46-40.99-1.27
			c-21.62-4.37-43.07-9.56-64.59-14.41c-13.31-3-26.73-5.01-40.56-4.7c2.1-0.47,4.19-1.03,6.3-1.4c2.27-0.39,4.58-0.89,6.86-0.86
			c15.18,0.21,30.36,0.27,45.52,0.93c12.5,0.55,24.96,1.94,37.45,2.76c3.27,0.21,5.31,0.91,6.09,4.57c0.64,3.03,2.27,5.86,3.55,8.74
			c1.28,2.89,3.49,3.69,6.57,3c9.2-2.07,15.63-7.96,21.32-15c0.92-1.14,2.27-2.34,3.63-2.67c29.01-7.07,47.11-26.06,57.32-53.16
			c7.37-19.56,8.92-39.6,0.74-59.38c-2.65-6.4-6.84-12.17-10.16-17.94c4.11,0.06,8.87,0.22,12.34,4.29
			c3.45,6.56,6.9,13.12,10.34,19.68c1.11,4.19,2.28,8.37,3.33,12.58c4.67,18.8,6.81,37.75,2.5,56.92
			C285.72,358.24,283.98,363.27,282.51,368.37z"/>
		<path class="st0" d="M107.94,156.13c-4.77-10.91-6.77-21.53-4.04-32.69c0.87-3.56,2.05-3.72,5.84-1.87
			c-1.29-0.82-2.68-2.39-3.86-2.25c-1.12,0.13-2.47,1.89-2.97,3.21c-3.2,8.47-1.84,16.97,0.28,25.42c0.35,1.41,0.64,2.94,1.42,4.11
			c3.74,5.62,3.27,11.89,3.48,18.2c0.32,9.69,1.28,19.35,1.96,28.88c-0.8-1.23-1.86-2.82-2.87-4.43c-1.49-2.36-3.21-4.62-4.37-7.14
			c-2.87-6.23-7.58-8.93-14.32-7.98c-3.15,0.44-3.56-1.64-3.98-3.86c-0.47-2.47,1.06-2.99,3.03-3.57c4.4-1.28,8.09-0.37,11.57,2.66
			c-0.56-0.6-1.1-1.22-1.69-1.79c-0.61-0.59-1.28-1.12-1.92-1.68c-9.3-8.02-17.41-16.99-22.12-28.54c-1.14-2.8-1.59-5.87-2.59-9.69
			c10.45,3.04,15.99,10.47,22.63,16.58c-2.04-2.43-4.18-4.78-6.09-7.31c-11.79-15.58-18.45-32.95-17.99-52.69
			c0.05-2.14,0.59-4.34,1.34-6.35c0.41-1.09,1.62-2.29,2.69-2.56c0.67-0.17,2.06,1.14,2.58,2.08c1.58,2.86,2.88,5.87,4.33,8.81
			c4.89,9.87,9.8,19.74,14.95,30.12c-1-5.78-2.3-10.91-2.7-16.1c-1.4-17.9,3.03-34.43,12.62-49.55c1.14-1.8,2.76-3.45,4.49-4.7
			c2.22-1.61,3.91-0.64,4.23,2.13c0.11,0.96,0.06,1.94,0.06,2.92c0.19,21.4,0.46,42.81,0.46,64.21c0,3.44-1.25,6.87-1.88,10.31
			C111.04,139.11,109.57,147.21,107.94,156.13z"/>
		<path class="st0" d="M234.88,288.63c5.73-10.6,8.8-21.49,6.27-33.53c4.45,1.2,8.71,2.08,12.75,3.55c1.66,0.61,3.04,2.35,4.23,3.82
			c9.13,11.3,13.51,24.41,13.64,38.77c0.29,31.12-11.13,56.8-36.53,75.53c-7.26,5.35-15.47,8.88-24.57,10.98
			c1.36-3.82,3.31-6.37,6.28-8.82c5.65-4.67,10.67-10.17,15.47-15.73c1.26-1.46,1.41-4.58,0.94-6.69
			c-2.37-10.67-1.07-21.07,2.11-31.26c2.53-8.09,5.58-16.02,8.67-23.92c3.09-7.87,2.56-9.18-5.69-11.51
			C237.31,289.49,236.21,289.07,234.88,288.63z"/>
		<path class="st0" d="M303.69,125.27c-4.98,11.87-14.29,19.28-25.51,24.71c-2.22,1.16-4.47,2.28-6.66,3.5
			c-2.21,1.24-4.36,2.59-6.54,3.89c-5.21,1.92-10.41,3.89-15.64,5.74c-4.68,1.65-9.41,3.17-14.12,4.75
			c-0.47-0.09-0.94-0.17-1.59-0.29c2.21-2.81,4.35-5.53,6.56-8.35c1.48,1.28,2.94,2.54,4.39,3.8c-1.12-2.78-3.5-4.94-1.68-8.49
			c1.6,1.18,3.06,2.26,4.53,3.34c-2.5-3.25-4.69-6.27-0.79-10c0.69,0.12,1.61,0.27,2.62,0.44c-0.05-0.38-0.02-0.69-0.1-0.73
			c-1.73-0.79-2.1-1.92-1.49-3.8c5.14-15.67,5.08-31.21-1.8-47.14c15.88-6.1,31.55-10.33,47.82-1.66c2.23,2.64,4.46,5.29,6.69,7.93
			c1.16,3.27,2.89,6.46,3.34,9.83C304.26,116.84,303.74,121.08,303.69,125.27z"/>
		<path class="st0" d="M113.94,226.52c-4.22-0.16-7.46-1.14-10.2-4.31c-3.88-4.51-8.42-8.44-12.43-12.84
			c-1.94-2.13-3.75-2.41-5.95-0.86c-6.55,4.59-13.08,9.21-19.59,13.87c-1.28,0.92-2.57,1.9-3.62,3.06
			c-4.69,5.17-10.49,5.25-16.77,4.11c-8.91-1.61-16.81-5.4-24.23-10.44c-2.71-1.84-3.27-3.95-1.11-6.29
			c3.36-3.64,6.58-7.62,10.57-10.45c17.31-12.26,36.75-19.04,57.83-21.11c5.44-0.54,10.2,0.7,12.57,6.4
			c0.05,0.11,0.13,0.21,0.21,0.3c7.66,8.94,10.68,19.51,11.15,31.05C112.46,221.37,113.33,223.72,113.94,226.52z"/>
		<path class="st0" d="M193.08,321c-24.07-9.97-26.31-24.5-23.57-34.99c3.73,1.34,7.46,2.6,11.11,4.06
			c0.57,0.23,0.94,1.31,1.14,2.07c3.54,13.89,12.8,21.5,26.98,24.37c-0.77,1.27-1.46,2.46-2.2,3.63
			c-6.43,10.05-12.41,20.31-14.84,32.2c-1.68,8.19-1.89,16.41,0.22,24.55c1.8,6.95,4.93,8.84,12.05,7.56c2-0.36,3.97-0.85,6.8-1.46
			c-6.33,10.88-13.58,19.4-25.52,22.74c-2.57,0.72-3.71-0.64-4.76-2.7c-7.66-15.1-9.08-30.59-2.67-46.42
			c4.32-10.67,9.06-21.17,13.61-31.75C191.95,323.64,192.47,322.43,193.08,321z"/>
		<path class="st0" d="M236.34,225.07c6.63-2.48,13-5.47,19.7-7.2c7.25-1.87,14.78-2.81,22.24-3.73c12.9-1.59,25.84-2.87,38.76-4.22
			c2.41-0.25,4.86-0.43,7.27-0.28c2.71,0.16,4.39,1.96,2.87,4.41c-2.06,3.32-4.43,6.75-7.46,9.1c-7.75,6.02-17.18,8.39-26.58,10.33
			c-14.28,2.94-28.73,3.18-43.18,1.44c-1.31-0.16-2.56-1.34-3.69-2.25c-1.69-1.36-3.17-2.98-4.87-4.32
			c-1.61-1.27-3.39-2.33-5.09-3.49C236.25,224.82,236.27,224.63,236.34,225.07z"/>
		<path class="st0" d="M259.8,216.29c8.63-9.64,10.5-15.33,6.28-20.18c0.12-0.2,0.2-0.5,0.39-0.6
			c12.76-7.02,25.47-14.13,38.32-20.98c3.83-2.04,7.96-3.65,12.12-4.9c5.45-1.63,8.2,1.19,6.95,6.79
			c-1.31,5.9-4.67,10.67-8.91,14.78c-11.47,11.12-25.61,17.39-40.65,21.86C269.58,214.48,264.64,215.23,259.8,216.29z"/>
		<path class="st0" d="M143.98,328.64c-1.24,0.73-2.51,1.43-3.72,2.21c-6.17,3.95-13.66,3.65-19.77-0.81
			c-5.73-4.18-8.07-10.68-6.22-17.99c0.39,0.89,0.74,1.45,0.89,2.06c1.33,5.38,5,8.92,9.77,9.37c5.77,0.54,11.36-1.99,12.81-7.39
			c1.54-5.72,2.13-11.91,1.93-17.85c-0.33-9.42-3.57-18.24-7.6-26.74c-2.07-4.36-3.92-8.82-5.93-13.39c3.1-0.8,5.18-0.09,6.96,2.22
			c2.98,3.86,6.18,7.55,9.29,11.31c0,0-0.08-0.13-0.08-0.13c0.15,0.83,0.19,1.69,0.47,2.47c5.08,14.24,9.57,28.58,6.87,44.03
			C147.75,321.55,145.87,325.09,143.98,328.64z"/>
		<path class="st0" d="M288.78,250.82c-4.04,4.77-8.98,6.22-14.19,6.88c-15.01,1.92-28.83-2.41-42.28-8.39
			c-2.66-1.18-5.63-2.2-7.62-4.14c-1.76-1.71-2.35-4.61-3.74-7.61c3.2,0.8,5.75,1.61,8.37,2.04c5.91,0.97,11.84,1.85,16.92-2.74
			c0.47-0.43,1.65-0.43,2.36-0.19c12.1,3.94,24.18,7.93,36.24,11.98C286.05,249.05,287.13,249.89,288.78,250.82z"/>
		<path class="st0" d="M245.86,66.07c-7.1,4.38-11.67,10.94-15.6,18.04c-1.28,2.36-2.57,4.74-3.86,7.13
			c-6-4.93-4.64-11.27-3.53-17.56c0.25-1.42,0.55-2.83,0.83-4.25c2.6-6.14,4.99-12.42,11.01-16.23c7.05-5.75,14.6-6.8,22.97-2.9
			c7.43,3.46,15.04,6.53,22.25,10.29c-5.17-0.49-10.34-1.29-15.52-1.38c-6.2-0.11-11.88,2.11-17.16,5.29
			C246.67,64.83,246.31,65.53,245.86,66.07z"/>
		<path class="st0" d="M234.7,53.19c-6.02,3.82-8.41,10.1-11.01,16.23c-1.11,4.52-2.23,9.03-3.38,13.7
			c-1.34-1.17-3.07-2.73-4.86-4.22c-1.03-0.85-2.12-1.63-3.23-2.37c-6.39-4.26-6.5-4.28-4.49-11.83c0.96-3.61,2.43-7.09,3.67-10.62
			c1.91-2.23,3.83-4.46,5.75-6.7c3.11-2.78,6.71-3.57,10.81-2.94c4.56,0.7,9.16,1.1,13.74,1.69c0.83,0.11,1.62,0.47,1.86,0.55
			C240.74,48.75,237.72,50.97,234.7,53.19z"/>
		<path class="st0" d="M111.2,191.6c-3.8-26.64-0.45-52.38,8.52-77.53c0.74,8.07,1.4,15.99,2.23,23.89c0.2,1.9,0.61,3.99,1.61,5.55
			c2.15,3.34,1.25,6.16-0.28,9.37C117.38,165.2,113.22,178.09,111.2,191.6z"/>
		<path class="st0" d="M129.03,131.68c-4.01-10.42-4.14-21.08-1.86-31.86c0.79-3.74,7.09-12.68,10.78-15.73
			c1.38,6.06,2.84,12.36,4.22,18.68c0.15,0.66-0.05,1.46-0.27,2.13c-3.16,9.52-6.34,19.04-9.59,28.53c-0.29,0.83-1.12,1.48-1.7,2.22
			C130.09,134.32,129.56,133,129.03,131.68z"/>
		<path class="st0" d="M204.5,50.28c-4.56,6.38-4.12,13.6-3.46,20.83c-5.2,0-10.35,0-15.18,0c0.68-7.45,1.39-15.17,2.19-23.87
			c5.51-0.79,12.06-1.75,18.62-2.62c0.38-0.05,0.86,0.59,1.29,0.91C206.8,47.11,205.65,48.7,204.5,50.28z"/>
		<path class="st0" d="M197.62,237.11c4.8,5.47,10.22,10.73,17.63,9.53c6.22-1.01,8.67,2,11.25,6.1c1.55,2.45,3.21,4.88,4.34,7.53
			c1.42,3.31,0.04,4.89-3.54,4.33c-6.53-1.02-12.28-4.01-17.25-8.15c-4.36-3.62-8.13-7.95-12.15-11.97
			C195.61,242.2,195.18,239.78,197.62,237.11z"/>
		<path class="st0" d="M169.33,264.15c-0.31-0.59-0.61-1.18-0.92-1.77c-5.12-12.03-1.01-22.85,4.63-33.47
			c-0.32,2.34-0.86,4.69-0.91,7.04c-0.09,4.1-0.38,8.29,0.31,12.28c1.68,9.67,9.28,16.58,20.58,9.72c0.35,3.47-2.38,7.28-6.76,9.43
			C179.72,270.57,175.27,269.73,169.33,264.15z"/>
		<path class="st0" d="M143.98,328.64c1.89-3.54,3.77-7.09,5.66-10.63c2.46-6.59,2.29-13.44,0.68-20.01
			c-2.2-8.95-5.3-17.68-8.01-26.5c0,0,0.08,0.13,0.08,0.13c0.07-0.46,0.15-0.92,0.25-1.53c5.7,3.25,9.97,7.03,10.89,14.29
			c1.36,10.64,2.87,21.23-0.35,31.64c-1.24,4.01-4.07,7.56-6.38,11.19C146.32,327.98,144.94,328.18,143.98,328.64z"/>
		<path class="st0" d="M181.39,187.49c-7.54,3.07-13.68,8.08-18.84,14.21c-2.86,3.4-5.07,7.35-7.55,11.03
			c-0.91,1.47-1.83,2.96-2.75,4.46c2.32-14.17,9.88-25.35,19.74-35.28c2.71,1.23,5.28,2.29,7.73,3.56
			C180.42,185.85,180.83,186.81,181.39,187.49z"/>
		<path class="st0" d="M204.5,50.28c1.15-1.58,2.3-3.17,3.45-4.75c3.6-0.68,7.2-1.36,11.71-2.21c-1.24,2.02-1.88,3.05-2.51,4.08
			c-1.92,2.24-3.83,4.47-5.75,6.7c-4.26,5.48-5.08,12.05-5.7,18.63c-3.48,0.08-3.91-2.3-4.17-4.8
			C200.87,61.77,202.22,55.95,204.5,50.28z"/>
		<path class="st0" d="M129.03,131.68c0.53,1.32,1.06,2.64,1.59,3.96c-1.35,3.56-2.71,7.12-4.19,11.02
			c-6.6-9.06-7.04-36.05-1.59-43.58c0,3.76-0.29,8.2,0.08,12.59c0.38,4.44,1.32,8.83,2.21,13.21
			C127.35,129.89,128.38,130.74,129.03,131.68z"/>
		<path class="st0" d="M194.46,241.79c1.8,2.54,3.5,4.76,4.98,7.11c0.5,0.78,0.92,2.18,0.55,2.8c-0.52,0.86-1.75,1.51-2.8,1.75
			c-0.85,0.2-1.95-0.15-2.79-0.55c-7.15-3.44-11.63-9.16-14-16.74C184.43,239.72,188.07,244.09,194.46,241.79z"/>
		<path class="st0" d="M237.5,125.95c0.5,1.44,1.17,2.51,1.19,3.59c0.1,5.84-1.93,10.91-6.14,14.96c-0.83,0.8-2.59,1.52-3.44,1.15
			c-0.9-0.39-1.26-2.09-1.75-3.27c-0.17-0.41-0.06-0.96,0.01-1.43C227.9,137.5,233.74,128.58,237.5,125.95z"/>
		<path class="st0" d="M234.52,161.82c-0.54,0.25-1.12,0.43-1.61,0.76c-2.33,1.57-4.79,2.7-7.42,0.93c-2.74-1.85-3.25-4.68-2.7-7.76
			c0.15-0.83,0.44-1.63,0.57-2.09c1.42,1.68,2.66,4.49,4.45,4.9c2,0.45,4.78-0.86,6.69-2.18c1.9-1.31,3.14-3.57,4.77-5.55
			c0.42,4.73-2.54,7.77-4.84,11.09L234.52,161.82z"/>
		<path class="st0" d="M203.67,179.13c-0.91-3.61-1.76-7.01-2.62-10.41c-0.3,0.01-0.6,0.02-0.89,0.03c0.9-1.37,1.79-2.74,2.54-3.88
			c0.9,3.86,1.77,7.61,2.83,12.2C205.29,177.34,204.37,178.35,203.67,179.13z"/>
		<path class="st1" d="M217.6,267.85c-1.36-0.18-2.73-0.37-4.09-0.55c0.35-1.45,0.7-2.89,1.05-4.34c1.96,0.49,3.91,0.97,6.96,1.73
			C219.62,266.23,218.61,267.04,217.6,267.85z"/>
		<path class="st0" d="M199.05,181.59c-0.14-3.26-0.29-6.53-0.43-9.79C202.24,174.85,202.35,177.92,199.05,181.59z"/>
		<path class="st1" d="M235.59,149.35c0.63,3.3-0.26,5.23-3.18,6.67C231.57,152.72,232.27,150.7,235.59,149.35z"/>
		<path class="st1" d="M234.43,161.92c0.3,0.15,0.88,0.32,0.87,0.44c-0.27,2.87-4.5,5.14-6.9,3.98c1.98-1.46,4.04-2.98,6.12-4.51
			C234.52,161.82,234.43,161.92,234.43,161.92z"/>
		<path d="M165.59,143.6c-2.19,1.33-4.04,2.46-5.89,3.58c-0.2-0.18-0.41-0.36-0.61-0.55c1.8-1.75,3.6-3.49,5.57-5.4
			c-0.91-5.14-2.06-5.25-11.35-0.45c2.23-4.25,5.89-5.14,9.73-5.67c0.09-3.83,0.09-3.83-9.84-3.78c-0.05-0.35-0.1-0.69-0.15-1.04
			c3.11-0.38,6.23-0.76,9.82-1.2c0.63-2.99,1.41-6.72,2.21-10.51c-2.38-0.22-4.97-0.09-7.32-0.76c-2.33-0.67-4.43-2.16-6.39-3.57
			c4.11,0.82,8.23,1.64,12.34,2.47c0.11-0.33,0.23-0.66,0.34-0.99c-2.23-1.81-4.47-3.63-6.7-5.44c0.22-0.37,0.43-0.74,0.65-1.12
			c4.03,3.55,8.46,5.19,13.86,3.55c-2.18-2.07-4.22-4.01-6.26-5.95c0.19-0.22,0.39-0.43,0.58-0.65c1.25,0.84,2.45,1.77,3.76,2.52
			c3.03,1.72,5.87,1.81,9.27,0.22c5.34-2.49,10.92-4.78,16.64-6.05c8.8-1.95,15.76,3.94,15.78,12.98
			c0.03,12.78-5.58,23.66-12.32,34.05c-0.59,0.92-1.34,1.74-1.92,2.66c-4.67,7.47-7.73,8.05-17.78,5.28
			c-5.28-1.46-8.83-5.39-11.65-9.95C167.22,146.61,166.56,145.33,165.59,143.6z M201.86,107.12c-6.42-1.4-13.03-0.58-17.94,3.76
			c-8.04,7.11-10.21,24.46-5.22,34.01c2.49,4.76,6.25,7.67,11.7,8.06c4.94,0.35,6.56-0.79,7.78-5.23
			c-10.89,1.93-18.65-7.74-15.25-19.28c1.55,3.06,3.78,4.53,7.14,3.33c8.57-3.04,11.88-16.43,5.33-23.2
			C197.71,108.05,199.78,107.59,201.86,107.12z M181.95,111.16c-3.81,1.87-6.49,3.47-9.36,4.54c-4.13,1.54-6.06,4.62-6.9,8.64
			c-1.94,9.3-0.09,17.87,5.45,25.52c4.5,6.21,10.77,8.95,18.39,7.87c1.72-0.24,3.26-1.77,4.88-2.71c-0.19-0.3-0.39-0.6-0.58-0.9
			c-11.82-0.46-17.98-6.69-18.71-18.62C174.59,127,176.82,119.28,181.95,111.16z M203.83,134.57c-1.78-1.57-2.7-2.38-3.62-3.2
			c-1.26,1.52-2.72,2.92-3.64,4.63c-0.23,0.43,1.29,1.8,2.01,2.74C200.08,137.54,201.59,136.34,203.83,134.57z"/>
		<path d="M181.08,51.83c2.7,10.91-3.98,28.04-15.1,34.64c-2.61,1.55-4.33,3.14-4.63,6.19c-0.09,0.88-0.64,1.71-0.71,1.88
			c0-7.28-0.13-15.13,0.04-22.98c0.16-7.02,1.76-13.62,7.08-18.85c-7.15,10.23-5.33,21.73-5.05,33.6c7.14-3.33,11.69-8.79,14-15.6
			C178.96,64.07,179.93,56.99,181.08,51.83z"/>
		<path d="M53.26,405.59c4.49-1.35,8.9-3.45,13.47-3.91c13.82-1.39,27.26,1.68,40.66,4.61c19.04,4.16,37.96,9.04,57.17,12.21
			c30.04,4.95,59.95,4.25,88.99-6.44c0.66-0.24,1.41-0.24,2.11-0.35c-7.92,2.44-15.69,5.61-23.77,7.2
			c-30.44,5.98-60.61,3.04-90.59-3.79c-17.95-4.09-35.9-8.2-53.96-11.71C75.93,401.2,64.38,401.21,53.26,405.59z"/>
		<path d="M309.52,355.96c1.01-5.95,2.17-11.88,3-17.86c1.63-11.75-0.2-23.22-3.24-34.56c-0.28-1.03-0.33-2.13-0.49-3.19
			c4.62,11.94,6.05,24.35,4.67,36.97C312.78,343.61,310.87,349.76,309.52,355.96z"/>
		<path d="M303.69,125.27c0.06-4.18,0.57-8.43,0.02-12.53c-0.45-3.37-2.18-6.56-3.34-9.83c1.37,2.87,3.6,5.66,3.92,8.65
			C304.79,116.05,303.96,120.69,303.69,125.27z"/>
		<path d="M264.98,157.37c2.18-1.3,4.33-2.65,6.54-3.89c2.19-1.23,4.44-2.34,6.66-3.5c-1.87,1.33-3.65,2.83-5.65,3.93
			C270.11,155.24,267.5,156.23,264.98,157.37z"/>
		<path d="M282.51,368.37c1.47-5.09,3.21-10.13,4.37-15.29c4.31-19.18,2.16-38.12-2.5-56.92c-1.04-4.21-2.21-8.39-3.33-12.58
			c2.31,8.47,5.18,16.83,6.82,25.43c3.21,16.84,3.3,33.73-1.73,50.35C285.2,362.43,283.73,365.36,282.51,368.37z"/>
		<path d="M263.51,393.17c3.19-3.43,6.37-6.86,9.56-10.29C269.88,386.31,266.7,389.74,263.51,393.17z"/>
		<path d="M142.31,271.5c2.71,8.82,5.81,17.55,8.01,26.5c1.62,6.57,1.78,13.42-0.68,20.01c2.7-15.46-1.79-29.79-6.87-44.03
			C142.5,273.19,142.46,272.32,142.31,271.5z"/>
		<path class="st0" d="M201.86,107.12c-2.07,0.47-4.14,0.93-6.45,1.45c6.54,6.77,3.24,20.16-5.33,23.2
			c-3.36,1.19-5.59-0.27-7.14-3.33c-3.4,11.54,4.35,21.21,15.25,19.28c-1.22,4.45-2.84,5.58-7.78,5.23
			c-5.46-0.39-9.21-3.29-11.7-8.06c-4.99-9.55-2.82-26.9,5.22-34.01C188.82,106.54,195.43,105.72,201.86,107.12z"/>
		<path class="st0" d="M181.95,111.16c-5.13,8.12-7.36,15.84-6.84,24.34c0.74,11.93,6.9,18.16,18.71,18.62
			c0.19,0.3,0.39,0.6,0.58,0.9c-1.62,0.94-3.16,2.46-4.88,2.71c-7.62,1.08-13.89-1.65-18.39-7.87c-5.54-7.65-7.39-16.22-5.45-25.52
			c0.84-4.02,2.77-7.1,6.9-8.64C175.46,114.63,178.14,113.04,181.95,111.16z"/>
		<path class="st0" d="M203.83,134.57c-2.24,1.78-3.74,2.97-5.25,4.17c-0.72-0.94-2.24-2.31-2.01-2.74c0.92-1.7,2.38-3.11,3.64-4.63
			C201.13,132.19,202.05,133,203.83,134.57z"/>
	</g>
</g>
</svg>
