<?xml version="1.0" encoding="utf-8"?>
<!-- Generator: Adobe Illustrator 28.2.0, SVG Export Plug-In . SVG Version: 6.00 Build 0)  -->
<svg version="1.1" id="Capa_1" xmlns="http://www.w3.org/2000/svg" xmlns:xlink="http://www.w3.org/1999/xlink" x="0px" y="0px"
	 viewBox="0 0 540 513" style="enable-background:new 0 0 540 513;" xml:space="preserve">
<style type="text/css">
	.st0{fill:#FFFEFE;}
	.st1{fill:#E982B3;}
	.st2{fill:#F4C7DE;}
	.st3{fill:#F7D5E8;}
	.st4{fill:#EBD465;}
	.st5{fill:#ECCB86;}
	.st6{fill:#EA82B3;}
	.st7{fill:#EECA7A;}
	.st8{fill:#EAD564;}
	.st9{fill:#FCF4B0;}
	.st10{fill:#F5B8D1;}
	.st11{fill:#FFFFFF;}
	.st12{fill:#F4ADCD;}
	.st13{fill:#F4B1CF;}
	.st14{fill:#E88DB7;}
	.st15{fill:#FCF4B1;}
	.st16{fill:#FFE890;}
	.st17{fill:#FFE88F;}
	.st18{fill:#F4B9D0;}
	.st19{fill:#F4B8D1;}
	.st20{fill:#F9F2B6;}
	.st21{fill:#F7F2B5;}
	.st22{fill:#A7CFA9;}
	.st23{fill:#FCF2A4;}
	.st24{fill:#E9DA77;}
	.st25{fill:#B5D2A5;}
	.st26{fill:#EFE490;}
	.st27{fill:#EDDF83;}
	.st28{fill:#CFD999;}
	.st29{fill:#FFE790;}
	.st30{fill:#F4B2D0;}
	.st31{fill:#EAA694;}
	.st32{fill:#F4B1D0;}
	.st33{fill:#F4B0CF;}
	.st34{fill:#FDE2BA;}
	.st35{fill:#020203;}
	.st36{fill:#020303;}
	.st37{fill:#EBD565;}
	.st38{fill:#0DAAA4;}
	.st39{fill:#060705;}
	.st40{fill:#090A07;}
	.st41{fill:#148780;}
	.st42{fill:#0D7E79;}
	.st43{fill:#E9D76E;}
	.st44{fill:#EDF6ED;}
	.st45{fill:#EADA7A;}
	.st46{fill:#857F54;}
	.st47{fill:#778466;}
	.st48{fill:#3F412D;}
	.st49{fill:#EEC59A;}
	.st50{fill:#BE9AA8;}
	.st51{fill:#085B58;}
	.st52{fill:#F4B9D1;}
	.st53{fill:#F4B8D0;}
	.st54{fill:#81C4C4;}
	.st55{fill:#89C4C5;}
	.st56{fill:#85C4C5;}
	.st57{fill:#AAD0AC;}
	.st58{fill:#AACEAB;}
	.st59{fill:#A0CFB6;}
	.st60{fill:#EAEDBF;}
	.st61{fill:#AFCFA6;}
	.st62{fill:#076360;}
	.st63{fill:#075956;}
	.st64{fill:#A0D5D2;}
	.st65{fill:#6DC3C2;}
	.st66{fill:#0B908B;}
	.st67{fill:#FEFEFE;}
	.st68{fill:#0BA49E;}
	.st69{fill:#085F5C;}
	.st70{fill:#0B7D79;}
	.st71{fill:#0B8480;}
	.st72{fill:#096864;}
	.st73{fill:#086E6A;}
	.st74{fill:#098B86;}
	.st75{fill:#087672;}
	.st76{fill:#93AEAB;}
	.st77{fill:#0E7572;}
	.st78{fill:#09615E;}
	.st79{fill:#FCFCFC;}
	.st80{fill:#FAF3B6;}
	.st81{fill:#F4EBBE;}
	.st82{fill:#F4F1BD;}
	.st83{fill:#0B6A65;}
</style>
<g id="QnpB9G.tif">
	<g>
		<path class="st0" d="M39.89,109.75c0-27.54,0.01-55.09-0.03-82.63c0-1.05,0.2-1.33,1.31-1.33c152.57,0.03,305.13,0.03,457.7,0.02
			c0.79,0,1.27-0.1,1.27,1.08c-0.04,153.43-0.04,306.86-0.04,460.3c-6.13,0-12.26,0-18.4,0c0.15-0.87,0.94-0.67,1.46-0.81
			c4.89-1.24,9.01-3.78,12.21-7.64c4.47-5.39,5-11.5,2.94-18c-1.85-5.83-5.14-10.77-9.24-15.22c-4.15-4.52-8.94-8.23-14.37-11.09
			c-6.42-3.38-13.21-5.58-20.44-6.38c-0.24-0.02-0.48-0.06-0.72-0.13c-5.72-0.59-11.44-0.57-17.15,0.08
			c-1.07,0.23-2.18-0.02-3.24,0.27c-1.2,0.23-2.44,0.02-3.63,0.32c-0.31,0.06-0.63,0.07-0.95,0.07c-5.64,0.19-11.27,0.79-16.92,0.56
			c-4.69-0.19-9.37-0.5-13.95-1.65c-2.91-0.73-5.68-1.8-8.03-3.7c-2.33-1.89-3.71-4.32-3.8-7.42c-0.06-1.9,0.62-3.46,1.93-4.77
			c2.13-2.14,4.76-3.54,7.37-4.95c5.09-2.76,10.24-5.43,15.05-8.68c8.31-5.62,14.78-12.88,19.29-21.83
			c2.95-5.85,4.8-12.09,6.31-18.45c1.6-6.77,2.65-13.63,3.18-20.56c0.43-5.58,0.81-11.17,0.63-16.78
			c-0.55-16.53-2.86-32.79-7.73-48.64c-2.54-8.26-5.67-16.29-9.44-24.05c-3.42-7.04-7.39-13.76-12.63-19.64
			c-5.53-6.19-11.79-11.45-19.14-15.41c-7.36-3.96-15.17-6.36-23.44-7.32c-8.1-0.94-16.06-0.06-23.87,2.15
			c-9.99,2.83-18.77,7.85-26.58,14.65c-3.37,2.93-6.48,6.1-9.34,9.53c-0.22,0.26-0.43,0.52-0.73,0.68c-0.79,0.24-1.47,0.03-1.82-0.7
			c-0.35-0.75,0.36-1.1,0.79-1.51c4.53-4.24,8.76-8.71,11.62-14.32c1.57-3.08,2.53-6.35,2.69-9.77c0.16-3.37-0.64-6.49-3.84-8.45
			c-1.01-0.62-2.13-0.8-3.27-1.02c-1.68-0.31-1.85-0.79-0.82-2.16c6.89-9.22,13.49-18.63,18.99-28.75
			c4.24-7.8,8.11-15.77,9.77-24.61c0.6-3.17,0.82-6.37,0.16-9.56c-1.27-6.15-6.25-9.09-12.28-7.3c-3.47,1.03-6.42,2.96-9.17,5.24
			c-0.7,0.58-1.4,1.17-2.13,1.71c-0.19,0.14-0.45,0.26-0.67,0.11c-0.21-0.15-0.22-0.42-0.15-0.66c0.21-0.79,0.51-1.55,0.8-2.31
			c4.45-11.64,8.71-23.34,12.13-35.32c1.72-6.04,3.21-12.14,3.95-18.38c0.43-3.62,0.62-7.24-0.33-10.84
			c-1.26-4.78-5.35-7.18-10.15-5.93c-4.09,1.06-7.11,3.69-9.78,6.76c-5.86,6.75-10.1,14.52-13.87,22.57c-0.93,2-1.84,4.01-2.76,6
			c-0.15,0.32-0.28,0.82-0.75,0.72c-0.45-0.09-0.43-0.58-0.46-0.95c-0.06-0.76-0.07-1.54-0.01-2.3c0.58-6.98,0.23-13.98,0.21-20.97
			c-0.01-2.71-0.24-5.45-0.77-8.13c-0.56-2.83-0.16-5.73-0.72-8.58c-0.85-4.26-3.05-6.52-7.31-7.12c-1.97-0.28-3.8,0.36-5.55,1.17
			c-3.61,1.66-6.38,4.4-8.92,7.35c-5.09,5.92-8.99,12.62-12.58,19.52c-1.11,2.12-2.12,4.29-3.21,6.42c-0.2,0.4-0.39,1.05-0.94,0.92
			c-0.54-0.13-0.48-0.78-0.43-1.24c0.62-5.66,0.71-11.36,1.02-17.04c0.18-3.24,0.14-6.5-0.11-9.76c-0.21-2.82-0.46-5.63-1.01-8.4
			c-0.33-1.65-0.86-3.24-1.65-4.73c-2.06-3.89-6.15-5.4-10.26-3.77c-2.57,1.02-4.54,2.82-6.26,4.92c-0.97,1.19-1.87,2.43-2.67,3.74
			c-0.89,1.46-1.29,1.49-2.42,0.15c-1.64-1.94-3.35-3.8-5.37-5.37c-3.25-2.52-5.63-2.56-8.99-0.15c-2.29,1.64-4.01,3.82-5.87,5.88
			c-0.22,0.11-0.44,0.12-0.68,0.07c-2.56-1.68-4.97-3.57-7.57-5.19c-7.14-4.43-14.83-7.56-22.9-9.81
			c-7.08-1.98-14.31-3.15-21.63-3.7c-5.63-0.42-11.27-0.43-16.92-0.11c-9.17,0.52-18.19,1.87-27.07,4.15
			c-13.04,3.34-25.38,8.36-36.6,15.9C65.65,55.18,56.1,66.29,49.16,79.7c-4.68,9.05-7.47,18.64-8.56,28.75
			c-0.05,0.43-0.05,0.87-0.3,1.24C40.18,109.83,40.04,109.85,39.89,109.75z"/>
		<path class="st0" d="M476.53,487.18c-145.09,0-290.18,0-435.26,0.03c-1.15,0-1.4-0.21-1.4-1.39
			c0.03-121.14,0.03-242.28,0.03-363.42c0.14-0.1,0.28-0.08,0.4,0.04c0.76,2.2,0.67,4.53,1.06,6.79c1.55,8.84,4.29,17.27,8.14,25.37
			c5.17,10.85,11.93,20.62,19.82,29.65c4.23,4.84,8.8,9.32,13.43,13.77c10.07,9.64,19.27,20.02,26.11,32.27
			c3.53,6.33,6.14,13.01,6.89,20.28c0.97,9.4-2.49,18.46-10.89,23.18c-7.13,4.01-14.14,3.39-20.86-1.11
			c-1.71-1.15-3.25-2.51-4.48-4.21c-2.49-3.45-3.12-7.07-0.94-10.88c2.11-3.7,5.48-5.01,9.58-4.77c4.47,0.26,8.14,2.01,10.63,5.87
			c0.1,0.16,0.22,0.31,0.53,0.4c0.35-0.7,0.29-1.44,0.16-2.19c-0.73-4.25-3.27-7.29-6.66-9.67c-4.31-3.02-9.07-4.77-14.4-4.52
			c-4.38,0.2-8.52,1.25-12.15,3.87c-4.12,2.98-6.18,7.2-6.66,12.09c-0.46,4.69-0.09,9.37,1.44,13.91
			c2.36,7.04,6.67,12.67,12.47,17.19c8.6,6.71,18.47,10.12,29.26,11.14c7.72,0.73,15.3,0.06,22.77-1.93
			c6.6-1.76,12.4-5.01,17.49-9.55c1.43-1.28,2.92-2.48,4.1-4.01c0.28-0.36,0.62-0.76,1.2-0.55c0.15,0.19,0.21,0.42,0.22,0.66
			c-0.6,3.34-1.43,6.64-1.87,10.02c-0.03,0.4-0.09,0.81-0.17,1.2c-0.46,3.1-0.85,6.21-1.06,9.34c-0.01,0.17-0.05,0.34-0.09,0.51
			c-0.44,4.4-0.58,8.81-0.28,13.23c0.09,1.32,0.02,2.66,0.28,3.98c0.2,0.8,0.02,1.65,0.29,2.44c0.21,1.87,0.55,3.73,0.93,5.57
			c0.13,0.8,0.27,1.6,0.46,2.39c0.1,0.42,0.16,0.85,0.31,1.26c0.05,0.14,0.09,0.28,0.12,0.42c1.7,6.58,4.08,12.87,7.99,18.49
			c1.27,1.82,2.7,3.48,4.48,4.82c3.53,2.66,7.08,2.76,10.8,0.41c3.84-2.43,6.71-5.81,9.26-9.49c0.77-1.1,1.43-2.27,2.16-3.39
			c0.18-0.27,0.36-0.66,0.74-0.59c0.48,0.09,0.43,0.57,0.48,0.93c0.05,0.33,0.03,0.67,0.03,1c-0.25,12.28,2.32,23.97,7.31,35.15
			c2.89,6.47,6.52,12.47,11.65,17.47c1.34,1.31,2.82,2.45,4.43,3.41c3,1.77,6.06,1.82,9.22,0.41c3.69-1.65,6.52-4.35,8.91-7.51
			c5.59-7.4,8.69-15.81,9.77-24.99c0.73-6.26,0.4-12.43-1.87-18.39c-0.31-0.81-0.68-1.58-1.04-2.36c-0.22-0.47-0.53-0.94-0.18-1.48
			c0.58-0.31,1.12-0.01,1.66,0.14c2.49,0.74,5.04,1.21,7.62,1.22c5.22,0.03,9.83-1.73,13.76-5.19c0.64-0.57,1.27-1.16,1.86-1.79
			c0.35-0.37,0.69-0.83,1.32-0.67c0.38,0.82-0.17,1.48-0.43,2.17c-2.68,6.94-4.8,14.04-5.95,21.4c-0.91,5.85-1.18,11.71,0.34,17.52
			c2.21,8.44,8.04,12.49,16.38,12.85c6.31,0.27,12.18-1.65,17.9-4.1c3.49-1.49,6.84-3.21,9.87-5.53c0.92-0.7,1.73-1.51,2.55-2.31
			c0.41-0.39,0.81-1.03,1.4-0.87c0.7,0.19,0.62,1.01,0.71,1.59c0.55,3.51,1.26,6.98,2.54,10.3c1.42,3.7,3.2,7.16,6.45,9.66
			c3.47,2.66,7.43,3.13,11.58,2.63c4.7-0.56,8.9-2.54,13-4.77c0.49-0.27,0.94-0.71,1.58-0.46c0.32,0.58,0.02,1.13-0.13,1.66
			c-1.23,4.2-2.06,8.51-2.04,12.87c0.03,6.48,1.48,12.62,5.42,17.98c3.73,5.08,8.56,8.85,13.99,11.92
			c9.39,5.31,19.53,8.26,30.2,9.54c9.23,1.11,18.33,0.59,27.28-2.06c2.77-0.82,5.38-2.02,8-3.19c6.98-3.13,14.28-4.83,21.9-5.46
			c6.6-0.55,13.1-0.14,19.55,1.24c5.67,1.21,11.03,3.27,15.75,6.71c4.67,3.4,8.09,7.68,9.23,13.54c0.72,3.69,0.24,7.02-2.2,9.99
			c-3.46,4.21-8.71,4.76-13.17,2.92c-2.83-1.16-4.17-2.28-7.16-5.59c0.46,3.22,2.09,5.56,4.57,7.37c2.48,1.81,5.29,2.86,8.28,3.47
			C475.69,486.54,476.4,486.37,476.53,487.18z"/>
		<path class="st1" d="M148.15,284.81c-3.58,4.12-7.71,7.56-12.42,10.32c-5.47,3.19-11.42,4.87-17.62,5.74
			c-10.5,1.47-20.81,0.64-30.8-3.09c-8.99-3.36-16.72-8.49-22.28-16.46c-5.02-7.19-6.88-15.23-5.6-23.86
			c1.08-7.28,5.43-12.01,12.47-14.08c9.16-2.7,17.21-0.52,24.07,6.03c2.04,1.94,3.4,4.36,3.88,7.22c0.19,1.16,0.11,2.26-0.4,3.6
			c-0.49-0.72-0.88-1.28-1.26-1.84c-2.72-3.99-8.79-6.25-13.46-5.03c-6.84,1.8-9.27,9.45-4.76,15.03
			c8.84,10.96,25.08,9.79,32.27-2.31c3.29-5.55,3.87-11.53,2.85-17.75c-1.5-9.12-5.64-17.13-10.71-24.7
			c-6.29-9.39-13.81-17.76-22.04-25.47c-9.54-8.94-18.23-18.58-25.39-29.55c-6.59-10.09-11.66-20.88-14.56-32.62
			c-1.1-4.46-1.84-8.98-2.23-13.57c-0.32-0.75,0.12-1.58-0.26-2.32c0-2.59,0-5.17,0-7.76c0.39-0.84-0.07-1.76,0.26-2.61
			c0.84-10.88,3.85-21.13,8.94-30.77c8.16-15.45,19.69-27.67,34.96-36.28c13.18-7.44,27.31-12.1,42.2-14.62
			c9.23-1.56,18.51-2.29,27.85-1.9c15.64,0.66,30.71,3.79,44.71,11.14c4.33,2.28,8.44,4.89,12.2,8.03
			c-0.24,1.47-1.02,2.57-2.27,3.36c-0.69,0.01-1.14-0.46-1.63-0.83c-9.51-7.31-20.32-11.76-31.92-14.47
			c-3.74-0.87-7.51-1.49-11.3-1.98c-0.4-0.05-0.92-0.32-1.2,0.11c-0.22,0.35,0.14,0.72,0.31,1.04c3.29,5.91,5.46,12.23,6.94,18.79
			c1.1,4.86,1.93,9.76,1.98,14.77c0,0.24,0,0.48,0.01,0.72c0.08,1.35,0.28,1.51,1.6,1.04c4.35-1.53,8.79-2.68,13.35-3.37
			c2.93-0.44,5.86-0.95,8.84-0.87c1.25,0.03,2.48-0.14,3.72-0.25c0.75-0.07,1.56-0.15,2.1,0.59c0.09,1.23-0.41,2.32-0.88,3.4
			c-0.37,0.86-1.29,0.68-1.99,0.9c-2.95,0.28-5.9,0.2-8.86,0.62c-4.76,0.67-9.41,1.69-13.96,3.18c-7.77,2.54-14.79,6.53-21.23,11.51
			c-6.74,5.21-12.51,11.4-17.61,18.22c-2.29,3.07-4.52,6.18-6.52,9.45c-1.06,1.73-1.61,1.77-3.12,0.34
			c-3.83-3.63-8.02-6.82-12.41-9.73c-0.88-0.58-1.83-1.05-2.71-1.62c-0.95-0.72-2.03-1.25-3.08-1.8c-4.07-1.92-8.13-3.88-12.52-5
			c-4.53-1.15-9.06-1.91-13.77-1.12c-6.15,1.03-10.45,4.54-13.44,9.79c-2.94,5.17-4.32,10.75-4.5,16.74
			c-0.28,9.57,2.19,18.47,5.98,27.11c5.11,11.64,12.3,21.93,20.47,31.58c4.65,5.48,9.7,10.58,14.8,15.64
			c7.56,7.49,14.66,15.39,21.15,23.83c6.51,8.47,12.03,17.53,16.17,27.39c3.02,7.19,4.93,14.7,5.9,22.44
			c0.33,2.61,0.4,5.24,0.48,8.16c1.84-2.96,3.26-5.83,4.54-8.75c3.27-7.47,5.11-15.35,6.28-23.38c1.14-7.84,1.15-15.75,0.9-23.65
			c-0.17-5.16-0.78-10.3-1.42-15.43c-0.08-0.67-0.18-1.36,0.52-1.81c1.24-0.53,2.48-0.65,3.73-0.05c0.96,2.04,0.89,4.28,1.16,6.44
			c1.03,8.08,1.17,16.21,0.85,24.33c-0.37,9.43-1.74,18.74-4.75,27.74c-1.35,2.84-2.15,5.9-3.47,8.76
			c-2.47,5.35-5.44,10.37-9.21,14.91C148.78,284.44,148.61,284.81,148.15,284.81z"/>
		<path class="st1" d="M476.53,487.18c-1.72-0.55-3.53-0.74-5.22-1.42c-3.49-1.41-6.61-3.29-8.4-6.79c-0.66-1.29-1.04-2.66-1-4.14
			c0.56-0.11,0.63,0.36,0.84,0.62c3.27,3.93,7.14,6.59,12.56,6.31c5.49-0.28,10.11-5.97,9.49-11.42
			c-0.93-8.17-5.72-13.47-12.49-17.3c-6.44-3.64-13.49-5.25-20.82-5.86c-8.98-0.74-17.74,0.28-26.35,2.89
			c-4.05,1.23-7.76,3.25-11.7,4.73c-5.18,1.96-10.55,2.99-16.07,3.39c-12.74,0.94-24.96-1.31-36.73-6.08
			c-7.25-2.94-13.9-6.86-19.31-12.63c-4.93-5.27-7.52-11.52-8-18.73c-0.39-5.88,0.73-11.5,2.33-17.08c1.35-1.64,3.07-2.73,5.06-3.41
			c0.65,0.44,0.38,1.03,0.2,1.55c-1.83,5.13-3.03,10.4-3.3,15.83c-0.14,2.86,0.35,5.71,1.1,8.51c1.36,5.04,4.28,9.01,8.11,12.44
			c3.78,3.4,8.11,5.91,12.62,8.16c0.42,0.21,0.84,0.44,1.54,0.62c-2.12-3.12-3.37-6.4-3.96-9.91c-0.9-5.41-0.47-10.79,0.62-16.12
			c1.39-6.79,3.69-13.27,6.53-19.58c4.74-10.52,10.8-20.26,17.3-29.76c7.71-11.27,14.26-23.16,18.49-36.21
			c2.23-6.9,3.63-13.96,4.1-21.23c0.86-13.34-1.65-26.03-7.23-38.1c-2.76-5.97-6.46-11.39-10.85-16.34
			c-5.02-5.66-10.56-10.68-17-14.68c-6.83-4.24-14.16-7.23-22.13-8.42c-8.25-1.22-16.31-0.41-24.09,2.71
			c-1.18,0.47-2.3,1.24-3.67,1.1c-0.64-0.2-1.12-0.56-1.31-1.23c0.14-0.84,0.83-1.13,1.48-1.42c6.15-2.73,12.52-4.25,19.31-4.39
			c12.89-0.27,24.19,4.06,34.69,11.13c3.99,2.69,7.69,5.74,11.04,9.15c6.03,6.15,11.12,13.02,14.9,20.82
			c3.72,7.66,6.02,15.75,7.16,24.14c0.71,5.26,0.88,10.55,0.53,15.89c-0.85,13.08-4.77,25.24-10.42,36.95
			c-4.09,8.48-9.01,16.45-14.36,24.18c-6.88,9.96-12.91,20.4-17.4,31.67c-2.58,6.47-4.57,13.13-5.22,20.1
			c-0.47,5-0.08,9.93,1.97,14.65c1.12,2.58,2.86,4.62,4.87,6.5c1.23,1.49,3.09,1.66,4.76,2.15c3.03,0.88,6.11,1.55,9.35,1.99
			c-1.59-1.2-3.02-2.43-4.42-3.71c-4.95-5.41-7.44-11.92-8.09-19.1c-0.47-5.17-0.01-10.32,1.3-15.38
			c2.93-11.31,8.64-21.11,16.04-30.03c5.72-6.89,12.18-13.12,17.69-20.19c4.09-5.25,8.05-10.59,11.57-16.26
			c4.38-7.06,8.27-14.35,11.24-22.12c3.1-8.09,5.26-16.41,6.12-25.04c0.37-3.67,0.39-7.36,0.31-11.05c-0.03-1.54-0.47-3.03-0.8-4.52
			c-2.76-12.34-6.79-24.24-12.25-35.66c-4.08-8.53-9.06-16.46-15.82-23.12c-8.93-8.8-19.54-14.59-31.89-16.91
			c-11.44-2.15-22.57-0.82-33.36,3.57c-6.73,2.74-12.76,6.54-18.24,11.28c-0.61,0.53-1.24,1.06-1.93,1.49
			c-2.37,1.47-4.16,3.53-5.79,5.75c-0.62,0.97-1.07,2.16-2.55,2.09c-1.06-0.55-2.37-0.75-2.94-2.03
			c9.12-11.21,20.27-19.59,34.05-24.23c7.41-2.5,15.07-3.67,22.88-3.25c14.58,0.78,27.46,5.96,38.64,15.34
			c7.66,6.43,13.62,14.19,18.31,22.99c8.12,15.25,13.48,31.45,16.6,48.4c1.22,6.63,2.07,13.31,2.46,20.06
			c0.29,5.02,0.59,10.04,0.45,15.06c-0.4,14.02-2.1,27.83-6.56,41.21c-3.16,9.48-8.17,17.81-15.5,24.66
			c-5.29,4.95-11.41,8.69-17.76,12.08c-3.46,1.85-7.03,3.53-10.19,5.87c-4.99,3.71-4.94,9.49,0.07,13.31
			c2.97,2.27,6.43,3.35,10.04,3.99c6.77,1.2,13.59,1.4,20.44,0.95c2.67-0.17,5.35-0.23,8.03-0.34c0.3,0.29,0.59,0.22,0.87-0.04
			c1.21-0.43,2.47-0.23,3.71-0.31c1.08,0.21,2.18,0.61,3.16-0.29c1.27-0.45,2.63-0.39,3.93-0.45c4.37-0.22,8.75-0.25,13.12,0.25
			c0.18,0.02,0.35,0.13,0.52,0.2c-0.17,0.98-0.96,0.59-1.48,0.6c-4.43,0.04-8.86,0.01-13.29,0.02c4.44-0.01,8.88-0.01,13.33,0
			c0.73,0,1.44,0,1.99-0.58c4.84,0.47,9.49,1.7,14,3.47c11.69,4.58,21.06,11.97,27.42,22.91c2.18,3.76,3.65,7.81,3.96,12.17
			c0.49,7.09-2.69,12.45-8.22,16.57c-2.79,2.08-5.9,3.54-9.37,4.12c-0.17,0.03-0.33,0.17-0.49,0.25
			C479.98,487.18,478.25,487.18,476.53,487.18z"/>
		<path class="st2" d="M40.15,109.73c-0.03,0.88,0.26,1.78-0.26,2.61c0-0.86,0-1.72,0-2.59C39.98,109.75,40.07,109.74,40.15,109.73z
			"/>
		<path class="st3" d="M39.89,120.1c0.52,0.72,0.22,1.54,0.26,2.32c-0.09,0-0.17-0.01-0.26-0.02
			C39.89,121.63,39.89,120.87,39.89,120.1z"/>
		<path class="st4" d="M340.65,400.35c-1.67,1.11-3.34,2.22-5.01,3.32c-2.49,1.2-4.87,2.63-7.47,3.62
			c-3.89,1.49-7.89,2.44-12.07,1.89c-5.95-0.78-9.6-4.52-12.11-9.68c-2.26-4.66-3.26-9.67-4.01-14.79
			c-0.17,0.06-0.33,0.07-0.42,0.15c-7.45,7.48-16.79,10.95-26.94,12.64c-4.49,0.75-8.89,0.23-12.99-1.88
			c-5.44-2.8-7.78-7.7-8.74-13.42c-1.47-8.65,0.15-17.04,2.35-25.37c1.2-4.53,2.9-8.9,4.45-13.31c-0.31-0.61,0.12-1,0.44-1.39
			c3.21-3.98,5.03-8.58,6.36-13.48c0.56-2.08,0.69-4.18,1.12-6.25c0.28-0.97,0.83-1.03,1.61-0.53c1.09,0.7,2.15,1.43,3.28,2.07
			c3.41,1.95,7,3.06,10.98,2.57c0.38-0.05,0.84-0.1,0.99,0.35c0.15,0.42-0.2,0.73-0.51,0.93c-1.82,1.18-3.83,1.8-6,1.56
			c-1.66-0.19-3.34-0.41-4.89-1.11c-0.95-0.43-1.49-0.1-1.94,0.79c-3.8,7.58-7.26,15.3-9.93,23.37c-1.56,4.69-2.89,9.43-3.64,14.32
			c-0.82,5.36-1.23,10.72-0.02,16.11c1.49,6.65,6.13,10.41,12.97,10.55c5.51,0.11,10.58-1.47,15.54-3.6
			c3.35-1.43,6.65-2.95,9.49-5.31c1.76-1.46,3.22-3.14,4.23-5.2c0.75-1.52,1.02-3.12,1.07-4.84c0.2-7.02,0.4-14.05,1.46-21.02
			c0.98-6.5,2.23-12.92,4.08-19.23c0.26-0.88,0.22-1.53-0.71-2.04c-8.26-4.53-14.14-11.45-19.19-19.19
			c-1.46-2.25-2.92-4.5-4.17-6.88c-0.46-0.87-0.87-1.02-1.76-0.44c-3.89,2.55-8.17,4.18-12.69,5.19c-0.56,0.13-1.12,0.25-1.7,0.12
			c-1.23-0.89-1.93-2.1-2.2-3.58c0.43-0.81,1.26-0.8,1.99-0.94c5.35-1.01,10.29-2.98,14.74-6.14c3.43-2.43,6.31-5.41,8.76-8.82
			c0.39-0.54,0.72-1.59,1.53-1.2c0.74,0.36,0.24,1.31,0.1,1.98c-0.67,3.24-2.36,5.96-4.52,8.37c-0.91,1.01-0.89,1.81-0.28,2.93
			c2.89,5.26,5.96,10.4,9.88,14.96c4.21,4.9,8.83,9.34,14.97,11.8c3.3,1.32,6.71,1.9,10.27,1.27c0.52-0.09,1.31-0.44,1.56,0.18
			c0.32,0.76-0.46,1.16-1.02,1.52c-2.56,1.62-5.39,1.89-8.31,1.51c-2.34-0.3-2.3-0.33-3,1.98c-2.32,7.69-3.63,15.57-4.42,23.54
			c-0.52,5.29-0.92,10.6-0.59,15.91c0.42,6.88,0.92,13.78,3.79,20.21c1.43,3.21,3.23,6.12,6.64,7.6c2.06,0.89,4.18,1.27,6.45,0.94
			c6.32-0.92,11.62-4.04,16.64-7.71c2.16-1.58,4.2-3.32,6.14-5.19c4.75-4.58,6.4-10.04,5.02-16.49c-1.01-4.73-2.36-9.38-3.2-14.15
			c-0.91-5.14-1.51-10.31-1.82-15.53c-0.19-3.26-0.23-6.51-0.21-9.76c0.04-7.19,0.65-14.33,1.55-21.46c0.2-1.61,0.37-3.23,0.61-4.84
			c0.43-2.84-0.89-5.05-3.56-6.18c-2.71-1.14-5.59-1.24-8.45-1.49c-1-0.09-2.01-0.03-3.02-0.01c-1.7,0.02-1.97,0.22-2.44,1.83
			c-0.61,2.07-1.15,4.15-1.6,6.26c-0.11,0.54-0.15,1.26-0.84,1.37c-0.65,0.1-0.99-0.49-1.33-0.95c-1.39-1.91-1.24-4.07-0.9-6.22
			c0.48-2.98,1.46-5.85,2.14-8.79c1.33-4.34,2.23-8.79,3.21-13.22c0.39-1.28,0.1-2.64,0.48-3.92c0.01-0.23,0.01-0.47,0.01-0.7
			c0.22-4.44,0.12-8.87-0.81-13.24c-0.45-2.11-1.14-4.14-1.87-6.16c-0.48-1.09-1.06-2.14-1.46-3.27c-0.13-0.43-0.36-0.81-0.56-1.22
			c-0.13-0.34-0.3-0.66-0.55-0.93c-0.28-0.34-0.46-0.74-0.7-1.11c-0.12-0.16-0.24-0.32-0.37-0.47
			c-5.22-7.26-12.13-12.42-20.17-16.18c-0.91-0.42-1.58-0.37-2.36,0.21c-4.41,3.25-9.1,6.05-14.03,8.42
			c-4.66,2.24-9.44,4.23-14.57,5.2c-1.1,0.21-2.19,0.21-3.29,0.11c-0.28-0.03-0.61-0.09-0.64-0.45c-0.03-0.26,0.21-0.41,0.4-0.55
			c0.43-0.3,0.92-0.51,1.41-0.72c7.2-3.05,14.13-6.61,20.83-10.65c1.47-0.89,2.52-2.03,3.22-3.54c0.67-1.44,1.2-2.92,1.47-4.49
			c0.47-2.74-0.86-5.11-3.51-5.99c-2.96-0.98-5.96-0.66-8.94-0.11c-0.61,0.11-1.2,0.33-1.83,0.38c-0.57-0.02-1.09,0.12-1.57,0.42
			c-0.21,0.07-0.42,0.1-0.64,0.08c-0.41-0.07-0.68-0.27-0.67-0.73c0.12-0.46,0.46-0.71,0.85-0.92c0.54-0.19,0.9-0.58,1.19-1.05
			c3.78-3.18,7.45-6.47,10.79-10.1c6.12-6.64,11.26-13.94,14.15-22.59c1.22-3.64,2.04-7.4,1.21-11.3c-0.43-2.04-1.18-3.93-2.7-5.45
			c-1.32-1.33-2.81-1.51-4.48-0.84c-1.44,0.58-2.7,1.45-3.85,2.47c-4.32,3.83-7.53,8.53-10.41,13.47c-1.33,2.27-2.62,4.57-3.79,6.93
			c-0.22,0.45-0.46,1.21-1.01,1.03c-0.6-0.19-0.49-0.98-0.42-1.54c0.27-1.99,0.44-3.99,0.64-5.99c0.79-7.82,0.97-15.65,0.53-23.5
			c-0.26-4.65-0.69-9.26-1.79-13.78c-0.52-2.15-1.16-4.26-2.45-6.1c-1.43-2.04-2.94-2.3-5.03-0.92c-1.31,0.87-2.19,2.12-3.08,3.37
			c-0.29,0.4-0.54,1.32-1.38,0.56c-0.35-1.95-0.24-3.9-0.08-5.85c2-4.09,8.22-5.05,11.77-1.82c1.79,1.62,2.9,3.69,3.71,5.91
			c1.69,4.57,2.34,9.36,2.77,14.2c0.52,5.83,0.11,11.67,0.32,17.68c1.8-2.3,3.32-4.64,5.4-6.53c1.68-1.52,3.43-2.91,5.5-3.86
			c5.4-2.48,9.44-0.84,12.38,4.15c2.49,4.22,3.01,8.82,2.15,13.61c-0.24,1.32-0.47,2.64-0.84,3.93c-0.36,0.92-0.56,1.9-0.86,2.84
			c-0.04,0.13-0.09,0.26-0.15,0.38c-0.54,0.95-0.61,2.13-1.23,2.8c0.18-0.23,0.48-0.64,0.74-1.09c0.07-0.11,0.14-0.22,0.22-0.32
			c0.41-0.57,0.85-1.12,1.25-1.71c0.07-0.11,0.15-0.21,0.23-0.31c0.46-0.47,0.79-1.04,1.17-1.56c5.71-7.99,11.24-16.09,15.99-24.7
			c3.92-7.1,7.41-14.38,9.37-22.31c0.71-2.87,0.89-5.76,0.73-8.69c-0.06-1.11-0.47-2.15-1.01-3.12c-1.19-2.13-2.89-2.87-5.3-2.46
			c-2.63,0.45-4.85,1.75-6.96,3.26c-4.78,3.44-8.78,7.67-12.46,12.23c-2.11,2.61-3.98,5.39-5.89,8.14
			c-0.29,0.42-0.45,0.99-1.11,1.01c-0.24-0.07-0.37-0.25-0.43-0.49c-0.07-0.71,0.34-1.28,0.59-1.9
			c6.25-15.51,12.4-31.05,17.57-46.96c2.75-8.47,5.31-17.01,6.8-25.82c0.49-2.88,0.87-5.77,0.75-8.71
			c-0.05-1.11-0.15-2.19-0.44-3.26c-0.87-3.27-3.13-4.51-6.34-3.34c-2.67,0.98-4.76,2.8-6.64,4.9c-6.35,7.08-10.66,15.4-14.58,23.95
			c-3.86,8.42-6.96,17.12-9.61,25.99c-0.08,0.28-0.15,0.56-0.29,0.81c-0.14,0.26-0.31,0.51-0.64,0.49
			c-0.36-0.02-0.42-0.35-0.48-0.62c-0.12-0.52-0.12-1.05-0.08-1.57c0.41-5.01,0.45-10.03,0.61-15.05
			c0.24-7.32,0.71-14.64,0.47-21.95c-0.21-6.54-0.19-13.12-1.62-19.57c-0.33-1.46-0.8-2.86-1.54-4.16c-1.16-2.04-3.07-2.7-5.28-1.89
			c-1.69,0.62-2.89,1.86-3.97,3.22c-2.2,2.76-3.74,5.9-5.09,9.13c-3.45,8.27-5.41,16.96-6.93,25.75
			c-0.95,5.47-1.56,10.99-1.96,16.53c-0.17,2.43-0.49,4.86-0.38,7.31c0.05,1,0.02,2.02-0.61,2.89c-0.57,0.1-0.61-0.36-0.69-0.71
			c-0.82-3.67-1.86-7.29-2.76-10.94c0.29-9.22,1.9-18.25,3.86-27.23c0.59-2.71,1.34-5.39,2.22-8.02c0.86-2.58,1.56-5.22,2.73-7.32
			c-1.36,2.56-3.26,5.18-4.8,8.03c-3.18,5.85-6.05,11.84-8.6,17.99c-0.11,0.27-0.21,0.54-0.33,0.8c-0.59,1.27-0.87,1.31-1.78,0.28
			c-0.22-0.25-0.43-0.51-0.69-0.72c-0.92-0.99-1.79-2.02-2.23-3.34c-0.63-1.95-0.11-3.92,0.05-5.84c0.22-2.58,0.27-5.16,0.4-7.73
			c0.29-5.63,0.64-11.29,0.34-16.93c-0.19-3.62-0.25-7.27-1.15-10.83c-0.28-1.12-0.55-2.23-1.1-3.25c-1.42-2.59-3.57-3.25-6.15-1.83
			c-1.67,0.92-2.93,2.3-4.1,3.76c-1.08,1.35-1.84,2.91-2.76,4.37c-0.55,0.87-0.48,1.67,0.02,2.55c2.65,4.69,4.74,9.62,6.07,14.85
			c1,3.9,1.73,7.85,1.97,11.88c0.05,0.77,0.24,1.51,0.4,2.26c0.13,1.69,0.24,3.39,0.19,5.08c0.13,5.32-0.39,10.6-1.25,15.82
			c-1.16,6.97-3.28,13.66-7.04,19.72c-0.68,1.09-1.51,2.09-2.36,3.06c-1.01,1.13-2.08,2.21-3.32,3.1c-0.56,0.28-1.1,0.59-1.7,0.76
			c-0.37,0.1-0.8,0.23-1.06-0.14c-0.29-0.4,0.07-0.72,0.3-1c1.46-1.78,2.74-3.68,3.88-5.68c2.91-5.08,4.68-10.56,5.97-16.24
			c1.68-7.39,2.06-14.89,1.71-22.41c-0.39-8.54-2.21-16.79-6.08-24.49c-2.62-5.2-5.72-10.07-10.14-13.98
			c-1.7-1.5-2.74-1.58-4.59-0.25c-3.51,2.51-5.79,6.07-8.08,9.61c-4.93,7.61-8.42,15.88-11.25,24.46c-0.37,0.86-0.79,1.3-1.39,0.17
			c-0.49-1.14-0.49-2.33-0.3-3.53c0.31-1.93,0.31-3.92,1.11-5.76c1.07-1.15,1.26-2.69,1.6-4.09c0.79-3.25,2.26-6.19,3.65-9.17
			c1.66-3.57,3.88-6.8,6.24-9.94c1.84-2.73,4.1-5.05,6.93-6.76c2.49-1.5,4.93-1.51,7.38,0.25c2.48,1.78,4.63,3.88,6.46,6.29
			c0.8,1.05,1.09,0.77,1.63-0.15c1.69-2.87,3.69-5.49,6.4-7.47c1.73-1.27,3.63-2.12,5.83-2.15c3.44-0.06,5.98,1.43,7.6,4.46
			c1.81,3.37,2.3,7.08,2.61,10.81c0.7,8.42,0.12,16.84-0.46,25.24c-0.12,1.72-0.2,3.44-0.14,5.23c1.06-2.1,2.11-4.21,3.17-6.31
			c3.33-6.54,6.98-12.88,11.54-18.66c2.56-3.25,5.35-6.28,8.91-8.46c3.33-2.05,6.83-3,10.63-1.27c2.43,1.11,3.7,3.12,4.29,5.6
			c0.28,1.16,0.44,2.35,0.55,3.54c1.01,10.82,1.64,21.66,1.17,32.53c-0.08,1.86-0.18,3.73-0.01,5.68c0.49-1.09,0.98-2.18,1.47-3.26
			c3.56-7.92,7.48-15.64,12.69-22.63c2.47-3.32,5.19-6.4,8.76-8.61c2.42-1.5,5.03-2.42,7.92-1.92c4.32,0.74,6.71,3.84,7.2,8.8
			c0.62,6.25-0.49,12.31-1.87,18.33c-3.44,14.97-8.79,29.32-14.19,43.65c-0.37,0.98-0.74,1.97-1.1,2.96
			c-0.01,0.03,0.03,0.09,0.07,0.2c1.33-1.09,2.59-2.23,3.95-3.24c2.9-2.16,5.99-3.92,9.66-4.49c4.72-0.73,8.85,1.64,10.39,6.16
			c1.43,4.18,1.02,8.42,0.11,12.62c-1.98,9.19-6.12,17.5-10.7,25.6c-5.4,9.57-11.68,18.55-18.31,27.3
			c-0.17,0.22-0.41,0.42-0.34,0.84c0.81,0.14,1.66,0.23,2.48,0.44c3.95,0.97,6.29,4.17,6.26,8.85c-0.04,5.08-1.86,9.63-4.55,13.87
			c-2.72,4.29-6.2,7.9-9.92,11.3c-0.34,0.31-1.07,0.54-0.89,1c0.21,0.55,0.87,0.83,1.55,0.74c0.95,0.73,2.01,1.26,3.09,1.78
			c3.07,1.37,5.85,3.17,8.21,5.58c0.35,0.44,0.7,0.87,1.25,1.07c3.3,2.35,5.67,5.52,7.9,8.83c0.78,1.28,1.7,2.48,2.26,3.9
			c2.94,5.78,4.3,11.94,4.53,18.4c0.28,7.94-0.96,15.65-3.3,23.21c-0.11,0.37-0.21,0.74-0.31,1.11c-0.35,1.37-0.25,1.57,1.11,1.56
			c2.01-0.01,4.02,0.1,6.02,0.31c2.54,0.27,5.01,0.81,7.34,1.88c4.16,1.91,6.05,5.15,5.53,9.7c-0.66,5.71-1.53,11.39-1.93,17.12
			c-0.47,6.78-0.58,13.57-0.16,20.37c0.44,7.11,1.59,14.07,3.4,20.95c0.06,0.23,0.12,0.46,0.21,0.69c0.5,1.9,0.99,3.81,1.3,5.75
			c0.32,1.88,0.55,3.77,0.6,5.69c0.12,5.32-1.84,9.8-5.26,13.73c-1.86,2.13-4.06,3.91-6.21,5.74
			C341.71,399.91,341.22,400.21,340.65,400.35z"/>
		<path class="st5" d="M211.45,45.28c-0.27,1.2-1.21,2-1.84,2.98c-3.74,5.86-6.76,12.03-8.56,18.77c-0.13,0.48-0.17,1.07-0.75,1.32
			c-0.62,0.1-1.24,0.22-1.73-0.33c2.66-0.15,2.1-2.51,2.76-4.04c-0.18-0.5,0.07-0.93,0.24-1.38c1.59-4.31,3.53-8.46,5.84-12.44
			c0.36-0.62,0.74-1.23,1.35-1.64c0.75-1.07,1.5-2.13,2.25-3.2C211.16,45.32,211.31,45.3,211.45,45.28z"/>
		<path class="st6" d="M454.39,427.69c-0.22,0.51-0.49,0.87-1.15,0.87c-5.21-0.03-10.41-0.02-15.62-0.03
			c-0.07,0-0.15-0.09-0.24-0.15c0.32-0.64,0.92-0.39,1.39-0.39c4.54-0.02,9.07-0.01,13.61-0.02c0.5,0,1.07,0.19,1.47-0.32
			C454.03,427.65,454.21,427.67,454.39,427.69z"/>
		<path class="st6" d="M436.27,427.64c-0.56,1.16-2.05,1.3-3.16,0.29C434.13,427.51,435.22,427.73,436.27,427.64z"/>
		<path class="st6" d="M429.39,428.23c-0.27,0.43-0.54,0.95-0.87,0.04C428.81,428.26,429.1,428.25,429.39,428.23z"/>
		<path class="st1" d="M231.42,126.73c1.08-0.97,2.15-1.93,3.23-2.9c0.89-0.1,0.83,0.66,0.91,1.13c0.58,3.59,1,7.21,0.69,10.86
			c-0.33,3.81-0.76,7.61-1.63,11.35c-1.67,7.22-4.32,14.07-7.61,20.7c-3.6,7.27-7.85,14.14-12.61,20.69
			c-3.52,4.84-7.32,9.46-11.12,14.08c-4.44,5.4-8.58,11.03-12.14,17.06c-2.12,3.59-4.15,7.22-5.8,11.05
			c-0.71,1.31-1.39,2.63-1.76,4.09c-0.05,0.15-0.11,0.29-0.17,0.43c-2.48,6.21-4.02,12.64-4.9,19.26
			c-0.64,4.77-0.66,9.55-0.47,14.31c0.16,4.14,0.58,8.28,1.51,12.35c1.08,5.53,2.92,10.83,5.11,16c0.33,0.88,0.62,1.79,1.1,2.61
			c0.07,0.12,0.13,0.24,0.19,0.36c0.82,1.64,1.52,3.34,2.58,4.86c1.56,2.58,3.01,5.23,4.99,7.94c-0.68-3.16-1.16-6.02-1.46-8.9
			c-0.61-5.82-0.61-11.65-0.28-17.49c0.26-4.56,0.91-9.05,1.77-13.52c1.57-8.17,4.18-16.02,7.51-23.64
			c4.66-10.65,10.95-20.29,18.14-29.38c8.15-10.31,15.54-21.15,21.9-32.66c7.45-13.5,13.15-27.67,16.15-42.85
			c1.73-8.74,2.14-17.57,1.88-26.45c-0.12-4.01-1.11-7.85-2.44-11.61c-1.95-5.53-4.3-10.86-7.75-15.65c-0.78-1.09-1.53-2.2-2.44-3.2
			c-0.58-0.64-1.09-1.34-1.28-2.21c-0.06-1.78-0.35-3.56-0.07-5.35c0.98,0,1.46,0.8,2.05,1.37c1.74,1.66,3.47,3.34,4.54,5.55
			c0.56,1.09,1.28,2.07,2.07,3c3.61,4.71,5.83,10.08,7.5,15.71c0.06,0.19,0.08,0.37,0.01,0.56c1.04,3.94,2.08,7.89,3.12,11.83
			c1.04,1.54,0.89,3.38,1.19,5.08c0.93,5.17,1.26,10.41,1.62,15.65c0.04,0.59,0.01,1.14-0.24,1.67c-0.08,2.13-0.11,4.26,0.07,6.39
			c0.51,0.72,0.36,1.54,0.35,2.33c-0.01,1.74,0.12,3.49-0.1,5.22c-0.43,1.63-0.38,3.32-0.45,4.97c-0.2,4.24-0.58,8.47-0.99,12.68
			c-0.55,5.69-1.36,11.36-2.3,17c-1.42,8.57-3.25,17.05-5.42,25.46c-0.42,1.61-1.01,3.19-1.14,4.87c-0.47,2.19-1.21,4.3-1.78,6.46
			c-0.4,1.12-0.82,2.24-1.1,3.41c-2.02,6.9-4.56,13.62-7.17,20.31c-2.49,6.38-5.51,12.54-7.66,19.05
			c-1.96,5.92-3.58,11.91-4.79,18.03c-1.23,6.22-1.14,12.48-1,18.74c0.06,2.62,0.76,5.2,1.49,7.73c0.28,1.21,0.7,2.37,1.23,3.5
			c2.05,4.43,4.91,8.08,9.67,9.84c3.21,1.18,5.46,0.28,6.99-2.78c1.13-2.26,1.38-4.65,0.98-7.12c-0.18-1.14-0.74-2.09-1.8-2.62
			c-0.73-0.37-1.33-0.33-1.28,0.75c0.01,0.19,0.02-0.05,0.01,0.14c-0.15,2.83-0.95,3.36-3.48,2.04c-2.59-1.36-3.75-3.7-3.95-6.56
			c0.27-1.26,0.12-2.6,0.79-3.78c1.39-2.84,3.61-4.18,6.82-4.31c4.03-0.15,7.37,1.12,10.17,3.97c0.37,0.37,0.76,0.73,0.87,1.28
			c0.7,1.08,1.4,2.16,2.1,3.24c1.6,1.66,1.75,3.87,2.04,5.94c0.27,1.9,0.29,3.88-0.29,5.78c0.03,1.01-0.51,1.98-0.01,3.07
			c0.19,0.41-0.48,1.17-0.64,1.8c-0.95,3.78-2.06,7.5-3.97,10.94c-1.04,1.88-2.42,3.51-3.56,5.31c-1.81,1.75-3.59,3.53-5.77,4.86
			c-5.56,3.39-11.48,3.72-17.63,2.13c-0.87-0.23-1.74-0.47-2.61-0.71c-1.88-0.01-3.41-1.12-5.11-1.67c-0.31-0.1-0.6-0.28-0.92-0.4
			c-14.6-7.09-25.88-17.97-35.33-30.94c-1.4-2.52-3.49-4.59-4.75-7.2c-1.98-3.62-3.85-7.31-5.62-11.04
			c-0.47-1.65-1.22-3.19-1.83-4.79c-1.42-3.87-2.61-7.81-3.33-11.86c-0.67-3.76-1.32-7.54-1.36-11.38
			c-0.04-3.35,0.01-6.7,0.01-10.05c-0.03-0.33-0.02-0.67,0-1c0.08-7.02,1.52-13.8,3.54-20.48c1-2.61,1.88-5.26,2.93-7.85
			c4.96-11.74,11.95-22.22,20.04-32c2.56-3.1,5.18-6.14,7.63-9.33c2.56-3.15,4.98-6.4,7-9.94c6.14-9.3,11.24-19.11,14.41-29.84
			c1.95-6.6,2.9-13.33,2.54-20.23C231.46,128.8,230.99,127.78,231.42,126.73z"/>
		<path class="st4" d="M178.47,293.98c0.78,1.47,1.49,2.98,1.78,4.64c-0.82,0.37-1.43-0.37-2.25-0.42c1.06,2.74,2.56,5.16,4.52,7.26
			c1.21,1.29,2.43,2.56,3.4,4.05c1.12,2.3,2.95,4.13,4.19,6.35c0.16,0.28,0.3,0.58,0.44,0.87c0.35,1.94-0.34,3.79-0.6,5.66
			c-0.9,6.54-1.65,13.1-2.23,19.68c-1.23,13.86,1.23,27.07,6.87,39.75c2.15,4.84,4.71,9.43,8.11,13.5c1.53,1.83,3.2,3.54,5.22,4.89
			c2.76,1.85,5.48,1.68,8.23,0.04c3.43-2.04,5.88-5.04,7.9-8.39c4-6.62,6.44-13.82,7.1-21.51c0.55-6.4,0.16-12.75-3.1-18.57
			c-0.54-0.97-1.14-1.88-1.79-2.77c-0.33-0.45-0.81-0.85-0.67-1.52c2.11,0.59,4.07,1.53,6.1,2.33c1.3,3.03,2.55,6.06,3.12,9.34
			c1.19,6.91,0.68,13.73-1.15,20.46c-2.05,7.54-5.32,14.45-10.7,20.23c-2.01,2.16-4.31,3.93-7.06,5.08
			c-3.39,1.42-6.63,1.13-9.72-0.85c-4.92-3.16-8.4-7.65-11.39-12.54c-6.19-10.12-9.8-21.12-11.21-32.88
			c-0.49-4.1-0.58-8.2-0.71-12.44c-0.38,0.62-0.75,1.25-1.13,1.86c-2.76,4.42-5.86,8.53-10.27,11.45
			c-4.73,3.13-8.87,2.77-12.99-1.17c-4.4-4.21-6.96-9.56-9.07-15.15c-0.93-2.46-1.81-4.94-2.26-7.54c0.43-1.42,0.05-3.09-0.85-3.73
			c-0.48-1.88-0.86-3.78-0.93-5.73c-0.07-0.76,0.36-1.58-0.28-2.27c-0.45-1.57-0.37-3.21-0.47-4.81c-0.24-4.05-0.07-8.11,0.27-12.16
			c0.02-0.23,0.13-0.45,0.2-0.67c0.49,0.36,0.22,0.92,0.35,1.38c-0.15-0.53,0.19-1.16-0.33-1.61c0.15-3.21,0.49-6.39,1.14-9.54
			c0.39,0.17,0.69,0.79,1.2,0.28c0.29-0.29,0.2-0.7,0.09-1.07c-0.22-0.73-0.8-0.2-1.18-0.33c0.45-3.39,1.07-6.74,1.95-10.04
			c0.69-1.7,2.03-2.95,3.12-4.37c0.67-0.87,0.94-2.07,2.06-2.59c0.37,0.26,0.61,0.62,0.74,1.05c-0.17,1.58-0.47,3.13-1.37,4.49
			c-0.44,0.01-0.39-0.42-0.64-0.8c0.19,0.46,0.33,0.76,0.57,0.98c0.26,0.87,0.06,1.65-0.45,2.37c-0.19,0.16-0.35-0.13-0.53-0.04
			c0.19,0,0.31,0.11,0.41,0.26c0.21,0.66,0.02,1.23-0.34,1.77c-1.59,0.24-1.65,0.58-0.46,2.51c0.25,1.32-0.25,2.56-0.48,3.82
			c-0.31,1.68-0.2,3.44-0.91,5.05c-0.83,0.76-0.39,1.64-0.23,2.5c0.1,2.58-0.29,5.13-0.53,7.68c-0.25,2.76-0.2,5.51-0.24,8.27
			c-0.01,0.48,0,0.95-0.12,1.42c-0.16,0.52-0.78,0.87-0.6,1.49c-0.05,0.23,0.19,0.1,0,0.1c-0.03,0-0.02-0.05,0-0.14
			c0.07-0.34-0.04-0.81,0.56-0.75c0.61,0.68,0.41,1.54,0.51,2.33c0.22,1.7,0.45,3.4,0.4,5.12c-0.28,0.83-0.26,1.69-0.25,2.56
			c0,0.72,0.02,1.44-0.4,1.76c0.25-0.32,0.76-0.25,1.3,0c0.54,0.6,0.64,1.37,0.84,2.11c1.78,6.75,4.07,13.27,8.47,18.85
			c0.66,0.83,1.37,1.6,2.18,2.28c2.41,2.01,4.55,2.09,7.24,0.48c2.44-1.46,4.3-3.51,5.98-5.72c4.28-5.64,7.44-11.87,8.92-18.8
			c1.02-4.8,1.93-9.7,0.45-14.62c-0.75-2.51-1.87-4.77-3.77-6.67c-3.94-3.95-6.75-8.56-7.61-14.17c-0.36-2.32-0.36-4.67,0.09-7
			c0.06-0.33,0.13-0.66,0.28-0.96c0.19-0.37,0.34-0.91,0.84-0.86c0.44,0.04,0.44,0.56,0.54,0.92c0.18,0.65,0.28,1.31,0.41,1.97
			c0.22,1.11,0.77,1.96,1.82,2.43C177.77,292.77,178.2,293.29,178.47,293.98z"/>
		<path class="st7" d="M153.44,278.49c-1.59,2.39-3.37,4.64-5.15,6.89c-0.04-0.19-0.09-0.38-0.13-0.57
			c2.42-3.24,4.89-6.44,6.87-10.01c2.27-4.09,4.14-8.35,5.62-12.78c0.16-0.49,0.42-0.96,0.63-1.44c0.23-0.08,0.43-0.08,0.58,0.14
			c-0.16,1.72-0.89,3.27-1.5,4.84c-0.48,1.23-0.95,2.46-1.42,3.7c-1.19,2.21-2.23,4.5-3.51,6.67
			C154.8,276.82,154.55,277.99,153.44,278.49z"/>
		<path class="st8" d="M146.34,295.43c0.41-0.07,0.49-0.93,1.13-0.48c0.71,0.51,0.51,1.25,0.49,1.94c-0.01,0.51-0.41,0.54-0.81,0.57
			c-0.69,0.06-0.93-0.29-0.92-0.92C146.26,296.17,146.3,295.8,146.34,295.43z"/>
		<path class="st8" d="M146.28,331.96c1.33,0.11,1.32,0.11,0.98,1.35c-0.03,0.12,0,0.33,0.08,0.38c1.18,0.81,0.4,1.39-0.21,2
			c-0.05-0.07-0.06-0.15-0.04-0.23c-0.28-0.35,0.16-0.88-0.3-1.19C146.46,333.53,146.33,332.75,146.28,331.96z"/>
		<path class="st8" d="M145.08,306.08c1.18,0.68,0.34,1.73,0.67,2.92c-1.02-0.97-0.47-1.91-0.68-2.69
			C145.04,306.23,145.04,306.16,145.08,306.08z"/>
		<path class="st8" d="M145.07,323.95c0.75,0.34,0.83,1.01,0.28,2.27C144.97,325.51,145.11,324.72,145.07,323.95z"/>
		<path class="st4" d="M146.79,334.26c0.77,0.23,0.29,0.77,0.3,1.19C146.78,335.11,146.81,334.68,146.79,334.26z"/>
		<path class="st9" d="M207.79,189.99c-2.55,3.69-5.61,6.99-8.43,10.46c-7.52,9.26-14.09,19.09-18.78,30.11
			c-0.07,0.17-0.22,0.3-0.33,0.45c-0.9-1.21-0.53-2.67-0.68-4c-0.66-5.84-1.04-11.71-0.97-17.59c0.04-3.49,0.35-6.96,0.61-10.44
			c0.07-0.97,0.53-1.61,1.44-1.94c4.93-1.77,9.55-4.16,14.02-6.87c0.94-0.44,1.79-1.04,2.24-1.29c-0.52,0.32-1.52,0.87-2.51,1.41
			c-6.9,3.05-14.05,5.35-21.43,6.93c-5.67,1.21-11.39,2-17.19,2.39c-8.05,0.54-15.96-0.13-23.78-2.05c-2-0.49-3.95-1.18-5.85-1.97
			c-1.52-0.63-1.6-1.22-0.19-2.11c2.01-1.27,3.44-2.97,4.46-5.11c1.33-2.78,1.19-5.66,0.87-8.95c-0.29,4.29-1.72,7.69-4.62,10.42
			c-1.4,1.31-3.08,2.09-4.89,2.61c-0.77,0.22-1.53,0.18-2.22-0.24c-5.61-3.42-10.08-7.93-12.8-13.97c-1.38-3.08-0.57-5.18,2.33-6.93
			c0.87-0.52,1.77-0.99,2.75-1.23c7.07-1.71,10.05-7.73,9.9-13.55c-0.01-0.43-0.01-0.86-0.03-1.29c0.24-3.06,0.63-6.1,0.55-9.18
			c0.09-0.83-0.04-1.68,0.12-2.51c0.2-0.62,0.23-1.25,0.21-1.9c0-0.48,0-0.96,0.01-1.43c0.5-6.09,0.82-12.19,0.35-18.3
			c-0.16-2.06-0.38-4.1-0.9-6.09c-1.15-4.43-3.95-5.41-7.7-2.77c-1.87,1.32-3.23,3.1-4.54,4.93c-0.39,0.54-0.61,1.37-1.55,1.26
			c-0.4-0.51-0.3-1.08-0.22-1.65c0.76-5.41,1.9-10.74,3.49-15.97c0.18-0.58,0.28-1.23,0.85-1.61c3.79,1.9,7.1,4.49,10.39,7.1
			c1.72,1.37,3.32,2.88,4.98,4.33c1.4,1.23,1.44,1.24,2.41-0.31c4.33-6.91,9.19-13.4,14.84-19.3c7.85-8.18,16.84-14.68,27.43-18.88
			c6.07-2.4,12.37-3.86,18.85-4.63c2.44-0.29,4.87-0.28,7.31-0.32c0.57,0.15,1.24-0.21,1.73,0.33c-0.73,3.12-1.53,6.24-0.88,9.49
			c0.22,0.27,0.1,0.75,0.53,0.89c0.29-0.34,0.07-0.82,0.33-1.17c0.75-2.26,1.43-4.54,2.26-6.77c1.97-5.29,4.41-10.38,7.31-15.23
			c2.21-3.69,4.4-7.42,7.52-10.43c4.67-4.5,5.58-3.65,9.37,0.38c6.38,6.78,10.17,14.96,12.5,23.85c0.91,3.5,1.38,7.09,1.64,10.72
			c0.15,2.05,0.19,4.1,0.23,6.15c0.15,6.86-0.6,13.61-2.22,20.28c-1.7,7-4.33,13.55-8.72,19.32c-0.4,0.53-0.84,1.02-1.32,1.59
			c1.07,0.29,1.67-0.71,2.56-0.7c0.78,4.32,0.7,8.66,0.12,12.99c-1.73,13.04-7.05,24.7-13.77,35.83c-0.96,1.59-1.83,3.24-3.05,4.66
			C212.5,183.53,210.18,186.78,207.79,189.99z"/>
		<path class="st10" d="M86.48,70.91c9.14,0.01,16.49,0.84,23.82,2.24c8.54,1.63,16.66,4.42,24.41,8.3
			c2.98,1.49,5.85,3.21,8.55,5.21c0.67,0.5,0.51,0.71,0.07,1.17c-4.93,5.08-9.34,10.58-13.46,16.33c-1.65,2.3-1.67,2.25-3.84,0.48
			c-7.26-5.94-15.22-10.72-24.03-13.96c-5.5-2.02-11.2-3.21-17.11-2.75c-7.31,0.57-13.2,3.76-17.45,9.84
			c-3.43,4.92-5.43,10.35-6.02,16.33c-0.54,5.41-0.3,10.76,0.76,16.08c1.51,7.64,4.16,14.87,7.74,21.77
			c3.94,7.61,8.8,14.62,14.1,21.35c5.78,7.34,12.32,13.97,18.86,20.61c5.09,5.17,10.09,10.45,14.82,15.96
			c5.97,6.96,11.56,14.21,16.31,22.07c5.77,9.55,10.11,19.68,12.19,30.7c0.99,5.27,1.4,10.59,1.23,15.95
			c-0.02,0.49-0.08,0.91-0.41,1.33c-5.43,7.02-12.22,12.15-20.67,15.02c-0.9,0.31-1.11,0.13-0.98-0.8
			c0.48-3.54,0.79-7.09,1.12-10.64c0.35-3.69,0.27-7.36,0.2-11.04c-0.15-7.42-1.36-14.69-3.54-21.79
			c-2.65-8.62-6.83-16.46-11.89-23.89c-2.63-3.87-5.09-7.84-7.94-11.56c-3.47-4.51-7.22-8.75-11.1-12.91
			c-5.18-5.56-10.99-10.49-16.17-16.05c-7.15-7.66-13.57-15.87-18.87-24.95c-3.43-5.88-6.35-12-8.57-18.43
			c-2.06-5.96-3.49-12.06-4.15-18.35c-0.38-3.57-0.59-7.13-0.52-10.72c0.09-4.2,0.63-8.35,1.43-12.47
			c1.47-7.61,4.19-14.77,7.81-21.6c0.47-0.89,0.97-1.76,1.47-2.63c0.39-0.68,0.94-1.1,1.73-1.38c5.63-2.06,11.44-3.23,17.37-3.95
			C78.53,71.21,83.33,70.82,86.48,70.91z"/>
		<path class="st10" d="M160.61,202.45c-0.26,1.71,0.23,3.37,0.37,5.05c0.22,2.75,0.54,5.49,0.79,8.24
			c0.44,4.77,0.34,9.56,0.27,14.34c-0.09,6.1-0.78,12.14-1.88,18.16c-1.38,7.61-3.67,14.89-7.06,21.82
			c-0.94,1.92-1.87,3.86-3.25,5.66c-0.83-2.31-0.44-4.66-0.66-6.93c-0.53-5.53-1.64-10.92-3.22-16.22
			c-2.73-9.19-7.04-17.63-12.18-25.66c-4.02-6.27-8.58-12.14-13.39-17.83c-6.87-8.12-14.5-15.49-21.91-23.1
			c-4.99-5.12-9.64-10.56-13.91-16.33c-4.9-6.63-9.3-13.53-12.88-20.96c-2.94-6.09-5.29-12.42-6.41-19.07
			c-1.47-8.79-1.32-17.52,2.77-25.76c2.35-4.74,5.52-8.76,10.62-10.75c3.61-1.41,7.38-1.76,11.25-1.32
			c6.55,0.74,12.6,2.96,18.43,5.92c0.34,0.17,0.71,0.27,1.07,0.41c-1.84,3.99-2.67,8.27-3.55,12.52c-0.52,2.52-0.95,5.07-1.29,7.63
			c-0.43,3.23-0.52,6.48-0.86,9.71c-0.18,0.77-0.75,1.19-1.4,1.54c-1.76,0.96-3.64,1.44-5.74,1.28c1.47,0.79,2.44,0.88,4.39,0.52
			c0.54-0.1,1.18-0.48,1.6,0.1c0.38,0.53-0.05,1.09-0.22,1.63c-0.87,2.74-3.05,3.93-5.57,4.67c-1.26,0.37-2.56,0.69-4.03,0.5
			c1.55,0.89,3.11,0.44,4.62,0.53c0.3,0.07,0.56,0.18,0.68,0.49c-0.03,1.11-0.96,1.62-1.63,2.24c-1.88,1.72-4.08,2.72-6.5,2.73
			c3.54,0.81,6.33-1.01,8.93-3.3c1.26-1.11,2.22-2.5,3.16-3.89c0.28-0.42,0.48-1.36,1.34-0.57c0.69,1.72,0.5,3.57,0.65,5.35
			c0.17,1.99,0.32,3.97,0.64,5.93c-0.04,3.39,0.89,6.62,1.74,9.84c0.76,2.91,1.64,5.8,2.76,8.6c0.47,1.16,0.22,1.58-1.14,2.15
			c-1.74,0.73-3.36,1.6-4.49,3.19c-1.09,1.54-1.46,3.24-1.06,5.04c0.85,3.88,2.82,7.17,5.51,10.07
			c7.13,8.21,16.42,12.38,26.86,14.52c4.51,0.93,9.09,1.1,13.64,1.6c2.34,0.26,4.68-0.17,7-0.4c1.48-0.14,2.96-0.05,4.43-0.26
			C160.21,202.05,160.52,202.08,160.61,202.45z"/>
		<path class="st10" d="M137.74,30.63c0.76-0.06,1.56,1.12,2.45,1.96c6.03,5.67,10.87,12.27,14.9,19.49
			c3.42,6.12,6.12,12.5,7.68,19.36c0.25,1.11,0.07,1.71-0.99,2.28c-1.85,0.99-3.61,2.16-5.36,3.31c-0.71,0.47-1.16,0.46-1.84-0.15
			c-6.14-5.49-12.83-10.19-20.12-14.06c-3.76-2-7.6-3.81-11.55-5.37c-5.86-2.31-11.87-4.13-18.03-5.52
			c-4.69-1.06-9.42-1.86-14.19-2.49c-2.41-0.31-4.84-0.43-7.26-0.64c-0.31-0.03-0.76,0.14-0.85-0.29c-0.08-0.4,0.36-0.5,0.64-0.66
			c4.85-2.89,9.82-5.54,15.06-7.66c6.15-2.48,12.42-4.57,18.88-6.13c4.59-1.11,9.22-1.91,13.86-2.71
			C132.99,31.01,135,30.92,137.74,30.63z"/>
		<path class="st10" d="M121.82,253.77c1.07,2.92,1.49,5.98,1.96,9.02c0.85,5.48,1.11,11.02,0.87,16.56
			c-0.2,4.7-0.46,9.41-1.34,14.06c-0.06,0.33-0.07,0.67-0.06,1c0.04,0.96-0.35,1.45-1.35,1.67c-6.2,1.35-12.43,1.72-18.76,1.14
			c-5.55-0.51-10.92-1.71-16.05-3.83c-7.79-3.21-14.49-7.91-19.27-14.99c-4.39-6.51-5.62-13.78-4.26-21.36
			c0.93-5.18,4.46-8.5,9.5-9.92c5.99-1.69,11.8-1.26,17.21,2.11c0.11,0.07,0.18,0.19,0.53,0.57c-2.61-0.69-4.9-0.65-7.22-0.08
			c-5.5,1.33-10.03,6.2-9.85,12.43c0.11,3.97,1.55,7.17,4.2,10.02c3.57,3.85,7.9,6.31,13.03,7.28c7.12,1.35,13.5-0.38,19.13-4.91
			c4.07-3.27,6.63-7.54,8.25-12.43c1.09-3.62,1.65-7.29,1.07-11.07c-0.15-0.97-0.07-1.97,0.16-3
			C120.69,249.82,121.09,251.86,121.82,253.77z"/>
		<path class="st10" d="M57.18,73.23c2.03-3.26,4.3-6.02,6.58-8.77c2.14-2.59,4.59-4.88,6.97-7.22c2.32-2.28,4.98-4.15,7.55-6.12
			c0.47-0.36,0.99-0.29,1.51-0.3c4.49-0.08,8.93,0.48,13.37,1.08c5.44,0.74,10.8,1.79,16.09,3.21c6.04,1.63,11.91,3.75,17.64,6.28
			c5.93,2.61,11.51,5.82,16.84,9.46c3.23,2.2,6.27,4.66,9.22,7.23c0.66,0.57,0.76,0.94-0.06,1.5c-2.33,1.58-4.44,3.46-6.46,5.42
			c-0.56,0.54-0.94,0.7-1.69,0.17c-5.93-4.17-12.32-7.46-19.13-9.93c-5.93-2.15-12.02-3.72-18.23-4.77
			c-3.84-0.65-7.73-1.01-11.63-1.3c-4.26-0.32-8.51-0.31-12.76-0.17c-5.42,0.18-10.82,0.71-16.15,1.81
			C63.68,71.45,60.55,72.23,57.18,73.23z"/>
		<path class="st10" d="M208.76,48.54c-2.99,4.9-5.35,10.11-7.43,15.45c-1.23-0.52-2.45,0.04-3.66,0.02
			c-5.23-0.1-10.35,0.73-15.44,1.78c-3.08,0.64-6.11,1.54-9.05,2.66c-1.17,0.44-1.63,0.12-1.61-0.99
			c0.07-5.08-0.74-10.07-1.78-15.01c-0.85-4.05-2.01-8.04-3.5-11.92c-1.17-3.04-2.68-5.9-4.13-8.8c-0.14-0.27-0.47-0.56-0.17-0.9
			c0.18-0.21,0.44-0.03,0.67-0.01c5.82,0.69,11.57,1.72,17.21,3.32c4.46,1.26,8.79,2.88,13.03,4.76
			C198.61,41.44,203.79,44.82,208.76,48.54z"/>
		<path class="st4" d="M104.28,147.98c-0.74-3.91-0.63-7.91-1.18-11.84c-0.26-0.38-0.09-0.75,0.07-1.09
			c1.05-2.15,2.11-4.29,3.22-6.41c0.21-0.41,0.41-1.05,1.15-0.7c0.61,1.06,0.24,2.21,0.29,3.32c0.05,1.08,0.01,2.16,0.02,3.24
			c-0.11,9.82,1.48,19.35,4.71,28.62c1.07,3.07,1.41,3.18,3.93,1.15c2.2-1.77,3.46-4.18,4.43-6.77c0.48-0.59,0.04-1.72,1.14-1.94
			c0.35,4.86-1.02,9.07-4.77,12.32c-1.46,1.27-3.26,1.98-5.11,2.5c-1.45,0.4-2.77,1.03-3.94,1.96c-1.74,1.39-2.17,3.15-1.38,5.24
			c1.11,2.96,2.96,5.44,5.04,7.76c2.2,2.47,4.65,4.65,7.49,6.36c0.74,0.45,1.41,0.6,2.29,0.37c4.45-1.19,6.97-4.27,8.48-8.41
			c0.58-1.59,0.55-3.28,1.01-5.26c1.07,3.45,1.05,6.51-0.17,9.58c-1.02,2.58-2.66,4.61-5.1,5.97c-0.29,0.16-0.69,0.3-0.69,0.66
			c0.01,0.4,0.47,0.39,0.76,0.51c5.08,2.04,10.35,3.28,15.8,3.78c3.43,0.31,6.85,0.61,10.29,0.52c5.77-0.16,11.49-0.82,17.18-1.84
			c8.73-1.57,17.09-4.3,25.28-7.65c0.33-0.16,0.59-0.2,0.59,0.3c-4.43,3.05-9.26,5.32-14.29,7.16c-0.79,0.29-1.18,0.64-1.24,1.49
			c-0.36,5.05-0.74,10.1-0.53,15.17c0.19,4.66,0.38,9.33,1.07,13.96c0.15,0.99,0.09,2.01,0.13,3.01c-0.87,2.69-1.8,5.36-2.96,7.94
			c-0.71-0.43-0.77-1.18-0.89-1.88c-0.95-5.32-1.56-10.68-1.87-16.08c-0.18-3.06-0.24-6.11-0.22-9.17
			c0.03-3.39,0.29-6.77,0.55-10.16c0.14-1.83,0.07-1.86-1.66-1.41c-2.41,0.62-4.83,1.18-7.28,1.63c-0.51,0.09-1.03,0.26-1.56,0.08
			c-1.25,0.13-2.55-0.15-3.74,0.48c-3.71,0.23-7.43,0.69-11.13,0.61c-4.81-0.1-9.61-0.56-14.37-1.47
			c-7.07-1.36-13.69-3.79-19.7-7.75c-2.92-1.92-5.47-4.32-7.69-7.05c-2.08-2.68-4.06-5.44-5.03-8.75c-1.37-4.72,0.31-7.56,4.46-9.52
			c2.26-1.07,2.36-0.99,1.51-3.28C106.59,159.64,105.16,153.89,104.28,147.98z"/>
		<path class="st11" d="M164.35,201.98c0.8-0.63,1.81-0.55,2.72-0.73c2.39-0.49,4.76-1.04,7.11-1.7c0.86-0.24,1.34-0.48,1.21,0.9
			c-0.58,6-0.88,12.03-0.59,18.06c0.33,6.87,0.87,13.73,2.49,20.46c-0.66,2.74-1.38,5.46-1.98,8.21c-0.88,4.02-1.36,8.1-1.57,12.22
			c-1.38,0.17-2.68-0.42-4.07-0.38c-2.37,0.07-4.65,0.3-6.79,1.39c-0.34,0.17-0.7,0.32-1.1,0.23c-0.17-0.01-0.33-0.02-0.5-0.03
			c2.23-7.04,3.56-14.25,4.3-21.59c0.69-6.83,0.68-13.66,0.43-20.5C165.8,212.97,165.18,207.46,164.35,201.98z"/>
		<path class="st10" d="M141.14,30.5c4.42-0.65,8.63-0.33,12.83-0.34c1.42,0,2.84,0.3,4.27,0.26c0.67-0.02,0.97,0.47,1.29,0.97
			c2.11,3.32,3.63,6.92,5.08,10.55c2.43,6.1,3.62,12.51,4.56,18.96c0.36,2.43,0.3,4.94,0.63,7.39c0.12,0.9-0.1,1.55-1.06,1.9
			c-0.98,0.36-1.92,0.86-2.86,1.33c-0.74,0.37-1.07,0.02-1.21-0.65c-1.21-6.1-3.56-11.78-6.41-17.26
			c-3.2-6.15-7.02-11.89-11.54-17.18C145,34.42,142.97,32.68,141.14,30.5z"/>
		<path class="st4" d="M103.46,128.23c-0.05-3.06,0.27-6.09,0.62-9.12c0.54-4.55,1.4-9.04,2.5-13.48c0.54-2.17,1.17-4.32,1.77-6.48
			c0.15-0.56,0.57-0.86,1.1-1.04c0.88,0.77,2.14,0.98,2.93,1.91c-1.28,4.52-2.59,9.05-3.31,13.7c-0.29,1.87-0.82,3.71-0.73,5.63
			c0.25,0.39,0.06,0.74-0.13,1.07c-1.31,2.22-2.35,4.58-3.54,6.86C104.42,127.75,104.27,128.43,103.46,128.23z"/>
		<path class="st12" d="M121.82,253.77c-1.01-1.34-1.07-3.04-1.72-4.52c-0.14-0.33-0.06-0.75-0.55-0.98
			c-0.05,1.17,0.09,2.28,0.18,3.4c0.27,3.28-0.1,6.54-0.91,9.74c-0.06,0.25-0.31,0.46-0.47,0.69c0.64-3.12,1.29-6.26,1.12-9.46
			c-0.15-2.78-0.45-5.57-1-8.34C119.95,247.34,121.18,250.45,121.82,253.77z"/>
		<path class="st10" d="M317.87,239.53c-2.74-1.86-5.47-3.72-8.21-5.58c1.26-0.09,1.53-1.26,2.17-2.02
			c1.78-2.06,3.68-3.98,5.75-5.76c3.16-2.54,6.19-5.23,9.64-7.4c7.43-4.68,15.4-7.94,24.11-9.32c3.88-0.61,7.77-0.98,11.68-0.79
			c7.89,0.4,15.47,2.15,22.64,5.55c5.82,2.75,11.11,6.24,15.89,10.61c5.74,5.24,10.38,11.28,14.2,18
			c3.86,6.78,6.98,13.91,9.71,21.21c2.71,7.25,4.76,14.7,6.47,22.24c0.97,4.28,0.66,8.61,0.42,12.96
			c-0.36,6.28-1.52,12.4-3.27,18.39c-2.25,7.66-5.24,15.02-9.08,22.05c-2.75,5.04-5.65,9.97-8.9,14.7
			c-3.78,5.51-7.92,10.74-12.27,15.82c-3.57,4.18-7.46,8.06-11.06,12.2c-6.63,7.61-12.25,15.88-15.92,25.35
			c-2.76,7.11-4.27,14.49-3.61,22.13c0.57,6.67,2.55,12.9,7.1,18.07c0.34,0.39,0.6,0.86,0.9,1.29c0.41,0.93,1.28,1.36,2.02,1.95
			c0.36,0.29,0.8,0.65,0.53,1.19c-0.23,0.45-0.74,0.38-1.16,0.32c-2.52-0.41-5.03-0.9-7.47-1.67c-1.4-0.44-2.84-0.77-3.99-1.77
			c-3.78-2.93-5.7-6.96-6.6-11.52c-1.53-7.77,0.01-15.23,2.21-22.66c2.28-7.7,5.63-14.92,9.37-21.98
			c4.23-7.99,9.45-15.37,14.44-22.89c6.75-10.18,12.44-20.93,16.36-32.53c2.09-6.19,3.57-12.53,4.22-19.06
			c0.34-3.47,0.63-6.94,0.53-10.43c-0.27-10.06-2.23-19.78-6.05-29.1c-3.09-7.52-7.41-14.28-12.74-20.45
			c-3.96-4.57-8.33-8.66-13.18-12.23c-7.76-5.71-16.31-9.77-25.81-11.49c-6.51-1.18-13.08-1.13-19.62,0.31
			c-3.38,0.74-6.57,1.94-9.75,3.22C318.9,238.68,318.3,238.98,317.87,239.53z"/>
		<path class="st10" d="M326.82,249.41c-2.35-3.13-4.93-6.06-7.7-8.82c1.41-0.14,2.62-0.88,3.9-1.37c4.77-1.8,9.65-2.82,14.77-3.04
			c10.75-0.47,20.48,2.68,29.68,7.9c6.75,3.83,12.53,8.87,17.76,14.55c4.85,5.26,8.84,11.16,11.95,17.6
			c3.13,6.47,5.13,13.34,6.34,20.42c0.9,5.23,1.35,10.52,1.11,15.81c-0.46,9.98-2.6,19.62-6.25,28.93
			c-4.05,10.32-9.31,19.99-15.5,29.16c-4.63,6.84-9.23,13.7-13.19,20.96c-4.78,8.74-8.81,17.8-11.19,27.5
			c-1.2,4.92-1.9,9.95-1.51,15.04c0.37,4.86,1.54,9.49,4.64,13.43c0.08,0.1,0.09,0.26,0.14,0.41c-0.53,0.21-0.96-0.07-1.36-0.26
			c-5.82-2.76-11.32-5.98-15.84-10.66c-4.46-4.62-6.75-10.14-7.18-16.56c-0.42-6.42,1.13-12.45,3.09-18.44
			c0.16-0.5,0.64-1.02,0.19-1.62c2.05-1.91,4.29-3.6,6.28-5.59c3.2-3.2,5.43-6.92,6.12-11.41c0.4-2.55,0.33-5.15-0.2-7.7
			c-0.08-0.37-0.25-0.73-0.09-1.12c1.53-3.67,3.49-7.13,5.24-10.7c3.49-7.15,6.69-14.42,8.95-22.06c1.84-6.21,2.96-12.56,3.45-19.03
			c0.17-2.25,0.22-4.49,0.25-6.74c0.15-9.7-1.3-19.16-4.07-28.45c-2.89-9.66-7.27-18.55-13.99-26.13
			c-5.59-6.31-12.35-10.69-20.93-11.78C330.05,249.44,328.42,249.78,326.82,249.41z"/>
		<path class="st10" d="M434.56,301.95c0.29,3.24,0.57,6.4,0.86,9.55c0.37,3.99,0.45,8.02,0.45,12.01c0,3.12,0.1,6.29-0.37,9.43
			c-0.27,1.78-0.14,3.61-0.31,5.43c-0.42,4.56-1.03,9.08-1.88,13.57c-1.14,6.05-2.7,11.99-4.94,17.74
			c-2.06,5.28-4.72,10.21-8.33,14.6c-5.11,6.22-11.41,10.93-18.43,14.79c-4.51,2.48-9.22,4.63-13.47,7.57
			c-2.35,1.62-4.52,3.48-5.39,6.3c-1.33,4.31-0.28,8.2,2.57,11.63c3.71,4.47,8.88,6.11,14.29,7.11c6.6,1.22,13.27,1.39,19.96,1.07
			c5.75-0.28,11.49-0.68,17.22-1.26c10.92-1.1,21.67-0.29,31.89,4.1c7.57,3.25,14.09,7.96,19.37,14.36
			c3.52,4.26,6.27,8.86,7.52,14.31c1.21,5.28-0.15,9.75-3.83,13.66c-2.98,3.16-6.54,5.2-10.8,6.05c-0.23,0.04-0.46,0.04-1.04,0.08
			c2.1-1.28,3.93-2.34,5.3-4.07c3.13-3.95,3.71-8.37,2.69-13.12c-1.69-7.86-6.52-13.31-13.37-17.16c-6.24-3.51-13-5.29-20.07-6.25
			c-4.25-0.58-8.5-0.71-12.73-0.44c-8.7,0.56-17.17,2.29-25.12,6.13c-5.32,2.57-10.93,4.17-16.84,4.77
			c-2.42,0.24-4.84,0.4-7.26,0.57c-4.6,0.31-8.41-1.52-11.9-4.15c-5.63-4.24-8.58-10.14-9.84-16.92
			c-1.36-7.33-0.44-14.51,1.84-21.56c3.12-9.7,8.44-18.11,14.88-25.91c2.96-3.58,6.27-6.82,9.32-10.31
			c4.92-5.64,9.74-11.36,14.1-17.47c4.41-6.2,8.41-12.63,11.89-19.39c3.61-7.01,6.53-14.33,8.59-21.96
			c1.23-4.55,2.27-9.15,2.62-13.87C434.03,302.59,434.08,302.26,434.56,301.95z"/>
		<path class="st13" d="M366.14,449.24c2.21,1.11,4.56,1.83,6.96,2.34c1.79,0.38,3.57,0.85,5.51,0.81c-0.23-1.6-2.55-1.44-2.41-3.15
			c1.67,1.36,3.34,2.73,5.26,4.3c-2.07-0.09-3.74-0.51-5.43-0.84c-2.65-0.51-5.25-1.24-7.82-2.05
			C367.41,450.39,366.59,450.08,366.14,449.24z"/>
		<path class="st14" d="M317.57,226.18c-1.81,2.03-3.73,3.94-5.75,5.76c0.33-1.39,1.59-2.1,2.47-3
			C315.27,227.94,316.07,226.59,317.57,226.18z"/>
		<path class="st6" d="M405.98,431.79c-0.57-0.35-1.65,0.37-1.64-0.51c0.01-0.74,1.11-0.43,1.71-0.41c0.57,0.02,1.64-0.4,1.6,0.45
			C407.61,432.11,406.52,431.45,405.98,431.79z"/>
		<path class="st6" d="M423.96,431.41c-1.66-0.03-3.02,0.14-4.74-0.2C420.93,430.67,422.79,430.74,423.96,431.41z"/>
		<path class="st6" d="M431.59,431.7c-0.29-0.03-0.62,0.03-0.69-0.35c-0.06-0.38,0.21-0.48,0.52-0.48c0.35,0,0.69,0.1,0.69,0.52
			C432.12,431.71,431.8,431.67,431.59,431.7z"/>
		<path class="st6" d="M400.97,431.05c-0.65,0.28-0.65,0.28-1.45-0.03C400.24,430.87,400.24,430.87,400.97,431.05z"/>
		<path class="st6" d="M421.28,432.14c-0.65,0.15-1.01,0.2-1.41,0.01C420.27,431.89,420.65,431.97,421.28,432.14z"/>
		<path class="st6" d="M397.74,428.27c-0.16,0.11-0.26,0.22-0.36,0.23c-0.08,0.01-0.17-0.12-0.26-0.19
			c0.09-0.09,0.17-0.21,0.28-0.24C397.48,428.05,397.59,428.17,397.74,428.27z"/>
		<path class="st9" d="M266.95,154.63c0.04-2.59,0.08-5.18,0.12-7.78c0.97-1.05,1.54-2.4,2.58-3.42c3.2-3.14,6-2.66,7.81,1.41
			c1.49,3.34,2.23,6.9,2.71,10.49c0.96,7.12,1.08,14.29,0.85,21.45c-0.16,5.28-0.54,10.56-1.34,15.79
			c-0.08,0.55-0.01,1.13-0.01,2.01c1.08-2,2.01-3.75,2.96-5.48c3.22-5.89,6.78-11.53,11.78-16.12c1.06-0.98,2.22-1.82,3.5-2.47
			c2.84-1.45,5.28-0.61,6.88,2.2c2,3.51,2.17,7.24,1.46,11.1c-1.16,6.27-4.03,11.76-7.43,17.07c-3.75,5.84-8.42,10.85-13.42,15.6
			c-1.76,1.67-3.66,3.19-5.49,4.78c-0.39,0.29-0.74,0.63-1.16,0.87c-0.28,0.2-0.56,0.4-0.83,0.61c-0.29,0.59-0.79,0.9-1.19,1.02
			c0.39-0.33,1.13-0.19,1.77-0.45c0.19-0.01,0.37-0.03,0.56-0.04c0.41-0.37,0.98-0.32,1.44-0.54c2.7-0.65,5.43-1.06,8.21-0.87
			c1.69,0.12,3.34,0.47,4.67,1.57c2.16,1.79,2.36,4.13,1.66,6.65c-0.51,1.85-1.23,3.63-2.32,5.21c-1.04,1.51-2.81,2.1-4.31,3
			c-6.15,3.69-12.56,6.89-19.19,9.64c-0.48,0.2-0.93,0.46-1.46,0.73c2.05,0.49,4.35,0.17,7.97-1c8.94-2.9,17.08-7.35,24.66-12.85
			c0.6-0.43,0.99-0.49,1.64-0.19c6.42,2.99,12.29,6.76,17.14,11.99c1.39,1.5,2.73,3.06,3.81,4.81c-0.91,0.59-1.39,1.65-2.4,2.13
			c-0.58-0.32-0.49-0.89-0.49-1.4c-0.01-0.73-0.11-1.43-0.31-2.12c-0.29-0.99-0.85-1.48-1.91-1.08c-0.55,0.18-0.98,0.91-1.68,0.38
			c-0.43-0.31-0.71-0.78-1.12-1.11c-0.48-0.39-0.96-0.89-1.65-0.57c-0.62,0.29-0.58,0.92-0.64,1.49c-0.26,2.31,0.64,4.31,1.61,6.3
			c0.15,0.3,0.34,0.58,0.5,0.87c0.9,1.69,0.88,1.78-0.63,2.87c-1.68,1.21-2.06,4.64-0.68,6.19c0.73,0.82,1.58,0.78,2.47,0.31
			c0.5-0.26,0.85-0.79,1.46-0.87c0.31,1.05,0.92-0.19,1.32,0.18c0.5,1.24,0.75,2.56,1.32,3.79c0.46,0.99,1.13,1.78,1.98,2.41
			c0.97,0.72,1.83,0.47,2.31-0.63c0.38-0.87,0.3-1.79,0.07-2.68c-0.38-1.48-0.79-2.95-1.36-4.39c-0.59-1.48-0.44-2,0.94-2.67
			c1.23-0.59,1.57-1.88,2.46-2.72c1.71,4.07,2.61,8.32,2.83,12.73c0.11,2.36,0.13,4.71-0.03,7.06c-0.53,0.51-1.08,0.99-1.79,1.24
			c-0.22-0.05-0.34-0.2-0.41-0.41c-0.06-0.29,0.02-0.56,0.06-0.84c0.23-1.93-0.19-2.29-1.94-1.66c-0.17-0.1-0.3-0.23-0.41-0.39
			c-0.34-0.51-0.61-1.19-1.37-1.04c-0.8,0.16-1.15,0.85-1.33,1.54c-0.38,1.48-0.66,2.99-0.35,4.52c0.33,1.61,0.29,2.9-1.6,3.7
			c-1.44,0.6-2.02,2.14-2.19,3.65c-0.21,1.85,1.15,2.73,2.82,1.94c0.42-0.2,0.78-0.57,1.3-0.54c0.38,0.23,0.56,0.63,0.8,0.98
			c0.32,0.77,0.1,1.6,0.28,2.39c0.3,1.35,0.78,2.55,2.41,2.74c-0.72,3.01-1.55,5.99-2.14,9.03c-0.42,2.13-0.4,4.31,1.13,6.13
			c0.2,0.24,0.38,0.62,0.78,0.5c0.34-0.1,0.23-0.49,0.29-0.75c0.58-2.31,1.19-4.62,1.72-6.94c0.32-1.37,1.01-1.97,2.5-1.94
			c3.97,0.07,7.93,0.06,11.72,1.46c3.13,1.16,4.46,3.73,3.97,7.02c-0.57,3.81-0.95,7.65-1.33,11.49c-0.7,7.05-1.02,14.11-0.78,21.18
			c0.22,6.33,0.77,12.65,2.09,18.87c1,4.71,2.13,9.38,3.15,14.09c1.34,6.17-0.21,11.53-4.69,16c-5.26,5.25-11.19,9.58-18.18,12.21
			c-4.68,1.76-9.47,2.45-13.94-0.78c-2.58-1.86-4.03-4.55-5.18-7.4c-1.76-4.37-2.52-8.95-3.02-13.63
			c-0.48-4.53-0.65-9.06-0.47-13.59c0.16-4.09,0.57-8.17,1.04-12.24c0.63-5.45,1.65-10.82,2.95-16.15c0.44-1.81,1.03-3.58,1.53-5.37
			c0.2-0.69,0.43-0.94,1.3-0.77c3.18,0.64,6.36,0.74,9.33-0.95c0.78-0.44,0.87-0.51,1.52-1.48c-3.77,0.89-7.36,0.59-10.88-0.62
			c-4.09-1.41-7.58-3.82-10.76-6.68c-6.63-5.97-11.38-13.33-15.59-21.11c-0.58-1.08-0.59-1.78,0.35-2.71
			c2.92-2.89,4.75-6.92,4.85-10.4c-1.59,2.04-3,4-4.65,5.76c-3.25,3.48-7.03,6.14-11.34,8.09c-3.14,1.42-6.41,2.46-9.84,2.93
			c-0.36,0.05-0.69,0.31-1.03,0.47c-2.04-2.11-4.29-4.04-7.24-4.58c-4.6-0.85-8.05-0.48-10.38,3.74c-1.22,0.05-1.7-0.41-1.46-1.52
			c0.21-0.98,0.67-1.9,0.94-2.87c1.89-6.8,2.3-13.57-0.29-20.31c-0.47-1.22-1.16-2.3-2.32-3.36c0.57,2.64,1.28,5.05,1.5,7.55
			c0.64,7.17-0.29,14.04-3.63,20.5c-1.01,1.96-2.14,3.85-3.46,5.62c-0.28,0.38-0.5,0.83-0.99,1c-1-2.76-1.46-5.62-1.64-8.53
			c-0.66-10.88,1.22-21.39,4.4-31.76c2.47-8.06,5.99-15.68,9.1-23.48c2.44-6.11,4.74-12.28,6.65-18.58
			c0.18-0.59,0.43-1.16,0.65-1.74c0.58-0.32,1.22-0.26,1.83-0.23c1.65,0.08,2.85-0.69,3.76-1.98c1.88-2.68,2.85-5.74,3.65-8.85
			c1.59-6.19,2.3-12.5,2.94-18.85c1.04-10.42,0.77-20.85,0.75-31.28c0-1.99-0.19-4-0.23-6
			C266.81,159.52,266.73,157.07,266.95,154.63z"/>
		<path class="st15" d="M266.99,140.46c-0.59-7.5-1.27-14.99-2.57-22.4c0.51-7.46,0.86-14.92,1.93-22.34
			c1.29-8.99,3.12-17.84,6.12-26.42c1.63-4.66,3.6-9.17,6.66-13.1c1.51-1.94,3.25-3.65,6.01-3.67c1.78-0.01,2.96,0.84,3.83,2.31
			c1.29,2.19,1.81,4.63,2.14,7.08c1.15,8.78,1.33,17.62,1.09,26.45c-0.09,3.25-0.1,6.5-0.22,9.74c-0.19,5.25-0.34,10.5-0.61,15.75
			c-0.07,1.32-0.31,2.63-0.16,4.15c0.67-0.69,0.67-1.48,0.87-2.16c2.93-9.66,6.43-19.1,10.79-28.22c3.1-6.48,6.52-12.76,10.98-18.41
			c2.22-2.81,4.62-5.46,7.87-7.21c3.29-1.77,6.79-0.88,7.82,2.16c0.99,2.92,0.88,5.96,0.54,8.95c-0.86,7.6-2.83,14.97-5,22.29
			c-1.95,6.6-4.12,13.12-6.44,19.6c-2.81,7.82-5.75,15.59-8.82,23.31c-1.82,4.57-3.65,9.13-5.48,13.69
			c-0.08,0.39-0.22,0.76-0.27,0.99c0.01-0.25,0.32-0.44,0.58-0.68c4.17-6.48,8.8-12.61,14.53-17.8c3.35-3.04,6.8-6.02,11.44-7.03
			c2.97-0.65,5.15,0.43,6.34,3.23c1.12,2.62,0.96,5.37,0.56,8.05c-1.26,8.37-4.82,15.92-8.72,23.33c-4.15,7.88-9,15.3-14.07,22.6
			c-1.11,1.6-2.31,3.13-3.47,4.7c-0.54,0.36-0.77,0.96-1.15,1.44l0,0c-0.54,0.63-1.08,1.26-1.45,2.01l0,0
			c-1.07-0.57,0.03-1.16-0.02-1.75l0,0c0.58-0.87,0.48-1.95,0.87-2.87c0.43-2.87,1.27-5.68,1.13-8.62c-0.16-3.44-0.93-6.7-2.85-9.62
			c-2.94-4.46-6.81-5.56-11.62-3.25c-3.95,1.89-6.81,5-9.33,8.48c-0.6,0.83-1.2,1.66-1.84,2.55c-0.37-0.55-0.21-1.04-0.21-1.48
			c-0.01-4.6,0.17-9.2-0.05-13.78c-0.3-6.33-0.89-12.66-3.4-18.6c-0.9-2.12-2.05-4.14-4.08-5.41
			C273.9,136.39,270.04,137.16,266.99,140.46z"/>
		<path class="st10" d="M185.05,230.76c1.06-3.3,2.88-6.24,4.57-9.22c3.13-5.53,6.73-10.76,10.67-15.75
			c3.31-4.18,6.7-8.31,10.02-12.48c4.47-5.61,8.5-11.51,12.1-17.71c4.14-7.12,7.71-14.49,10.18-22.37c1.63-5.2,2.63-10.5,3.12-15.94
			c0.39-4.28,0.09-8.46-0.61-12.65c-0.06-0.33-0.05-0.68-0.46-0.81c2.38-3.28,4.44-6.73,5.9-10.53c1.83-4.78,3.06-9.71,3.7-14.78
			c0.49-3.88,0.94-7.77,0.88-11.7c-0.01-0.47,0.05-0.95,0.08-1.42c3.29,3.87,6.21,7.99,8.41,12.58c2.4,5.01,4.28,10.22,5.47,15.64
			c0.36,1.61,0.37,3.31,0.41,4.98c0.06,2.87,0.06,5.75,0.01,8.62c-0.07,5.2-0.75,10.34-1.6,15.47c-1.06,6.42-2.77,12.67-4.81,18.82
			c-1.55,4.67-3.45,9.21-5.47,13.69c-4.96,10.96-11.11,21.24-17.87,31.17c-4.7,6.9-10,13.36-14.93,20.08
			c-5.07,6.91-9.42,14.25-12.94,22.07c-2.65,5.89-4.84,11.93-6.5,18.17c-1.16,4.37-1.95,8.81-2.6,13.29
			c-0.84,5.79-0.93,11.61-0.81,17.43c0.1,5.01,0.74,9.96,1.81,14.86c0.1,0.45,0.32,0.88-0.07,1.54c-2.17-2.84-3.99-5.76-5.51-8.88
			c-0.34-1.9-1.58-3.34-2.58-4.9l0,0c-0.47-0.83-0.31-1.93-1.16-2.58c-2.37-5.16-4.25-10.47-5.17-16.1
			c-1.48-7.31-1.64-14.7-1.4-22.11c0.18-5.4,1.23-10.68,2.68-15.9c0.81-2.9,1.84-5.71,2.74-8.57l0,0
			C183.96,233.47,184.53,232.13,185.05,230.76z"/>
		<path class="st16" d="M265.87,322.42c-0.01-1.19-0.06-2.38-0.02-3.57c0.1-2.87-0.76-5.52-1.74-8.15
			c3.54-0.42,6.87-1.56,10.08-3.06c1.69-0.79,3.38-1.59,4.83-2.79c0.56-0.46,0.85-0.27,1.18,0.33c1.78,3.16,3.68,6.24,5.72,9.25
			c3.96,5.85,8.5,11.13,14.34,15.19c1.21,0.84,2.46,1.67,3.79,2.29c1.02,0.48,1.15,1.05,0.84,2.01c-1.2,3.77-2.1,7.61-2.84,11.49
			c-0.9,4.67-1.59,9.37-2.07,14.11c-0.5,4.85-0.73,9.71-0.73,14.56c0,4.68-2.1,8.1-5.56,10.74c-6.3,4.81-13.53,7.7-21.32,8.82
			c-5.16,0.74-10.28,0.12-14.12-4.15c-1.99-2.21-2.79-4.95-3.33-7.78c-0.77-4.06-0.52-8.12-0.1-12.22
			c0.75-7.37,2.86-14.39,5.41-21.27c2.02-5.45,4.12-10.9,7.01-15.99c0.73-1.28,1.3-2.66,1.89-4.02c0.32-0.75,0.77-0.9,1.46-0.55
			c1.64,0.85,3.46,1.1,5.24,1.33c2.4,0.31,4.57-0.42,6.46-2.01c-1.45-0.01-2.86,0.18-4.31,0c-4.06-0.5-7.51-2.34-10.77-4.65
			C266.77,322.01,266.25,321.47,265.87,322.42z"/>
		<path class="st11" d="M351.46,368.72c-1.19-2.88-1.65-5.96-2.23-8.99c-1.77-9.17-2.08-18.45-1.69-27.74
			c0.3-7.03,0.99-14.03,2.14-20.97c1.09-6.57-1.9-10.68-8.88-12.12c-3.3-0.68-6.63-0.9-9.99-0.86c-1.65,0.02-1.66,0-1.18-1.54
			c2.56-8.23,4.18-16.6,3.77-25.28c-0.29-6-1.57-11.74-4.2-17.16c-0.12-0.25-0.18-0.53-0.27-0.8c0.63-0.67,1.42-0.43,2.16-0.36
			c6.48,0.65,11.83,3.67,16.47,8.05c6.62,6.25,10.91,14,14.15,22.4c2.9,7.51,4.61,15.32,5.33,23.32c1.26,13.84-0.36,27.33-5.3,40.37
			c-2.63,6.95-5.76,13.68-9.13,20.3C352.34,367.87,352.17,368.53,351.46,368.72z"/>
		<path class="st1" d="M351.46,368.72c5.42-10.67,10.65-21.43,13.35-33.2c2.01-8.77,2.61-17.65,1.97-26.64
			c-0.86-12.13-3.76-23.68-9.56-34.41c-3.99-7.39-9.06-13.86-16.52-18.11c-3.64-2.07-7.56-3.2-11.78-3.11
			c-0.62-1.32-1.64-2.43-2.11-3.84c3.23-0.69,6.37-0.09,9.44,0.79c6.98,1.99,12.48,6.2,17.17,11.63
			c5.94,6.87,9.96,14.79,12.83,23.31c1.89,5.64,3.14,11.45,3.97,17.37c0.82,5.9,1.03,11.81,0.75,17.71
			c-0.31,6.61-1.31,13.15-3.07,19.56c-2.43,8.83-6.05,17.17-10.14,25.33c-1.39,2.77-2.77,5.54-4.17,8.3
			c-0.21,0.41-0.3,0.93-0.83,1.11C352.33,372.59,351.9,370.65,351.46,368.72z"/>
		<path class="st17" d="M251.71,86.97c-2.07-2.43-4.02-4.97-6.59-6.92c-0.6-0.6-0.51-1.39-0.57-2.14
			c-0.5-6.75-1.98-13.27-4.57-19.53c-1.08-2.61-2.32-5.14-3.77-7.56c-0.33-0.56-0.45-1.15-0.08-1.76c1.62-2.64,3.02-5.44,5.45-7.49
			c0.29-0.25,0.55-0.53,0.86-0.75c3.77-2.7,7.01-1.67,8.42,2.76c0.89,2.77,1.23,5.66,1.45,8.56c0.32,4.2,0.33,8.4,0.24,12.6
			c-0.1,4.91-0.31,9.82-0.59,14.72C251.85,81.96,251.39,84.45,251.71,86.97z"/>
		<path class="st15" d="M299.32,230.9c-0.27-0.58-0.16-1.1-0.07-1.6c1-5.58-2.91-10.72-8.52-11.19c-0.41-0.03-0.98,0.14-1.11-0.38
			c-0.1-0.38,0.37-0.64,0.65-0.87c3.93-3.24,7.07-7.21,10.23-11.15c0.36-0.45,0.68-0.92,0.98-1.41c0.91-1.46,1.81-2.87,3.66-3.39
			c2.62-0.74,5.18-1.69,7.97-0.88c2.45,0.71,4,3.85,3.55,6.92c-0.84,5.63-3.61,10.27-7.18,14.55c-2.86,3.43-6.16,6.37-9.68,9.1
			C299.66,230.7,299.5,230.78,299.32,230.9z"/>
		<path class="st17" d="M261.3,106.23c-1.52-4.26-3.14-8.48-5.33-12.45c-0.71-1.28-1.46-2.54-2.19-3.81
			c0.74,0.24,0.8,1.17,1.55,1.55c4.09-10.09,8.83-19.8,14.88-28.82c0.06-0.09,0.21-0.12,0.53-0.28c-1.51,3.29-2.55,6.54-3.57,9.79
			c-1.99,6.33-3.26,12.82-4.25,19.37c-0.65,4.28-1.23,8.57-1.56,12.89C261.33,105.06,261.87,105.68,261.3,106.23z"/>
		<path class="st18" d="M326.54,258.12c-0.33,1.49-1.13,2.6-2.59,3.15c-0.78,0.3-0.99,0.76-0.67,1.55c0.62,1.53,1.12,3.11,1.53,4.71
			c0.22,0.85,0.26,1.7,0.18,2.55c-0.08,0.84-0.52,1.52-1.32,1.9c-0.8,0.37-1.41-0.12-1.94-0.56c-2-1.64-2.72-3.93-3.11-6.37
			c-0.27-0.32-0.28-0.72-0.17-1.08c0.75-2.3,0.98-4.72,1.63-7.04c0.05-0.14,0.12-0.28,0.21-0.41c0.9-0.92,1.92-1.67,3.2-2
			c0.55-0.14,1.13-0.32,1.5,0.36C325.51,255.96,326.03,257.04,326.54,258.12z"/>
		<path class="st19" d="M325.6,295.73c-1.72,0.36-2.6-0.53-2.82-2.91c-0.07-0.76-0.04-1.52-0.05-2.29c-0.17-0.46,0.05-0.84,0.26-1.2
			c1.19-2.1,2.12-4.32,3.03-6.56c0.12-0.2,0.28-0.36,0.46-0.5c0.39-0.25,0.77-0.56,1.25-0.59c0.53-0.03,1.19-0.16,1.11,0.75
			c-0.68,3.11-1.34,6.23-2.07,9.33C326.45,293.1,326,294.41,325.6,295.73z"/>
		<path class="st20" d="M324.99,254.87c-1.23-0.45-2.18,0.21-3.13,0.81c-0.48,0.3-0.94,0.63-1.41,0.95
			c-0.72-1.78,0.93-4.6,2.84-4.85c0.2,0.38,0.4,0.76,0.61,1.14c0.08,0.35,0.28,0.63,0.57,0.84
			C324.6,254.15,325.09,254.38,324.99,254.87z"/>
		<path class="st21" d="M328.84,282.43c-0.82-1.29-1.55,0.09-2.33,0.07c-0.42-1.21,0.23-2.09,0.89-2.98
			c0.67-0.29,0.89-1.41,1.92-1.03C328.94,279.78,329.28,281.15,328.84,282.43z"/>
		<path class="st22" d="M323.29,251.78c-2.03,0.99-2.68,2.77-2.84,4.85c0,0-0.07,0-0.07,0c-0.74-0.23-0.53-0.84-0.54-1.36
			c0.17-0.67,0.31-1.35,0.87-1.83c0.53-0.92,1.02-1.89,2.26-2.02C323.08,251.54,323.19,251.66,323.29,251.78z"/>
		<path class="st23" d="M308.65,191.09c0.23,0.58-0.65,1.17,0.02,1.75c-0.18,0.95-1.12,1.33-1.59,2.09
			C307.66,193.66,307.84,192.25,308.65,191.09z"/>
		<path class="st24" d="M278.49,223.31c-0.73,0.76-1.82,0.53-2.75,0.87c0.72-0.48,1.44-0.96,2.17-1.43
			C277.91,223.12,278.13,223.29,278.49,223.31z"/>
		<path class="st25" d="M329.32,278.5c-0.8,0.05-1.06,0.86-1.67,1.17c-0.17-0.2-0.2-0.4-0.02-0.61c0.38-0.67,0.96-1.02,1.71-1.14
			C329.33,278.11,329.32,278.3,329.32,278.5z"/>
		<path class="st23" d="M309.52,188.22c-0.19,0.99,0.04,2.11-0.87,2.87C308.83,190.11,308.93,189.09,309.52,188.22z"/>
		<path class="st26" d="M304.65,152.31c-0.1,0.64-0.57,1.04-0.96,1.5c0.03-0.68,0.13-1.32,0.66-1.81
			C304.44,152.11,304.54,152.21,304.65,152.31z"/>
		<path class="st23" d="M308.67,192.84c0.12-0.93,0.66-1.56,1.45-2.01C309.86,191.66,309.27,192.25,308.67,192.84z"/>
		<path class="st27" d="M200.29,77.56c-0.06,0.53,0.21,1.14-0.38,1.55c-0.44-0.33-0.5-0.78-0.48-1.26
			C200.01,78.62,199.99,77.61,200.29,77.56z"/>
		<path class="st23" d="M310.11,190.83c0.15-0.67,0.41-1.25,1.15-1.44C310.97,189.94,310.72,190.53,310.11,190.83z"/>
		<path class="st28" d="M324.47,253.76c-0.68,0.05-0.98-0.15-0.57-0.84C324.28,253.07,324.48,253.34,324.47,253.76z"/>
		<path class="st24" d="M278.74,222.13c0.28-0.44,0.6-0.81,1.16-0.87C279.67,221.76,279.35,222.14,278.74,222.13z"/>
		<path class="st24" d="M280.49,222.73c-0.41,0.37-0.92,0.46-1.44,0.54C279.37,222.63,279.94,222.72,280.49,222.73z"/>
		<path class="st10" d="M261.81,323.91c-0.32,4.21-1.63,8.14-3.64,11.81c-2.31,4.21-5.4,7.72-9.75,9.98
			c-3.54,1.84-7.23,2.07-11.14,1.47c-2.68-0.41-4.4-2.21-6.29-3.72c-5.65-4.5-10-10.11-13.11-16.62c-2.69-5.63-4.22-11.61-5-17.82
			c-0.56-4.48-0.7-8.97-0.45-13.44c0.28-4.98,0.93-9.94,1.95-14.84c0.88-4.24,1.83-8.47,3.01-12.64c2.29-8.05,5.2-15.87,8.38-23.6
			c3.51-8.53,7.54-16.83,11.82-24.99c4.11-7.83,8.44-15.55,12.27-23.52c4.72-9.81,9.06-19.79,11.96-30.32
			c0.06-0.24,0.12-0.46,0.45-0.5c-0.54,7.5-1.54,14.92-2.71,22.34c-1.24,7.86-2.91,15.63-4.81,23.35
			c-2.44,9.96-5.42,19.78-8.9,29.44c-2.37,6.56-5.18,12.94-7.86,19.37c-2.71,6.49-4.97,13.13-6.56,19.97
			c-1.23,5.27-2.09,10.62-2.48,16.06c-0.51,7.1,0.04,14,2.36,20.73c1.86,5.41,5,9.92,10.09,12.71c3.52,1.94,7.29,3.32,11.27,1.06
			c2.96-1.68,4.34-4.51,5.07-7.65c0.56-2.38,0.42-4.81,0.09-7.25c-0.49-3.6-4.57-7.26-9.41-5.22c-0.82,0.35-1.01,0.13-0.98-0.66
			c0.04-1.26,0.63-2.16,1.73-2.75c3.06-1.24,5.6-0.15,7.91,1.82c0.33,0.28,0.64,0.55,1.01,0.76l0,0c1.3,1.8,2.56,3.62,3.26,5.78
			C262.29,317.95,261.95,320.93,261.81,323.91z"/>
		<path class="st10" d="M260.37,162.94c-0.44,2.69-1.36,5.25-2.22,7.82c-3.91,11.62-9.1,22.7-14.76,33.55
			c-4.36,8.35-8.97,16.56-13.06,25.04c-4.31,8.95-8.2,18.08-11.53,27.44c-2.64,7.41-4.8,14.99-6.29,22.71
			c-0.94,4.85-1.72,9.73-1.95,14.71c-0.15,3.2-0.32,6.41-0.16,9.6c0.39,7.81,1.82,15.4,5.06,22.6c2.78,6.18,6.6,11.59,11.5,16.25
			c0.38,0.36,0.85,0.62,1.1,1.14c-2.87-1.13-5.54-2.51-8.08-4.16c-6.28-4.09-11.88-8.98-17.03-14.39c-1.64-1.73-3.19-3.55-4.76-5.35
			c-0.85-0.97-1.02-2.24-1.34-3.43c-1.41-5.26-2.26-10.6-2.64-16.04c-0.41-5.78-0.31-11.53,0.27-17.29c0.79-7.86,2.45-15.53,4.98-23
			c4-11.81,9.77-22.7,17.21-32.72c5.23-7.05,10.77-13.86,15.65-21.17c3.63-5.44,7.09-10.99,10.3-16.7
			c4.65-8.27,8.51-16.89,11.84-25.76c0.46-1.24,0.87-2.5,1.31-3.75c1.46-3.53,2.12-7.28,3.15-10.93c1.31-4.63,1.76-9.4,2.33-14.15
			c0.04-0.33,0.1-0.66,0.22-0.98c0.09-0.23,0.27-0.41,0.54-0.35c0.23,0.05,0.23,0.28,0.23,0.46c-0.01,0.58,0.13,1.15,0.13,1.71
			c-0.04,5.21,0.84,10.4,0.4,15.6c-0.23,2.67-0.88,5.32-1.57,7.93C260.87,160.54,260.6,161.73,260.37,162.94z"/>
		<path class="st17" d="M155.16,275.89c1.15-2.2,2.3-4.4,3.44-6.6c1.7-3.71,4.51-6.06,8.48-7.04c1.44-0.36,2.85-0.26,4.26,0.09
			c0.94,0.24,1.6,0.17,1.62-1.04c0.01-0.42,0.16-0.87,0.76-0.84c0.05,3.49-0.01,6.99,0.16,10.48c0.24,4.82,0.98,9.56,2.09,14.27
			c0.7,2.97,1.85,5.79,2.5,8.76c-0.23-0.24-0.42-0.6-0.7-0.69c-2.95-0.92-3-3.5-3.41-5.96c-0.93,0.74-0.93,1.83-1.01,2.73
			c-0.35,3.69,0,7.32,1.47,10.79c1.56,3.71,3.97,6.8,6.75,9.67c2.31,2.38,3.45,5.41,3.75,8.64c0.85,9.24-1.73,17.69-6.24,25.66
			c-2.06,3.64-4.42,7.02-7.54,9.82c-0.88,0.79-1.89,1.47-2.93,2.03c-2.57,1.39-5.06,0.96-7.31-1.22c-2.96-2.87-5.01-6.35-6.69-10.07
			c-1.91-4.23-3.21-8.66-4.33-13.15c-0.82-1.23-0.82-2.63-0.85-4.03c-0.22-2.6-0.28-5.21-0.87-7.77c-0.09-0.06-0.12-0.12-0.09-0.18
			c0.03-0.06,0.06-0.09,0.09-0.09c0.02-3.81-0.1-7.63,0.28-11.44c0.22-2.22,0.39-4.45,0.58-6.67c0.09-0.77-0.23-1.59,0.29-2.3
			c0.38-2.27,0.77-4.54,1.15-6.81c0.12-0.7,0.39-1.38,0.28-2.11c-0.21-0.87-0.01-1.63,0.56-2.3c0.1-0.67,0.2-1.34,0.31-2.01l0,0
			c0.48-0.8,0.59-1.68,0.58-2.59l0,0c0.78-1.44,0.97-3.06,1.43-4.6C153.84,278.01,154.87,277.08,155.16,275.89z"/>
		<path class="st15" d="M225.58,347.49c4.15,5.09,5.94,10.96,6.09,17.49c0.21,8.67-1.9,16.74-5.79,24.39
			c-2.13,4.19-4.74,8.08-8.79,10.73c-4.56,2.99-7.41,2.39-11.24-0.97c-5.2-4.56-8.57-10.44-11.4-16.67
			c-1.96-4.32-3.58-8.75-4.79-13.32c-1.13-4.24-1.84-8.55-2.34-12.92c-0.41-3.58-0.28-7.17-0.23-10.75
			c0.06-3.86,0.58-7.69,1.06-11.52c0.43-3.4,0.78-6.81,1.22-10.21c0.31-2.36,0.59-4.72,1.17-7.04c1.87,2.34,3.71,4.71,5.63,7.01
			c4.95,5.92,10.52,11.18,16.69,15.83c3.86,2.91,7.94,5.45,12.29,7.56C225.31,347.2,225.44,347.36,225.58,347.49z"/>
		<path class="st4" d="M266.75,162.05c0.17,2.08,0.46,4.16,0.48,6.25c0.07,6.08,0.14,12.17-0.01,18.25
			c-0.15,6.1-0.59,12.18-1.32,18.25c-0.56,4.6-1.26,9.16-2.42,13.63c-0.79,3.04-1.81,6.03-3.59,8.7c-1.52,2.27-3.59,2.61-6.02,2.03
			c0.18-1.16,0.48-2.27,1.05-3.31c3.74-3.49,4.31-8.29,5.24-12.9c0.98-4.83,1.57-9.73,1.85-14.66c0.07-1.19,0.42-2.35,0.36-3.56
			c0.99-5.15,1.82-10.33,2.49-15.53c0.68-5.24,1.26-10.51,1.53-15.8C266.43,162.93,266.42,162.44,266.75,162.05z"/>
		<path class="st11" d="M243.65,310.51c0.39,1.94,0.9,3.83,2.53,5.16c0.3,0.24,0.58,0.52,0.91,0.69c0.89,0.46,1.98,1.13,2.8,0.66
			c0.8-0.45,0.63-1.71,0.47-2.65c-0.18-1.09,0.36-1.28,1.21-1.07c1.59,0.39,2.42,1.56,2.67,3.05c0.53,3.17,0.09,6.2-1.87,8.85
			c-1.31,1.78-3.1,2.52-5.29,1.95c-5.55-1.45-8.88-5.31-11.09-10.35c0.12-0.92,0.89-1.44,1.37-2.12c0.85-1.2,1.76-2.36,2.54-3.61
			C240.88,309.53,242.04,309.36,243.65,310.51z"/>
		<path class="st4" d="M243.65,310.51c-2.06-0.89-3.22-0.05-4.2,1.83c-0.87,1.66-2.07,3.17-3.46,4.49c-0.68-1.11-1.12-2.3-1.28-3.59
			c1.37-2.46,3.17-4.65,4.35-7.23c1.56-3.4,2.75-6.9,3.21-10.63c0.74-5.96,0.23-11.79-1.72-17.55c1.21,0.35,2.27,1.45,3.09,3.15
			c1.13,2.35,1.85,4.85,2.01,7.42c0.35,5.51,0.04,10.98-2.19,16.16c-0.46,1.07-0.44,1.86,0.94,2.06
			C243.89,307.87,244.05,309.24,243.65,310.51z"/>
		<path class="st4" d="M173.72,260.46c-0.34,0.17-0.49,0.48-0.44,0.83c0.28,1.82-0.61,1.76-1.99,1.43
			c-4.9-1.16-8.39,1.19-11.34,4.75c-0.48,0.58-0.9,1.22-1.34,1.83c1.05-2.89,2.11-5.78,3.16-8.68c3.8-2.26,7.79-2.66,11.96-1.23
			C173.85,259.74,173.85,260.1,173.72,260.46z"/>
		<path class="st29" d="M262.67,194.83c-0.29,5.69-0.86,11.35-1.87,16.96c-0.68,3.78-1.39,7.55-3.06,11.07
			c-0.63,1.32-1.32,2.51-2.81,2.98c0.57-2.09,1.14-4.18,1.71-6.27c1.46-5.58,2.88-11.16,4.13-16.79c0.54-2.46,1.04-4.92,1.47-7.4
			C262.29,195.1,262.22,194.77,262.67,194.83z"/>
		<path class="st30" d="M260.37,162.94c-0.42-1.84,0.72-3.39,0.99-5.11c0.6-3.9,1.75-7.73,1.3-11.74c-0.46-4.06-0.7-8.14-0.55-12.24
			c-0.55,0.05-0.6,0.35-0.58,0.64c0.15,2.54-0.65,4.93-1.08,7.38c-0.1,0.56-0.13,1.16-0.03,1.71c0.17,0.88,0.35,1.53-0.41,2.43
			c-0.53,0.62-0.5,1.91-0.8,2.89c-1.05,3.42-1.62,6.98-2.92,10.34c-0.12,0.3-0.35,0.55-0.53,0.83c0.77-2.85,1.58-5.69,2.31-8.55
			c1.17-4.57,2.01-9.2,2.61-13.88c0.42-3.24,0.62-6.49,0.97-9.74c0.56,3.77,0.87,7.55,1.07,11.35c0.19,3.73,0.32,7.46,0.2,11.18
			C262.78,154.71,261.64,158.85,260.37,162.94z"/>
		<path class="st31" d="M262.67,194.83c-0.66,3.06-1.28,6.12-2,9.16c-1.16,4.91-2.39,9.8-3.61,14.69c-0.08,0.31-0.28,0.59-0.42,0.88
			c-0.05-1.9,0.73-3.64,1.19-5.42c1.58-6.14,3.07-12.31,4.2-18.55c1.33-7.36,2.54-14.75,3.26-22.21c0.45-4.7,0.88-9.4,1.19-14.11
			c0.1-1.53-0.07-3.14,0.48-4.64c0,2.47,0.17,4.95-0.2,7.42c-0.55,7.73-1.26,15.44-2.57,23.08
			C263.63,188.35,263.17,191.59,262.67,194.83z"/>
		<path class="st0" d="M185.92,309.51c-3.95-3.47-7.59-8.56-8.59-12.08c1.04,0.43,1.98,0.81,2.92,1.19c0.86,1.21,1.31,2.63,2,3.93
			C183.48,304.86,184.69,307.19,185.92,309.51z"/>
		<path class="st32" d="M183.32,234.79c0.23,1.72-0.92,3.05-1.35,4.59c-1.47,5.2-3,10.36-3.55,15.76
			c-0.59,5.82-0.25,11.66-0.2,17.48c0.02,2.92,1.05,5.79,1.08,8.75c-0.75-1.87-0.86-3.88-1.09-5.84c-0.42-3.5-0.6-7.02-0.65-10.55
			c-0.12-7.73,0.94-15.29,3.04-22.71C181.33,239.72,182.05,237.15,183.32,234.79z"/>
		<path class="st33" d="M261.81,323.91c-0.09-3.17,0.37-6.39-0.84-9.48c-0.25-0.64-0.52-1.2-0.99-1.7c-0.93-1-1.17-2.38-1.91-3.49
			c2.51,2.08,3.62,4.95,3.94,8.02C262.25,319.44,262.44,321.71,261.81,323.91z"/>
		<path class="st34" d="M207.79,189.99c0.68-1.76,2.05-3.04,3.11-4.53c1.26-1.76,2.21-3.75,3.82-5.25
			c-1.19,2.55-2.97,4.71-4.63,6.94C209.37,188.12,208.85,189.28,207.79,189.99z"/>
		<path class="st33" d="M258.07,309.24c-1.16,0.03-1.58-1.08-2.41-1.56c-1.63-0.95-3.25-1.79-5.23-1.06
			c-0.38,0.14-0.85,0.03-1.28,0.04c1.74-1.13,4.64-0.95,6.62,0.5C256.6,307.77,257.55,308.29,258.07,309.24z"/>
		<path class="st32" d="M185.63,300.05c0.27-0.09,0.55-0.23,0.58,0.26c0.04,0.66,0.43,1.33,0.91,1.53c1.61,0.67,0.88,2.03,1.09,3.11
			C186.99,303.51,186.32,301.77,185.63,300.05z"/>
		<path class="st32" d="M185.05,230.76c0.1,1.49-1.2,2.58-1.2,4.04c-0.18-0.01-0.35-0.01-0.53-0.02
			C183.52,233.28,184.21,231.99,185.05,230.76z"/>
		<path class="st32" d="M184.47,297.47c1.58,0.33,0.81,1.71,1.16,2.58C184.95,299.32,184.73,298.39,184.47,297.47z"/>
		<path class="st8" d="M149.42,328.21c0.48,1.3,0.71,2.66,0.85,4.03c-1.14-0.1-1.17,0.81-1.54,1.56
			C149.06,331.93,148.98,330.05,149.42,328.21z"/>
		<path class="st8" d="M151.7,288.55c-0.07,0.8-0.24,1.57-0.56,2.3c-1.4-0.54-0.7-1.69-0.83-2.62
			C150.86,288.14,151.28,288.34,151.7,288.55z"/>
		<path class="st8" d="M148.83,307.34c-0.97-0.67-0.88-1.49-0.85-2.29c0.01-0.3,0.07-0.61,0.44-0.6c0.36,0.02,0.4,0.34,0.41,0.63
			C148.83,305.79,148.83,306.5,148.83,307.34z"/>
		<path class="st8" d="M155.16,275.89c-0.16,1.23-0.61,2.36-1.16,3.46c-0.38-0.16-0.57-0.45-0.57-0.86
			C154.01,277.63,154.59,276.76,155.16,275.89z"/>
		<path class="st8" d="M148.14,298.03c0.42,0.65,0.89,1.03,0.38,1.59c-0.16,0.18-0.39,0.39-0.6,0.17
			C147.42,299.23,147.96,298.75,148.14,298.03z"/>
		<path class="st8" d="M148.55,320.17c0,0.09,0,0.18,0,0.28c-0.07,0.71,0.13,1.45-0.35,2.11
			C148.1,321.73,147.54,320.86,148.55,320.17z"/>
		<path class="st8" d="M149.7,299.76c-0.12,0.76,0.27,1.59-0.29,2.3C149.1,301.24,148.63,300.41,149.7,299.76z"/>
		<path class="st8" d="M145.61,311.89c0,1.12,0,2.25,0,3.37c-0.05,0-0.1,0-0.14,0c0-1.12,0-2.24,0-3.36
			C145.51,311.91,145.56,311.9,145.61,311.89z"/>
		<path class="st8" d="M145.51,320.47c0.21,0.72,0.29,1.28-0.22,2.22C145.11,321.72,144.88,321.16,145.51,320.47z"/>
		<path class="st8" d="M152.58,283.96c-0.58-0.44-1.08-0.89,0-1.78C152.58,282.96,152.58,283.46,152.58,283.96
			C152.58,283.96,152.58,283.96,152.58,283.96z"/>
		<path class="st8" d="M150.66,284.85c0.17,0.32,0.32,0.51,0.37,0.72c0.05,0.21-0.11,0.36-0.33,0.34c-0.28-0.02-0.43-0.21-0.37-0.49
			C150.36,285.27,150.5,285.12,150.66,284.85z"/>
		<path class="st8" d="M149.96,285.83c-0.54,0.12-0.89,0.29-1.18-0.05c-0.03-0.04,0.08-0.25,0.17-0.34
			C149.39,285.02,149.56,285.45,149.96,285.83z"/>
		<path class="st8" d="M152,286.54c-0.21,0.01-0.27,0.49-0.52,0.23c-0.14-0.14-0.12-0.52,0.12-0.63
			C151.93,286,151.95,286.32,152,286.54C152,286.54,152,286.54,152,286.54z"/>
		<path class="st8" d="M150.67,283.2c0.21-0.03,0.35,0.03,0.32,0.19c-0.02,0.09-0.18,0.18-0.29,0.22c-0.06,0.02-0.16-0.07-0.24-0.11
			C150.54,283.4,150.62,283.29,150.67,283.2z"/>
		<path class="st35" d="M166.27,174.55c-5.51-1.65-9.23-5.47-12.13-10.2c-3.65-5.94-5.37-12.53-6.14-19.39
			c-0.57-5.05-0.87-10.12-0.59-15.2c0.31-5.81,1.22-11.51,3.7-16.85c3.74-8.03,9.19-10.18,17.44-6.89
			c4.53,1.81,8.28,4.76,11.73,8.12c4.48,4.36,8.28,9.28,11.76,14.46c0.51,0.75,1.06,1.1,1.96,1.15c4.62,0.26,8.96-0.5,12.8-3.35
			c-0.08,2.93-5.09,5.63-11.88,6.39c1.28,2.29,2.67,4.43,4.37,6.37c0.37,0.42,0.82,0.44,1.3,0.45c5.28,0.05,10.28-0.92,14.65-4.12
			c0.11-0.08,0.26-0.1,0.47-0.01c-2.68,4.79-7.29,6.29-12.56,7.14c2.62,2.04,5.44,3.1,8.56,3.32c3.19,0.22,6.1-0.77,8.92-2.18
			c-1.45,2.57-3.84,3.72-6.57,4.21c-6.14,1.1-11.26-1.14-15.83-5.04c-0.47-0.4-0.93-0.81-1.4-1.22c-1.04-0.49-1.69-1.38-2.36-2.25
			c-3.06-4.04-5.75-8.36-9.08-12.21c-4.02-4.65-8.27-9.05-13.52-12.34c-2.28-1.43-4.67-2.62-7.34-3.17
			c-2.64-0.54-4.88,0.12-6.9,1.91c-2.71,2.4-4.2,5.54-5.59,8.76c-0.62,1.45-1.18,2.93-1.44,4.5c-0.46,1.6-0.88,3.21-1.13,4.87
			c-0.1,0.63-0.29,1.24-0.36,1.88c-0.02,0.14-0.06,0.27-0.09,0.41c-0.18,0.53-0.1,1.1-0.16,1.64c-0.01,0.14-0.12,0.35-0.07,0.41
			c0.13,0.15,0.18-0.06,0.24-0.13c0.97-1.21,2.15-2.18,3.48-2.97c3.09-1.83,6.37-2.23,9.82-1.26c0.46,0.13,0.92,0.27,1.24,0.67
			c0.2,0.47-0.05,0.83-0.29,1.19c-1.21,1.78-1.67,3.79-1.41,5.87c0.66,5.27,2.8,9.81,7.17,13.05c2.64,1.96,5.41,2.92,8.35,0.5
			c0.26-0.21,0.57-0.36,0.92-0.14c0.64,0.59,0.45,1.38,0.53,2.1c0,1.52,0.03,3.05-0.02,4.57c-0.13,1.98-0.66,3.89-1.23,5.78
			c-1.02,2.23-2.18,4.38-3.91,6.16c-1.04,0.98-2.21,1.76-3.48,2.39C168.98,174.51,167.67,174.86,166.27,174.55z"/>
		<path class="st11" d="M150.29,126.61c1.21-4.31,2.86-8.41,5.76-11.91c2.68-3.23,5.96-4.25,10-2.96c4.1,1.31,7.56,3.65,10.8,6.38
			c5.94,5.01,10.83,10.95,15.18,17.35c1.48,2.18,3.07,4.26,4.8,6.25c-0.87,1.15-0.6,2.58-0.89,3.86c-0.81,3.54-1.91,6.98-3.21,10.36
			c-0.12,0.31-0.15,0.65-0.22,0.97c-0.28,1-0.44,2.06-1.5,2.6c-0.16,0.35-0.31,0.69-0.47,1.04c-0.14,1.04-0.55,1.9-1.53,2.41
			c-1.01,1.32-2.02,2.65-3.03,3.97c-0.16,1.12-0.93,1.69-1.89,2.08c-2.14,2.09-4.51,3.84-7.37,4.85c-0.41,0.19-0.81,0.34-1.18-0.06
			c-0.05-0.76,0.55-1.08,1.02-1.44c1.14-0.89,2.13-1.92,3.08-2.99c0.77-0.66,1.28-1.52,1.81-2.37c1.31-2.14,2.33-4.4,2.72-6.9
			c0.61-2.01,0.89-4.05,0.77-6.15c-0.12-1.65,0.16-3.3-0.13-4.94c-0.19-1.07-0.29-2.16-0.56-3.21c-0.33-1.57-0.74-3.11-1.39-4.58
			c-0.54-1.49-1.16-2.95-2-4.3c-0.63-1.31-1.47-2.48-2.35-3.63c-0.91-1.41-2.03-2.62-3.35-3.65c-0.11-0.07-0.22-0.15-0.32-0.23
			c-0.97-1.05-1.99-2.05-3.26-2.75c-1.22-0.77-2.42-1.56-3.82-1.99c-4.44-1.69-8.88-1.92-13.33-0.02c-0.92,0.4-1.76,0.93-2.61,1.46
			C151.37,126.41,150.94,126.92,150.29,126.61z"/>
		<path class="st36" d="M103.46,128.23c0.41-0.11,0.63-0.42,0.78-0.77c1.18-2.8,2.66-5.43,4.09-8.1c1.32-1.75,2.47-3.63,4.07-5.17
			c1.36-1.31,2.82-2.43,4.73-2.84c2-0.42,3.34,0.14,4.34,1.92c1.08,1.92,1.45,4.05,1.67,6.19c0.71,6.93,0.43,13.86-0.17,20.78
			c-0.15,0.1-0.28,0.08-0.4-0.05c-0.46-1.81-0.44-3.69-0.52-5.53c-0.21-4.54-0.61-9.05-1.48-13.52c-0.22-1.13-0.49-2.25-0.96-3.3
			c-0.73-1.62-1.57-1.87-3.05-0.93c-1.51,0.97-2.73,2.26-3.83,3.64c-1.54,1.95-3.05,3.93-4.31,6.08c-0.25,0.33-0.47,0.69-0.77,0.99
			c-0.14,0.14-0.37,0.15-0.48,0.34c-1.36,2.73-2.71,5.46-4.07,8.19c-1.2,1.66-2.29,3.41-3.78,4.85c-1.93,1.86-4.07,3.32-6.8,3.72
			c-1.21,0.18-2.34-0.01-3.4-0.68c3.74-0.09,6.59-1.8,8.87-4.61c0.12-0.72-0.34-0.45-0.68-0.39c-1.47,0.17-2.94,0.41-4.37-0.24
			c-0.48-0.21-0.94-0.45-1.28-1.12c2.43,0.45,4.61-0.12,6.79-0.93c2.53-0.94,3.35-3.02,4.1-5.42c-2.51,0.61-4.94,1.08-7.5-0.88
			C98.37,130.62,101.19,130.33,103.46,128.23z"/>
		<path class="st37" d="M225.93,64.88c1.65,1.58,2.03,3.46,2.52,5.27c0.91,3.38,1.1,6.84,1.22,10.33
			c0.21,6.35-0.39,12.55-2.59,18.54c-0.74,2.03-1.65,3.98-3.29,5.48c-0.2,0.18-0.34,0.47-0.77,0.4
			C227.99,91.96,227.67,78.63,225.93,64.88z"/>
		<path class="st38" d="M179.87,169.54c-1.05,1.75-2.81,2.75-4.31,4.02c-0.84,0.99-2.11,1.06-3.22,1.45
			c-2.07,0.42-4.09,0.22-6.07-0.45c2.84-0.18,5.14-1.54,7.25-3.3c0.87-0.44,1.44-1.2,2.01-1.95c0.7-0.93,3.02-1.39,3.95-0.76
			C179.86,168.79,179.78,169.19,179.87,169.54z"/>
		<path class="st39" d="M189.01,162.97c0.51-0.8,1.02-1.61,1.53-2.41c4.06,2.52,7.06,5.71,6.9,10.9c-0.02,0.57-0.04,1.15-0.52,1.81
			C196.3,168.18,192.87,165.4,189.01,162.97z"/>
		<path class="st39" d="M191,159.51c0.56-0.83,0.71-1.9,1.5-2.6c2.12,0.35,4.27,0.55,6.26,1.44c2.31,1.04,4.35,2.36,5.05,4.92
			c-0.16,0.35-0.32,0.23-0.4,0.16c-3.25-2.71-7.07-3.68-11.21-3.69C191.8,159.75,191.34,159.92,191,159.51z"/>
		<path class="st40" d="M184.08,169.01c0.63-0.69,1.26-1.38,1.89-2.08c1.99,2.03,2.24,4.61,2.14,7.24
			c-0.05,1.38-0.43,2.72-1.08,3.97c-0.77-0.13-0.31-0.73-0.38-1.1c-0.12-0.67,0.1-1.38-0.13-2.05
			C186.33,172.74,185.3,170.84,184.08,169.01z"/>
		<path class="st41" d="M122.06,155.56c-0.28,0.65-0.56,1.3-0.85,1.95c-0.57-0.71-0.48-1.57-0.35-2.34
			c0.38-2.21-0.08-4.38-0.21-6.57c-0.04-0.62-0.14-1.24-0.02-1.86c0.09-0.41,0.28-0.82,0.14-1.24c-0.22-0.67-0.27-1.22,0.66-1.29
			c0.87-0.06,1.19,0.39,1.1,1.21c-0.02,0.19,0.02,0.37,0.13,0.53C122.78,149.18,122.36,152.37,122.06,155.56z"/>
		<path class="st42" d="M122.66,145.96c-0.34-0.74-0.35-1.91-1.76-1.3c0.12,0.62,0.75,1.27-0.01,1.9c-1.06-0.44-0.26-1.45-0.64-1.88
			c0-0.4-0.33-0.2-0.14-0.23c0.02,0,0.03,0.02,0.04,0.06c0.04,0.39,0.38,0.95-0.48,0.8c-0.49-1.37-0.22-2.81-0.39-4.21
			c0.08-0.39,0.35-0.66,0.6-0.93c0.85-0.9,1.08-0.85,1.75,0.28c0.07,0.12,0.23-0.01,0.35,0c0.65,0.44,0.54,1.21,0.8,1.82
			c0.03,0.35,0.1,0.7-0.06,1.04C122.7,144.19,122.68,145.07,122.66,145.96z"/>
		<path class="st43" d="M122.75,175.44c0.33,2.45-0.38,4.06-1.84,4.61c-1.35,0.5-2.84-0.1-4.03-1.8
			C119.97,179.48,121.75,178.27,122.75,175.44z"/>
		<path class="st44" d="M172.34,175c1.02-0.6,2.1-1.08,3.22-1.45c0.3,0.43,0.75,0.25,1.15,0.3
			C175.34,174.58,173.92,175.08,172.34,175z"/>
		<path class="st45" d="M195.11,190.23c-0.13-0.24-0.36-0.27-0.59-0.3c1.05-0.58,2.1-1.15,3.15-1.73
			C196.93,189.08,196.18,189.87,195.11,190.23z"/>
		<path class="st46" d="M186.53,174.99c0.64,0.98-0.08,2.17,0.5,3.15c0,0.21-0.08,0.41-0.28,0.42c-0.37,0.01-0.25-0.3-0.25-0.5
			C186.51,177.03,186.52,176.01,186.53,174.99z"/>
		<path class="st47" d="M122.72,143.3c-0.02-0.38-0.04-0.76-0.07-1.14c-0.13-0.16-0.12-0.34-0.05-0.52
			c0.11-0.08,0.22-0.08,0.33-0.01C123,142.21,123.07,142.78,122.72,143.3z"/>
		<path class="st48" d="M122.94,141.64c-0.07,0-0.15,0-0.22-0.01c-0.4-0.47-0.44-0.95,0-1.42c0.09-0.01,0.17,0,0.26,0.01
			C122.96,140.69,122.95,141.17,122.94,141.64z"/>
		<path class="st49" d="M104.28,147.98c0.85,1.65,0.72,3.5,1.12,5.25c1.01,4.37,2.17,8.69,3.8,12.87c0.42,1.09,0.45,1.81-0.87,2.16
			c-0.68,0.18-1.35,0.49-1.96,0.85c-4.22,2.49-4.81,5.84-2.86,10.6c0.92,2.26,2.27,4.3,3.8,6.2c0.21,0.26,0.45,0.5,0.41,0.88
			c-3-3.08-5.14-6.67-5.7-10.95c-0.45-3.41,1.74-6.29,5.41-7.72c1.8-0.7,1.83-0.71,1.16-2.44c-1.97-5.14-3.27-10.45-4.28-15.85
			C104.2,149.24,104.29,148.6,104.28,147.98z"/>
		<path class="st50" d="M97.32,139.03c0.36-0.25,0.77-0.55,1.15-0.16c0.12,0.12-0.22,0.44-0.47,0.55
			C97.87,139.12,97.57,139.12,97.32,139.03z"/>
		<path class="st36" d="M119.87,145.33c0.12-0.34,0.24-0.68,0.38-1.09c0.22,0.8,0.43,1.56,0.64,2.31c0.46,3.64,0.66,7.29,0.31,10.96
			c-1.05,3.53-3.01,6.35-6.19,8.3c-1.07,0.65-1.61,0.68-2.14-0.69c-2.55-6.6-4.11-13.41-4.88-20.43c-0.36-3.28-0.73-6.56-0.53-9.87
			c0.17-0.3,0.24-0.64,0.44-0.92c0.41-0.28,0.84-0.69,1.14,0.11c-1.09,4.41,0.13,8.28,2.77,11.81c0.88,1.17,2.02,2.02,3.38,2.56
			c1.72,0.68,3.08,0.1,3.87-1.59C119.31,146.29,119.32,145.66,119.87,145.33z"/>
		<path class="st51" d="M107.98,134.17c-0.05,0.32-0.28,0.49-0.51,0.66c-0.02-1.85-0.02-3.7-0.07-5.55
			c-0.01-0.44,0.26-0.95-0.23-1.32c0.08-0.12,0.16-0.25,0.24-0.38c0.39-0.19,0.62-0.56,0.91-0.86c1.66-2.14,7.21-0.66,7.58,1.84
			c-1.18,1.44-2.93,1.07-4.46,1.39c-0.46,0.1-0.95,0.01-1.42,0.07c-0.99,0.11-1.73,0.4-1.65,1.64
			C108.42,132.5,108.04,133.32,107.98,134.17z"/>
		<path class="st52" d="M311.26,285.97c-0.17,2.24-0.53,4.44-1.66,6.42c-0.47,0.83-1.01,1.74-2.15,1.6
			c-1.16-0.14-1.37-1.18-1.63-2.1c-0.57-1.95-0.26-3.88,0.17-5.79c0.3-1.33,0.05-2.1-1.49-2.45c-2.58-0.59-3.87-4.55-2.32-6.7
			c0.76-1.05,2.46-1.3,3.91-0.56c0.38,0.19,0.75,0.41,1.13,0.61c0.41,0.13,0.61,0.46,0.74,0.82c0.86,2.49,1.98,4.86,3.2,7.19
			C311.3,285.31,311.43,285.63,311.26,285.97z"/>
		<path class="st52" d="M317.58,264.96c-1.05,0.92-2.15,2.08-3.63,1.27c-1.45-0.79-1.58-2.34-1.59-3.9c-0.01-1.7,0.57-2.99,2.15-3.7
			c0.86-0.39,0.78-0.77,0.37-1.53c-1.32-2.46-2.78-4.9-2.52-7.89c0.07-0.82-0.05-1.69,0.92-2.05c0.93-0.35,1.52,0.32,2.11,0.85
			c0.38,0.34,0.69,0.78,1.03,1.17c0.61,0.6,1.05,1.32,1.4,2.09c0.53,1.44,1.13,2.86,1.3,4.41c0.02,0.38,0.15,0.75,0.13,1.14
			c-0.35,2.29-0.85,4.56-1.11,6.86C318.08,264.15,317.98,264.63,317.58,264.96z"/>
		<path class="st53" d="M308.42,270.98c0.23-0.36,0.43-0.74,0.69-1.08c0.84-1.09,2.2-1.06,2.99,0.08c1.44,2.09,0.98,4.41,0.62,6.65
			c-0.18,1.08-0.64,1.75,1.05,1.97c1.96,0.26,3.72,3.88,3.11,5.81c-0.44,1.38-1.86,1.97-3.39,1.37c-0.53-0.21-1.05-0.46-1.57-0.69
			c-0.73-0.45-0.8-1.27-0.99-1.97c-0.67-2.39-2.06-4.46-2.92-6.77c-0.34-1.68-0.29-3.34,0.1-5.01
			C308.17,271.2,308.28,271.07,308.42,270.98z"/>
		<path class="st18" d="M322.13,289.71c-1.13,0.71-2.16,1.92-3.68,0.84c-1.02-0.74-1.12-2.2-0.34-4.09c0.45-1.1,1.11-2.09,2.26-2.44
			c1.3-0.4,1.42-1.26,1.18-2.3c-0.36-1.57-0.29-3.12,0.02-4.68c0.04-0.19,0.01-0.39,0.08-0.56c0.38-0.93,0.69-2.06,1.84-2.18
			c1.17-0.11,1.46,1.01,1.86,1.87c0.34,0.27,0.52,0.63,0.6,1.05c0.14,1.3,0.06,2.59,0.04,3.89c0,0.16-0.03,0.31-0.06,0.46
			c-1.2,2.3-2.27,4.66-3.06,7.15C322.75,289.12,322.56,289.51,322.13,289.71z"/>
		<path class="st54" d="M308.33,276.43c1.53,2.75,2.76,5.62,3.59,8.66c-0.02,0.1-0.03,0.2-0.05,0.29c0.07,0.31-0.07,0.51-0.34,0.63
			c-0.09-0.03-0.18-0.04-0.27-0.05c-1.64-2.86-2.91-5.89-4.05-8.97c0-0.17-0.01-0.34-0.01-0.51c-0.17-0.45-0.29-0.87,0.37-1.02
			C308.13,275.55,308.07,276.12,308.33,276.43z"/>
		<path class="st55" d="M317.58,264.96c0.34-2.81,0.63-5.63,1.43-8.37c0.15-0.28-0.03-0.63,0.18-0.91c0.25-0.3,0.48-0.66,0.97-0.48
			c0.06,0.48-0.16,1,0.23,1.42c-0.29,2.87-1.09,5.63-1.75,8.42C318.25,265.41,317.86,265.88,317.58,264.96z"/>
		<path class="st56" d="M322.13,289.71c1.01-2.75,1.76-5.62,3.53-8.04c0.87,0.06,0.7,0.62,0.55,1.16c-0.68,2.78-2.13,5.21-3.48,7.69
			C322.08,290.59,322.21,290.07,322.13,289.71z"/>
		<path class="st57" d="M307.76,275.61c-0.58,0.04-0.51,0.49-0.56,0.87c-0.62-0.9-1.23-1.8-1.88-2.68c-0.22-0.3-0.53-0.54-0.83-0.77
			c-0.5-0.38-1.08-0.47-1.58-0.07c-0.57,0.46,0.27,0.81,0.17,1.36c-0.72,0.04-1-0.44-1-1.01c0-0.72,0.48-1.09,1.2-1.17
			c1.32-0.15,2.03,0.85,3.11,1.81c-0.27-1.14-0.35-1.96-0.35-2.8c0-0.87,0.32-1.64,1.15-1.73c0.94-0.1,1.26,0.68,1.23,1.55
			c-0.03,0.1-0.05,0.2-0.08,0.31c-0.64,0.44-0.7-0.41-1.2-0.55c-0.27,1.01-0.1,1.94,0.24,2.87
			C307.62,274.26,308.02,274.88,307.76,275.61z"/>
		<path class="st58" d="M320.15,255.2c-0.27,0.19-0.54,0.38-0.81,0.58c-0.48-0.8-0.12-1.62-0.02-2.42c0.09-0.69,0.19-1.38,0.11-2.07
			c-0.05-0.13-0.08-0.26-0.11-0.4c-0.03-0.14-0.04-0.28-0.08-0.41c-0.12-0.43-0.11-1.09-0.71-1c-0.53,0.08-0.14,0.74-0.33,1.09
			c-0.1,0.11-0.22,0.17-0.37,0.19c-1.22-0.59-0.81-1.36-0.24-2.15c1.56-0.45,2.05-0.09,2.59,1.42c0.4,1.13-0.11,2.35,0.52,3.42
			C320.53,254.03,320.34,254.62,320.15,255.2z"/>
		<path class="st25" d="M325.63,277.02c-0.15-0.26-0.33-0.52-0.27-0.85c0.39-0.46,0.71-1.12,1.48-0.77
			c0.63,0.29,0.76,0.92,0.81,1.56c0.05,0.64-0.17,1.22-0.31,1.81c-0.16,0.49,0.05,1.26-0.88,1.18c-0.42-0.77,0.14-1.46,0.22-2.18
			C326.78,276.8,326.44,276.63,325.63,277.02z"/>
		<path class="st59" d="M326.48,279.92c0.6-0.15,0.45-0.85,0.85-1.15c0.1,0.1,0.2,0.19,0.3,0.29c0.01,0.2,0.01,0.41,0.02,0.61
			c-0.65,0.84-0.91,1.83-1.14,2.83c-0.1,0.11-0.2,0.22-0.3,0.33c-0.01-0.47-0.03-0.93-0.55-1.16c0-0.1,0-0.2-0.01-0.3
			C325.92,280.88,325.77,280.15,326.48,279.92z"/>
		<path class="st60" d="M317.61,248.61c-0.12,0.74-0.95,1.68,0.53,1.99c0.1,0.49-0.24,0.56-0.6,0.61c-0.61-0.54-0.82-1.31-1.13-2.03
			C317.09,249.58,317.11,248.59,317.61,248.61z"/>
		<path class="st61" d="M311.53,286.02c0.11-0.21,0.23-0.42,0.34-0.63c0.27,0.26,0.37,0.62,0.15,0.88
			C311.82,286.5,311.64,286.22,311.53,286.02z"/>
		<path class="st11" d="M178.06,152.84c-2.21,2.23-4.38,2.68-7.25,1.2c-5.17-2.67-7.8-7.24-9.04-12.74
			c-0.71-3.18-0.22-6.14,1.73-8.81c0.06-0.14,0.15-0.26,0.26-0.36c2.13-1.49,4.32-1.33,6.55-0.26c1.38,0.68,2.64,1.52,3.67,2.68
			c0.74,0.79,1.57,1.51,2.15,2.45c1.11,1.57,1.9,3.3,2.69,5.04c0.67,1.9,0.92,3.87,1,5.87c-0.2,0.74-0.08,1.52-0.25,2.26
			C179.18,151.12,179.06,152.23,178.06,152.84z"/>
		<path class="st62" d="M163.77,132.4c-0.08,0.06-0.16,0.09-0.26,0.1c-5.91-1.96-10.81-0.57-14.66,4.38
			c-0.11,0.14-0.28,0.22-0.44,0.35c-0.26-0.61,0.08-1.09,0.15-1.6c0.36-0.54-0.06-1.19,0.27-1.74l-0.01,0.01
			c0.36-0.61,0.32-1.32,0.49-1.97c0.07-0.12,0.17-0.22,0.28-0.3c2.17,0.05,3.82-1.48,5.82-1.92c0.23-0.05,0.43-0.27,0.66-0.27
			c2.39-0.01,4.58-0.53,6.33-2.3c0.19-0.19,0.63-0.26,0.82-0.1c0.95,0.8,1.8,0.39,2.74-0.04c0.5-0.23,1.13-0.07,1.71-0.08
			c0.64-0.01,1.3,0.16,1.7-0.68c0.22-0.47,0.8-0.43,1.28-0.2c0.38,0.17,0.67,0.58,1.17,0.44c1.34,0.63,2.34,1.66,3.24,2.8
			c-0.29,0.31-0.61,0.21-0.91,0.03c-1.56-0.93-3.03-0.9-4.38,0.39c-0.1,0.1-0.25,0.18-0.38,0.17c-2.56-0.02-4.72,1.91-7.36,1.5
			c-0.1-0.01-0.18,0.06-0.18,0.06C162.68,131.32,163.43,131.4,163.77,132.4z"/>
		<path class="st63" d="M150.29,126.61c2.47-1.65,5.02-3.1,8.03-3.51c3.38-0.46,6.65-0.1,9.76,1.36c-0.1,0.93-0.79,0.95-1.35,0.66
			c-1.02-0.54-1.77-0.16-2.43,0.52c-0.7,0.72-1.51,0.92-2.46,0.9c-1.67-0.05-3.34-0.1-4.82,0.94c-0.43,0.3-1.02,0.2-1.54,0.21
			c-0.58,0.01-1.17,0.02-1.59,0.49c-0.5,0.55-1.14,0.68-1.82,0.66c-1.1-0.04-1.67,0.55-1.9,1.56c-0.13,0.57-0.29,1.11-0.75,1.51l0,0
			c-0.09,0.13-0.18,0.13-0.28,0C149.28,130.08,149.85,128.36,150.29,126.61z"/>
		<path class="st64" d="M184.48,160.34c-0.48,2.51-1.31,4.87-2.91,6.9c-1.72,0.1-2.98-0.91-4.3-1.77c0.41-1.91,0.81-3.82,1.22-5.72
			c0.07-0.12,0.14-0.31,0.27-0.32C180.72,159.34,182.7,159.23,184.48,160.34z"/>
		<path class="st65" d="M184.48,160.34c-1.99-0.32-3.96-0.77-5.99-0.59c0-1.62,0.01-3.24,0.01-4.86c0.1-0.22,0.22-0.46,0.46-0.51
			c1.91-0.38,3.82-0.68,5.77-0.68c0.24,0,0.44,0.17,0.63,0.31C185.49,156.18,185.21,158.3,184.48,160.34z"/>
		<path class="st66" d="M185.37,154.02c-2.31,0.12-4.61,0.37-6.87,0.87c-0.17-0.68,0.06-1.44-0.44-2.05c0.4-0.88,0.8-1.76,1.2-2.64
			c0.1-0.04,0.24,0.36,0.3-0.03c0.06-0.36,0.12-0.72,0.26-1.06c0.11-0.1,0.24-0.16,0.38-0.19c0.99-0.04,1.96-0.21,2.95-0.18
			c0.87,0.03,1.74,0.07,1.8,1.02c-0.12-0.22-0.25-0.62,0.15-1.01C185.53,150.49,185.49,152.25,185.37,154.02z"/>
		<path class="st67" d="M168.76,160.15c0,1.37-0.98,2.4-2.3,2.43c-1.89,0.04-4.27-2.26-4.31-4.16c-0.03-1.33,1.17-2.44,2.65-2.45
			C166.75,155.96,168.76,158.08,168.76,160.15z"/>
		<path class="st68" d="M177.27,165.47c1.54,0.32,2.8,1.32,4.3,1.77c-0.33,0.94-0.91,1.69-1.7,2.29c-0.92-1.32-3.21-1.2-4.13,0.13
			c-0.53,0.75-1.17,1.49-2.22,1.58C175.11,169.55,176.22,167.53,177.27,165.47z"/>
		<path class="st69" d="M149.13,131.89c0.09,0,0.19,0,0.28,0c-0.01,0.73,0.1,1.48-0.59,2.01
			C148.74,133.2,148.94,132.54,149.13,131.89z"/>
		<path class="st69" d="M148.83,133.89c-0.07,0.58,0.24,1.22-0.27,1.74C148.59,135.03,148.39,134.41,148.83,133.89z"/>
		<path class="st69" d="M149.41,131.89c0.1-0.51,0.17-1.03,0.31-1.53c0.31-1.17,0.76-2.18,2.31-1.93c0.67,0.11,1.35,0.08,1.66-0.74
			c0.09-0.23,0.3-0.4,0.56-0.38c2.81,0.24,5.28-1.86,8.17-1.19c1.32,0.31,1.64-1.26,2.7-1.58c0.56-0.17,0.89-0.59,1.43,0.1
			c0.47,0.6,1.09,0.48,1.53-0.18c1.37,0.43,2.6,1.13,3.74,2c-0.42,0.51-0.69,0.31-1.14-0.07c-0.44-0.37-1.23-0.64-1.13,0.47
			c0.06,0.69-0.38,0.4-0.61,0.42c-0.71,0.03-1.43-0.01-2.15,0.02c-0.66,0.02-1.39-0.25-1.69,0.82c-0.16,0.56-0.79,0.39-1.09-0.13
			c-0.64-1.08-1.35-0.9-2.05-0.12c-1.16,1.29-2.47,2.03-4.3,1.74c-1.71-0.27-3.03,1.29-4.73,1.2
			C152.22,132.68,150.57,131.5,149.41,131.89z"/>
		<path class="st70" d="M178.44,141.94c-0.87-1.63-1.73-3.25-2.6-4.88c1.21-1.33,3.52-1.5,5.24-0.39c0.9,1.32,1.57,2.75,2,4.29
			c0.06,0.27,0.12,0.78-0.18,0.65C181.33,140.93,179.91,141.58,178.44,141.94z"/>
		<path class="st71" d="M178.44,141.94c0.33-0.62,0.79-1.08,1.55-0.85c0.98,0.29,2.08-0.83,2.97,0.28c0.04-0.13,0.08-0.27,0.11-0.4
			c0.77,1.45,1.19,3,1.43,4.61c0.1,0.41,0.31,0.95-0.06,1.18c-0.45,0.28-0.66-0.33-0.98-0.57c-0.54-0.39-1.01-1.13-1.81-0.72
			c-0.81,0.41-1.73,0.78-1.45,2.05c0.11,0.52,0.12,1.14-0.33,1.61c0,0.09,0,0.19,0,0.28c-0.02,0.39-0.26,0.38-0.34,0.1
			c-0.17-0.53-0.14-1.1,0.02-1.65C179.34,145.87,179.02,143.88,178.44,141.94z"/>
		<path class="st72" d="M163.77,132.4c-0.66-0.58-1.48-0.79-2.36-1.16c1.22-0.2,2.44-0.44,3.66-0.57c0.36-0.04,0.9,0.17,1.04-0.2
			c0.45-1.2,1.42-0.84,2.27-0.88c0.64-0.03,1.38,0.19,1.54-0.81c0.05-0.34,0.42-0.35,0.7-0.34c1.38,0.06,2.94-0.8,4.04,0.78
			c0.05,0.07,0.27,0.03,0.41,0.04c0.08-0.02,0.15-0.01,0.21,0.05c-0.25,1.25-1.04,2.02-2.29,1.78c-1.22-0.24-1.64,1-2.61,1.1
			C168.14,131.28,165.93,131.03,163.77,132.4z"/>
		<path class="st73" d="M170.37,132.19c0.64-1.48,1.87-1.6,3.26-1.47c0.98,0.1,0.79-1.3,1.65-1.41c1.48,0.96,2.53,2.3,3.43,3.78
			c0.03,0.15-0.04,0.36-0.15,0.33c-1.68-0.46-2.86,0.97-4.37,1.16c-0.08,0.01-0.15,0.21-0.32,0.17
			C172.7,133.89,171.54,133.04,170.37,132.19z"/>
		<path class="st74" d="M179.88,149.14c0-0.67-0.02-1.34,0-2.01c0.03-0.71-0.38-1.75,1.05-1.48c1.86-2.39,2.24,0.88,3.51,0.77
			c0.01-0.18,0.04-0.5,0.06-0.83c0.4,1.02,0.59,2.08,0.59,3.17c-0.04,0.42-0.07,0.83-0.11,1.32c-0.83-1.57-2.21-0.9-3.32-0.85
			C181.05,149.26,180.48,149.26,179.88,149.14z"/>
		<path class="st75" d="M173.87,134.75c0.2-0.2,0.13-0.67,0.63-0.57c0.22,0.04,0.63,0.04,0.67-0.06c0.76-1.81,2.33-0.78,3.53-1.03
			c1.07,1.01,1.76,2.28,2.38,3.59c-0.11,0.07-0.29,0.22-0.33,0.19c-1.7-1.31-3.3-0.35-4.92,0.2
			C175.18,136.29,174.53,135.52,173.87,134.75z"/>
		<path class="st11" d="M115.79,128.42c-2.33-2.62-4.89-3.1-7.49-1.43c-0.28,0.08-0.41,0-0.32-0.31c1.96-3.3,4.15-6.43,6.97-9.05
			c2.98-2.77,4.41-2.38,5.52,1.54c1.32,4.67,1.59,9.5,1.9,14.32c0.14,2.24,0.23,4.49,0.34,6.73c0,0.47,0,0.95,0,1.42
			c-0.02,0.18-0.04,0.35-0.06,0.53c-0.67-0.4-0.33-1.26-0.8-1.75c-0.71-0.29-0.57-1.02-0.76-1.56c-0.38-1.12-0.69-2.26-1.19-3.34
			c-0.62-1.36-1.28-2.7-2.02-4C117.3,130.4,116.29,129.58,115.79,128.42z"/>
		<path class="st76" d="M107.98,126.68c0.11,0.1,0.21,0.2,0.32,0.31c-0.2,0.34-0.45,0.62-0.89,0.6
			C107.54,127.24,107.63,126.87,107.98,126.68z"/>
		<path class="st11" d="M119.87,145.33c-0.68,3.82-3.26,4.87-6.39,2.6c-4.12-2.99-6.29-9.59-4.61-14.03
			c0.54-1.58,1.87-2.33,3.58-1.98c1.2,0.24,2.2,0.88,3.11,1.68c0.98,0.91,1.79,1.96,2.5,3.09c0.69,1.29,1.61,2.51,1.47,4.1
			C119.88,142.28,119.85,143.81,119.87,145.33z"/>
		<path class="st77" d="M119.53,140.79c-0.58-1.34-1.16-2.68-1.75-4.02c0.33-1.2,1.51-1.06,2.33-1.48c0.98,1.57,1.24,3.39,1.74,5.13
			c-0.11,0.11-0.16,0.66-0.3,0.29c-0.58-1.51-1.06-0.81-1.62-0.04C119.86,140.75,119.67,140.75,119.53,140.79z"/>
		<path class="st78" d="M115.44,133.92c-0.43-0.29-0.85-0.58-1.28-0.86c-2.1-1.38-3.7-1.13-5.28,0.84
			c-0.41-0.28-0.63,0.06-0.89,0.27c-0.65-1.31,0.18-2.58,0.18-3.88c0-0.39,1.23-0.73,2.08-0.72c1.92,0.02,3.85-0.06,5.55-1.15
			c1,0.79,1.7,1.8,2.28,2.92c0.25,0.32,0.11,0.61-0.21,0.62c-1.28,0.03-1.83,0.78-2.06,1.92
			C115.77,133.99,115.58,134.01,115.44,133.92z"/>
		<path class="st79" d="M116.28,156.13c-0.08,0.99-0.7,1.65-1.77,1.8c-1.17,0.16-2.44-1.34-2.49-2.82
			c-0.03-1.08,0.44-1.77,1.54-1.83C114.76,153.22,116.23,154.76,116.28,156.13z"/>
		<path class="st80" d="M317.54,251.21c0.2-0.2,0.4-0.41,0.6-0.61c0,0,0,0,0,0c0.12-0.22,0.02-0.45,0.06-0.68
			c0.04-0.28,0.15-0.55,0.49-0.58c0.36-0.03,0.43,0.26,0.55,0.51c0.15,0.33,0.12,0.73,0.37,1.03l0,0c0.37,1.72-0.12,3.3-0.78,4.85
			C318.39,254.23,317.96,252.72,317.54,251.21z"/>
		<path class="st60" d="M318.81,255.74c0.29-1.61,0.89-3.17,0.78-4.85c0.68,1.67-0.18,3.26-0.25,4.89
			c-0.08,0.29,0.01,0.64-0.33,0.81C318.85,256.33,318.71,256.06,318.81,255.74z"/>
		<path class="st81" d="M307.76,275.61c-0.41-1.41-1.29-2.69-1.12-4.25c0.06-0.5-0.17-1.2,0.51-1.33c0.7-0.14,0.54,0.6,0.74,0.99
			c0.07,0.13,0.3,0.18,0.46,0.27c-0.01,1.71-0.36,3.43-0.01,5.14C307.95,276.29,307.84,275.96,307.76,275.61z"/>
		<path class="st82" d="M326.48,279.92c-0.28,0.48-0.55,0.97-0.83,1.45c-0.01-1.45-0.02-2.9-0.03-4.35c0.5-0.18,0.05-1.25,0.88-1.04
			c0.75,0.19,0.51,0.91,0.55,1.45C327.12,278.32,326.6,279.08,326.48,279.92z"/>
		<path class="st60" d="M319.59,250.89c-0.53-0.26-0.39-1-0.86-1.31c-0.48,0.21-0.14,0.84-0.59,1.02c-0.2-0.48-0.47-0.96-0.04-1.45
			c0.21-0.24,0.5-0.32,0.76-0.14C319.52,249.46,319.62,250.16,319.59,250.89z"/>
		<path class="st74" d="M179.56,147.87c0.21,0.49-0.3,1.14,0.32,1.55c0.27,0.48,0.15,0.95-0.26,1.21c-0.28,0.18-0.29-0.23-0.36-0.43
			C179.32,149.42,179.28,148.63,179.56,147.87z"/>
		<path class="st83" d="M115.44,133.92c-0.04-1.79,1.35-2.13,2.63-2.59c0.92,1.19,1.56,2.53,2.04,3.95
			c-0.55,0.85-1.77,0.64-2.33,1.48C117.01,135.82,116.22,134.87,115.44,133.92z"/>
	</g>
</g>
</svg>
