<?xml version="1.0" encoding="utf-8"?>
<!-- Generator: Adobe Illustrator 28.2.0, SVG Export Plug-In . SVG Version: 6.00 Build 0)  -->
<svg version="1.1" id="Capa_1" xmlns="http://www.w3.org/2000/svg" xmlns:xlink="http://www.w3.org/1999/xlink" x="0px" y="0px"
	 viewBox="0 0 595.28 841.89" style="enable-background:new 0 0 595.28 841.89;" xml:space="preserve">
<style type="text/css">
	.st0{fill:none;stroke:#025994;stroke-width:5;stroke-miterlimit:10;}
	.st1{fill:none;stroke:#7F2182;stroke-width:5;stroke-miterlimit:10;}
	.st2{fill:none;stroke:#088D49;stroke-width:5;stroke-miterlimit:10;}
	.st3{fill:none;stroke:#891812;stroke-width:5;stroke-miterlimit:10;}
</style>
<ellipse class="st0" cx="311.02" cy="470.79" rx="194.27" ry="237.5"/>
<ellipse class="st0" cx="340.19" cy="518.19" rx="146.35" ry="178.65"/>
<ellipse class="st0" cx="375.08" cy="544.23" rx="98.96" ry="138.02"/>
<ellipse class="st0" cx="400.34" cy="585.9" rx="60.16" ry="80.73"/>
<ellipse class="st0" cx="422.48" cy="611.42" rx="29.69" ry="43.75"/>
<ellipse class="st0" cx="406.99" cy="310.37" rx="20.17" ry="29.17"/>
<ellipse class="st0" cx="324.45" cy="303.6" rx="32.93" ry="22.4"/>
<ellipse class="st0" cx="237.02" cy="330.69" rx="26.52" ry="20.31"/>
<circle class="st0" cx="189.59" cy="403.31" r="14.51"/>
<ellipse class="st0" cx="183.06" cy="348.92" rx="12.14" ry="15.35"/>
<circle class="st0" cx="158.65" cy="456.72" r="26.71"/>
<ellipse class="st0" cx="160.5" cy="524.7" rx="14.58" ry="19.53"/>
<ellipse class="st0" cx="266.24" cy="273.81" rx="10.95" ry="16.77"/>
<ellipse class="st0" cx="336.54" cy="262.41" rx="20.83" ry="11.41"/>
<ellipse class="st0" cx="453.52" cy="353.34" rx="13.23" ry="22.66"/>
<ellipse class="st0" cx="185.5" cy="583.29" rx="14.58" ry="11.46"/>
<circle class="st0" cx="210.76" cy="633.55" r="10.68"/>
<ellipse class="st0" cx="254.26" cy="608.42" rx="17.25" ry="25.13"/>
<ellipse class="st0" cx="222.61" cy="555.43" rx="11.85" ry="11.2"/>
<ellipse class="st0" cx="244.88" cy="507.51" rx="10.42" ry="36.72"/>
<ellipse class="st0" cx="215.97" cy="490.21" rx="5.47" ry="11.08"/>
<ellipse class="st0" cx="255.56" cy="446.76" rx="10.68" ry="16.74"/>
<ellipse class="st0" cx="277.32" cy="408.62" rx="21.76" ry="12.32"/>
<ellipse class="st0" cx="322.82" cy="382.88" rx="17.37" ry="12.09"/>
<circle class="st0" cx="382.79" cy="380.28" r="16.02"/>
<ellipse class="st0" cx="364.67" cy="470.08" rx="28.12" ry="13.35"/>
<circle class="st0" cx="436.84" cy="486.92" r="14.36"/>
<circle class="st0" cx="394.87" cy="438.3" r="12.3"/>
<ellipse class="st0" cx="335.89" cy="509.74" rx="13.07" ry="8.45"/>
<ellipse class="st0" cx="307.17" cy="558.55" rx="15.65" ry="27.34"/>
<circle class="st0" cx="323.78" cy="624.18" r="12.76"/>
<circle class="st0" cx="372.1" cy="596.69" r="14.73"/>
<circle class="st0" cx="392.31" cy="541.62" r="16.93"/>
<circle class="st0" cx="424.5" cy="616.3" r="7.88"/>
<polyline class="st1" points="331.33,571.83 568.83,273.81 254.26,130.17 35.5,463.5 237.02,786.42 534.46,644.23 537.58,417.82 "/>
<polyline class="st2" points="51.12,189.54 535.5,364.27 153.21,689.54 366.77,216.62 67.79,348.92 427.16,770.79 "/>
<polygon class="st3" points="215.97,223.92 151.57,204.79 99.3,247 97.59,179.84 41.3,143.17 104.64,120.79 122.12,55.92 
	162.98,109.25 230.07,105.83 191.98,161.16 "/>
<polygon class="st3" points="480.29,657.25 510.68,703.19 565.75,704.21 531.45,747.3 547.51,799.99 495.92,780.69 450.77,812.24 
	453.19,757.21 409.23,724.02 462.31,709.32 "/>
<polygon class="st3" points="311.02,439.04 254.36,423.49 209.43,461.35 206.71,402.66 156.82,371.62 211.8,350.9 225.9,293.87 
	262.6,339.75 321.2,335.53 288.9,384.61 "/>
<polygon class="st3" points="357.38,585.9 380.01,593.63 399.21,579.36 398.85,603.28 418.34,617.13 395.49,624.18 388.34,647 
	374.58,627.44 350.66,627.7 365.01,608.56 "/>
</svg>
